<svg width="108" height="40" viewBox="0 0 108 40" fill="none" xmlns="http://www.w3.org/2000/svg">
<path d="M28.3306 32C27.5641 32 26.8722 31.8084 26.2548 31.4252C25.6374 31.0419 25.1371 30.5416 24.7538 29.9242C24.3706 29.3068 24.179 28.6149 24.179 27.8484V17.6291C24.179 16.8627 24.3706 16.1707 24.7538 15.5533C25.1371 14.9359 25.6374 14.4356 26.2548 14.0523C26.8722 13.6691 27.5641 13.4775 28.3306 13.4775H38.8692C39.6357 13.4775 40.3276 13.6691 40.945 14.0523C41.5837 14.4143 42.0841 14.9146 42.446 15.5533C42.8292 16.192 43.0208 16.8839 43.0208 17.6291V27.8484C43.0208 28.6149 42.8292 29.3068 42.446 29.9242C42.0841 30.5416 41.5837 31.0419 40.945 31.4252C40.3276 31.8084 39.6357 32 38.8692 32H28.3306ZM28.4264 28.551H38.7734C38.9863 28.551 39.1673 28.4765 39.3163 28.3274C39.4654 28.1571 39.5399 27.9655 39.5399 27.7526V17.7249C39.5399 17.512 39.4654 17.331 39.3163 17.182C39.1673 17.0117 38.9863 16.9265 38.7734 16.9265H28.4264C28.2135 16.9265 28.0219 17.0117 27.8516 17.182C27.7025 17.331 27.628 17.512 27.628 17.7249V27.7526C27.628 27.9655 27.7025 28.1571 27.8516 28.3274C28.0219 28.4765 28.2135 28.551 28.4264 28.551ZM45.8234 32V17.6291C45.8234 16.8627 46.015 16.1707 46.3983 15.5533C46.7815 14.9359 47.2818 14.4356 47.8992 14.0523C48.5379 13.6691 49.2298 13.4775 49.975 13.4775H60.3221V16.9265H50.0708C49.8579 16.9265 49.6663 17.0117 49.496 17.182C49.3469 17.331 49.2724 17.512 49.2724 17.7249V32H45.8234ZM62.3213 32V17.6291C62.3213 16.8627 62.5129 16.1707 62.8961 15.5533C63.2793 14.9359 63.7796 14.4356 64.3971 14.0523C65.0358 13.6691 65.7277 13.4775 66.4728 13.4775H76.8199V16.9265H66.5687C66.3558 16.9265 66.1641 17.0117 65.9938 17.182C65.8448 17.331 65.7703 17.512 65.7703 17.7249V32H62.3213ZM79.0374 32V13.4775H82.4864V32H79.0374ZM79.0374 10.8588V7.4098H82.4864V10.8588H79.0374ZM90.4214 32C89.6549 32 88.963 31.8084 88.3456 31.4252C87.7281 31.0419 87.2278 30.5416 86.8446 29.9242C86.4614 29.3068 86.2698 28.6149 86.2698 27.8484V27.3694H89.7188V27.7526C89.7188 27.9655 89.7933 28.1571 89.9423 28.3274C90.1126 28.4765 90.3043 28.551 90.5172 28.551H100.864C101.077 28.551 101.258 28.4765 101.407 28.3274C101.556 28.1571 101.631 27.9655 101.631 27.7526V25.2616C101.631 25.0487 101.556 24.8678 101.407 24.7187C101.258 24.5484 101.077 24.4633 100.864 24.4633H90.4214C89.6549 24.4633 88.963 24.2823 88.3456 23.9204C87.7281 23.5371 87.2278 23.0368 86.8446 22.4194C86.4614 21.7807 86.2698 21.0781 86.2698 20.3117V17.6291C86.2698 16.8627 86.4614 16.1707 86.8446 15.5533C87.2278 14.9359 87.7281 14.4356 88.3456 14.0523C88.963 13.6691 89.6549 13.4775 90.4214 13.4775H100.96C101.726 13.4775 102.418 13.6691 103.036 14.0523C103.675 14.4356 104.175 14.9359 104.537 15.5533C104.92 16.1707 105.112 16.8627 105.112 17.6291V18.1081H101.631V17.7249C101.631 17.512 101.556 17.331 101.407 17.182C101.258 17.0117 101.077 16.9265 100.864 16.9265H90.5172C90.3043 16.9265 90.1126 17.0117 89.9423 17.182C89.7933 17.331 89.7188 17.512 89.7188 17.7249V20.2159C89.7188 20.4288 89.7933 20.6204 89.9423 20.7907C90.1126 20.9397 90.3043 21.0142 90.5172 21.0142H100.96C101.726 21.0142 102.418 21.2059 103.036 21.5891C103.675 21.951 104.175 22.4513 104.537 23.09C104.92 23.7075 105.112 24.3994 105.112 25.1658V27.8484C105.112 28.6149 104.92 29.3068 104.537 29.9242C104.175 30.5416 103.675 31.0419 103.036 31.4252C102.418 31.8084 101.726 32 100.96 32H90.4214Z" fill="#023E8A"/>
<path d="M11.5527 16.8763V24.3242L16.7052 19.6339C16.8315 19.5189 17.0342 19.6085 17.0342 19.7793V31.0941C17.0342 31.3838 17.162 31.6587 17.3834 31.8455L17.5461 31.9828C17.7235 32.1325 17.9481 32.2146 18.1802 32.2146H21.1647C21.4455 32.2146 21.713 32.0945 21.8995 31.8846L21.9478 31.8303C22.1078 31.6503 22.1961 31.4179 22.1961 31.1771V8.42343C22.1961 8.16926 22.1018 7.91925 21.9004 7.76419C21.807 7.69231 21.703 7.6236 21.6062 7.58483C21.3849 7.49615 21.0665 7.50993 20.8371 7.53738C20.6479 7.56002 20.4786 7.65773 20.3461 7.79466L11.5527 16.8763Z" fill="#BB0A1E"/>
<path d="M10.6436 16.8763V24.3242L5.4911 19.6339C5.36481 19.5189 5.16208 19.6085 5.16208 19.7793V31.0941C5.16208 31.3838 5.03432 31.6587 4.81291 31.8455L4.65017 31.9828C4.4728 32.1325 4.2482 32.2146 4.01612 32.2146H1.03162C0.750775 32.2146 0.483335 32.0945 0.29675 31.8846L0.248507 31.8303C0.0885248 31.6503 0.000154495 31.4179 0.000154495 31.1771V8.42343C0.000154495 8.16926 0.0944967 7.91925 0.295893 7.76419C0.389246 7.69231 0.493292 7.6236 0.590089 7.58483C0.811428 7.49615 1.12975 7.50993 1.35915 7.53738C1.5484 7.56002 1.71764 7.65773 1.85023 7.79466L10.6436 16.8763Z" fill="#023E8A"/>
</svg>
