<?xml version="1.0" encoding="utf-8"?>
<!-- Generator: Adobe Illustrator 21.0.0, SVG Export Plug-In . SVG Version: 6.00 Build 0)  -->
<svg version="1.1" id="Layer_1" xmlns="http://www.w3.org/2000/svg" xmlns:xlink="http://www.w3.org/1999/xlink" x="0px" y="0px"
	 viewBox="0 0 500 165.7" style="enable-background:new 0 0 500 165.7;" xml:space="preserve">
<style type="text/css">
	.st0{clip-path:url(#SVGID_2_);fill:url(#SVGID_3_);}
	.st1{clip-path:url(#SVGID_5_);fill:url(#SVGID_6_);}
	.st2{clip-path:url(#SVGID_8_);fill:url(#SVGID_9_);}
	.st3{fill:none;}
</style>
<g>
	<defs>
		<path id="SVGID_1_" d="M86.2,81.5c-4.2,9.4-18.2,49.1-18.2,51.6c0,2.3,19.2,14.3,20.7,12.7c0.4-0.4,0.4-15.9,0.2-34.8
			c-0.4-23-0.7-30.7-1.8-30.7C86.9,80.3,86.6,80.7,86.2,81.5 M22.2,66.3c0,0.7,8.7,10.4,19.1,21.7c10.6,11.3,20.7,22.2,22.4,24.4
			c4.4,5.3,5.5,5.1,7.6-0.9c6.4-17.3,16.2-45,16.2-45.5c0-0.4-14.7-0.7-32.7-0.7C36.8,65.3,22.2,65.8,22.2,66.3 M7.1,34.1l-1.7,1.6
			H10h4.6v-4c0-2.2-0.1-4-0.1-4C14.3,27.6,9.8,31.6,7.1,34.1 M17.7,26.4v17.3v17.1l10.6,0.5c9.9,0.5,11.1,0.2,15.9-4.9l5.1-5.3
			l-3.5-3.9c-1.9-2.3-7.1-7.8-11.3-12.5c-5.3-5.8-9-8.3-12.2-8.3H17.7z M137.7,20c-0.8,0.6-12.7,12-15.4,14.9
			c-1.2,1.2,0.6,0.2,10.4-6.1c6.5-4.2,11.8-7.6,11.9-7.8c0.3-0.5-3.7-1.2-5.8-1.2C138.3,19.8,137.9,19.9,137.7,20 M53,52.4l-8.5,9.4
			H67h22.2v-23c0-12.7-0.4-23-0.7-23C87.8,15.8,66.1,38.2,53,52.4 M92.8,35.2v23.7l15.2-15c8.5-8.1,18.4-17.8,22.2-21.5
			c3.9-3.7,6.7-7.2,6-7.8c-0.5-0.5-10.6-1.4-22.2-1.9l-21.2-0.9V35.2z"/>
	</defs>
	<clipPath id="SVGID_2_">
		<use xlink:href="#SVGID_1_"  style="overflow:visible;"/>
	</clipPath>
	
		<linearGradient id="SVGID_3_" gradientUnits="userSpaceOnUse" x1="-168.756" y1="343.7036" x2="-168.1922" y2="343.7036" gradientTransform="matrix(135.2537 207.2964 -378.4297 246.9126 152925.75 -49866.875)">
		<stop  offset="0" style="stop-color:#FAC826"/>
		<stop  offset="5.618000e-03" style="stop-color:#FAC826"/>
		<stop  offset="0.2528" style="stop-color:#FFFACB"/>
		<stop  offset="0.3048" style="stop-color:#F8EEBA"/>
		<stop  offset="0.408" style="stop-color:#E7D08D"/>
		<stop  offset="0.5516" style="stop-color:#CBA145"/>
		<stop  offset="0.5955" style="stop-color:#C2912E"/>
		<stop  offset="0.8708" style="stop-color:#EDD688"/>
		<stop  offset="1" style="stop-color:#FFFACB"/>
	</linearGradient>
	<polygon class="st0" points="-56.7,52.3 47.1,211.2 206.9,106.9 103.2,-52.1 	"/>
</g>
<g>
	<defs>
		<path id="SVGID_4_" d="M239.8,77.6c0.8-5.5,2.4-9.4,5-11.8c2.6-2.4,5.1-3.6,7.7-3.6c2.8,0,5.2,1.1,7.2,3.2
			c2.1,2.1,3.1,4.6,3.1,7.4c0,1.8-0.6,3.1-1.7,3.8c-1.1,0.7-2.8,1.1-4.9,1.2l-2.8,0.1C248.9,77.9,244.4,77.8,239.8,77.6 M238,67.2
			c-4.5,4.6-6.7,10.4-6.7,17.2c0,6.4,2,11.8,6.2,16c4.1,4.2,9.1,6.3,15.1,6.3c4,0,7.7-0.9,11-2.6c3.3-1.7,5.6-3.8,7-6.3
			c0-0.9-0.3-1.4-0.9-1.4c-0.3,0-1,0.5-2.1,1.4c-3.7,3.4-7.8,5.1-12.1,5.1c-4.4,0-8.2-1.7-11.2-5.2c-3-3.5-4.5-7.7-4.5-12.8
			c0-1.1,0.1-2.5,0.2-4.3l26.9-0.9c2.5,0,3.9-0.2,4.1-0.5c0.2-0.3,0.3-0.9,0.3-1.6c0-4.7-1.9-8.7-5.8-12.2c-3.9-3.5-8.2-5.2-13-5.2
			C247.2,60.3,242.4,62.6,238,67.2 M299.6,63.3c-2.5,2-4.9,5-7.1,8.9c-0.3-6-0.6-9.9-0.9-11.9l-9,0.6c-2.8,0.2-4.3,0.4-4.5,0.5
			c-0.2,0.1-0.4,0.4-0.4,0.7c0,0.6,0.6,0.9,1.8,1c2.9,0.1,4.5,1.4,5,3.8c0.4,2.4,0.7,9.4,0.7,21.1c0,8-0.3,12.6-0.8,13.9
			c-0.5,1.2-1.9,1.9-4.2,2.1c-1.6,0.1-2.4,0.4-2.4,1c0,0.6,0.6,0.9,1.9,0.9h17.8c1.7,0,2.6-0.4,2.6-1.1c0-0.4-0.4-0.7-1.1-0.7
			c-2.8-0.3-4.6-0.9-5.3-2c-0.7-1-1-5.1-1-12.1c0-7.7,0.3-12.7,0.9-15.2c0.6-2.4,1.9-4.6,3.8-6.7c1.9-2,3.7-3,5.4-3
			c1.9,0,3.3,1.2,4.5,3.6c0.9,1.9,2,2.9,3.4,2.9c2.8,0,4.3-1.6,4.3-4.7c0-1.7-0.7-3.1-2.1-4.4c-1.4-1.3-3.1-2-5-2
			C304.8,60.3,302.1,61.3,299.6,63.3 M357.8,60.8c-3.9,0.3-6,0.5-6.3,0.7c-0.3,0.2-0.4,0.4-0.4,0.7c0,0.6,0.4,0.9,1.2,0.9
			c2.4,0.1,4.1,0.7,4.9,1.8c0.8,1.1,1.3,4.6,1.3,10.6v22.3c0,3-0.3,4.8-0.8,5.4c-0.5,0.6-1.8,1.1-3.7,1.3c-1.9,0.2-2.9,0.7-2.9,1.3
			c0,0.6,0.4,0.9,1.2,0.9c0.3,0,0.7-0.1,1-0.2c1.7-0.5,4.7-0.7,9.1-0.7c2.7,0,5.7,0.3,8.9,0.9c0.3,0,0.6,0.1,0.9,0.1
			c0.7,0,1.1-0.3,1.1-0.8c0-0.6-0.9-1-2.7-1.1c-1.6-0.1-2.7-0.4-3.5-1.1c-0.8-0.7-1.2-2.3-1.2-4.9v-6.5v-8.5V72.4V60.3
			C364.4,60.4,361.7,60.5,357.8,60.8 M401.4,63c-2.6,1.8-5,4.4-7.2,7.9c-0.1-4.5-0.5-7.7-1.1-9.6c-4.5,0-7.1,0-7.6,0l-4.5,0
			c-1.1,0-1.7,0.3-1.7,0.8c0,0.5,0.7,0.8,2.2,1.1c1.6,0.4,2.9,1.3,3.8,2.8c0.9,1.5,1.4,5.4,1.4,11.6c0,6.7-0.1,12.3-0.3,16.8
			c-0.2,4.5-0.6,7.1-1.2,7.9c-0.6,0.8-1.7,1.3-3.4,1.7c-1.7,0.3-2.6,0.7-2.6,1.2c0,0.5,0.8,0.8,2.4,0.8l4.5-0.1
			c5.8,0,9.3,0,10.3,0.1l2.9,0.2c0.8,0,1.2-0.3,1.2-0.9c0-0.8-0.4-1.2-1.3-1.3c-2.7-0.3-4.4-1-5.1-2.3c-0.7-1.3-1-4.2-1-8.9
			c0-10.3,1.3-17.6,3.9-22c2.6-4.4,5.9-6.6,9.9-6.6c2.7,0,4.9,1.2,6.7,3.7c1.8,2.5,2.7,7.4,2.7,14.8c0,2.7-0.1,6.2-0.3,10.6
			c-0.2,4.3-0.4,6.9-0.6,7.6c-0.3,0.8-0.7,1.4-1.3,1.8c-0.6,0.5-2,0.9-4,1.3c-0.8,0.2-1.1,0.6-1.1,1.1c0,0.7,0.7,1.1,2,1.1
			c3.3-0.3,6.5-0.4,9.4-0.4c3.2,0,5.7,0.3,7.3,0.8c0.2,0.1,0.5,0.1,0.8,0.1c0.6,0,0.9-0.3,0.9-0.8c0-0.4-0.6-0.8-1.8-1.1
			c-1.7-0.5-2.8-1.2-3.3-2c-0.5-0.8-0.8-3-0.8-6.3l0.3-18.4c0-5.5-0.6-9.3-1.8-11.6c-1.2-2.3-2.9-3.9-5.1-4.8
			c-2.2-0.9-4.5-1.4-6.9-1.4C406.9,60.3,404,61.2,401.4,63 M447.9,129.3c-2.9-1.6-4.4-4-4.4-7c0-2.3,0.7-4.3,2.2-5.9
			c1.5-1.7,3.7-3.1,6.8-4.2c3.1-1.2,6.4-1.8,10-1.8c5.4,0,9.5,0.7,12.2,2.1c2.7,1.4,4,3.5,4,6.2c0,3.2-1.6,6.2-4.9,8.9
			c-3.2,2.7-8.2,4.1-14.9,4.1C454.5,131.7,450.8,130.9,447.9,129.3 M452.4,87.6c-2.2-2.2-3.3-5.9-3.3-11.1c0-4.5,0.9-8,2.8-10.6
			c1.9-2.5,4.2-3.8,7.2-3.8c2.7,0,4.9,1.3,6.8,3.9c1.8,2.6,2.8,6.3,2.8,11.1c0,4.6-0.9,8.1-2.8,10.3c-1.9,2.3-3.9,3.4-6.3,3.4
			C457,90.9,454.7,89.8,452.4,87.6 M473.2,66.7c-3.4-4.2-7.8-6.3-13.2-6.3c-5.6,0-10.2,1.8-13.8,5.4c-3.6,3.6-5.4,7.7-5.4,12.5
			c0,3.3,1,6.2,3.1,8.7c2.1,2.5,4.8,4.2,8.1,5.1c-3.7,1.2-6.5,2.6-8.4,4.3c-1.9,1.7-2.8,3.7-2.8,5.9c0,2.2,0.9,3.9,2.7,5.1
			c1.8,1.2,4.8,2.2,9.2,2.9c-10.4,3.4-15.6,7.7-15.6,13.1c0,3.4,1.7,6,5.1,7.7c3.4,1.7,8.5,2.6,15.3,2.6c9.2,0,16.1-1.7,20.8-5
			c4.7-3.3,7-7.7,7-13c0-3.2-0.9-5.9-2.8-7.9c-1.9-2.1-4.1-3.3-6.7-3.7c-2.6-0.4-7.8-0.7-15.6-1c-5.3-0.2-8.8-0.6-10.4-1.3
			c-1.7-0.7-2.5-1.7-2.5-3.2c0-1,0.5-1.9,1.6-2.9c1.1-1,2.2-1.6,3.6-2c1.3-0.3,3.7-0.6,7.3-0.9c5.5-0.4,9.8-2.1,12.8-5.2
			c2.9-3.1,4.4-6.8,4.4-11.2c0-2.9-0.8-5.6-2.4-8c2.4-2.2,4.3-3.4,5.8-3.4c0.9,0,1.7,0.6,2.3,1.7c1.1,1.9,2.6,2.9,4.4,2.9
			c1,0,1.9-0.3,2.6-0.9c0.7-0.6,1.1-1.4,1.1-2.4c0-1.5-0.6-2.9-1.9-4.1c-1.2-1.2-3-1.9-5.3-1.9C480.4,60.3,476.9,62.4,473.2,66.7
			 M207.9,47.3c-0.6,4.7-2.4,8.4-5.7,11c-3.3,2.6-5.6,4.2-7,4.7c-0.8,0.3-1.3,0.7-1.3,1.1c0,0.5,0.4,0.8,1.2,0.8l3.1,0.3
			c3.1,0.3,4.7,0.5,5,0.6c-0.6,12.3-0.9,21.1-0.9,26.1c0,4.9,0.9,8.6,2.8,11c1.8,2.5,4.6,3.7,8.3,3.7c3.7,0,6.9-0.9,9.4-2.7
			c2.6-1.8,3.9-3.1,3.9-4c0-0.5-0.4-0.7-1.3-0.7c-0.3,0-0.9,0.2-1.7,0.7c-2.2,1.4-4.2,2-6.1,2c-2.5,0-4.5-0.9-5.8-2.6
			c-1.3-1.7-2-5.4-2-11.1V65.9c8-0.6,12.9-0.9,14.9-0.9c0.5-0.4,0.8-1.4,0.9-3c-0.1-0.4-1.2-0.7-3.3-0.7h-12.4v-8.4V48v-1
			c0-1-0.3-1.5-0.8-1.5C208.3,45.5,208,46.1,207.9,47.3 M177.3,36.6c-0.3,1.1-1,2.2-1.9,3.2c-2.8-1.5-5.4-2.7-8-3.5
			c-2.5-0.8-5-1.1-7.3-1.1c-6.1,0-11.3,1.8-15.5,5.5c-4.2,3.7-6.3,7.8-6.3,12.5c0,2.3,0.6,4.6,1.7,7c1.1,2.4,2.9,4.6,5.3,6.5
			c2.4,1.9,7,4,13.6,6.1c5.2,1.7,8.9,3.2,11.3,4.5c2.4,1.3,4.3,3.1,5.8,5.2c1.5,2.1,2.2,4.5,2.2,7.1c0,3.7-1.4,7-4.1,9.9
			c-2.7,2.9-6.5,4.3-11.3,4.3c-9.7,0-17.2-6.7-22.7-20.2c-0.3-0.8-0.6-1.1-1-1.1c-0.5,0-0.8,0.2-0.9,0.6c0.4,12.2,0.6,19,0.7,20.4
			c0.1,1.5,0.4,2.2,0.9,2.2c0.5,0,0.9-0.5,1.1-1.5c0.3-1.2,1.1-2.3,2.4-3.2c6.2,3.8,12.5,5.6,18.6,5.6c6.8,0,12.6-2.2,17.4-6.6
			c4.7-4.4,7.1-9.4,7.1-15c0-3.3-0.9-6.4-2.8-9.2c-1.9-2.9-4.2-5.1-7-6.7c-2.8-1.6-6.8-3.2-12.2-4.9c-7.3-2.4-12.1-4.5-14.4-6.3
			c-2.3-1.8-3.5-4.5-3.5-7.9c0-2.8,1.1-5.5,3.4-8c2.2-2.5,5.6-3.8,10-3.8c4.5,0,8.6,1.5,12.4,4.4c3.8,3,6.6,6.7,8.6,11.2
			c0.3,0.7,0.6,1,0.9,1c0.6,0,0.9-0.3,0.9-1l-2-10.1c-0.7-3.9-1.3-6.5-1.7-7.8c-0.3-0.3-0.6-0.5-0.8-0.5
			C177.9,35.3,177.5,35.7,177.3,36.6 M334.3,33.4c-3.3,0.5-8.2,0.8-14.8,0.9c-1.1,0.1-1.7,0.4-1.7,0.9c0,0.5,0.7,0.8,2.1,1
			c2.3,0.4,4,1.2,5.3,2.5c1.3,1.3,2,2.9,2.2,4.9c0.2,1.9,0.4,7.9,0.4,17.9l0.2,31.1c0,4.4-0.5,7.5-1.5,9.4c-1,1.9-3.1,2.8-6.3,2.9
			c-1,0-1.4,0.3-1.4,0.9c0,0.6,0.5,0.9,1.6,0.9c0.3,0,0.7,0,1-0.1c1.9-0.5,4.3-0.8,7.3-0.8c5,0,9.3,0.3,12.9,0.9
			c0.3,0,0.6,0.1,0.9,0.1c0.9,0,1.4-0.3,1.4-0.9c0-0.6-0.6-0.9-1.7-1c-2.8-0.2-4.6-1-5.4-2.4c-0.8-1.3-1.3-3.5-1.3-6.6l-0.1-16
			l0.1-33.1c-0.1-4.5-0.2-8.9-0.3-13.4H334.3z M357.1,34.9c-0.9,1-1.4,2.2-1.4,3.7c0,1.6,0.5,2.8,1.6,3.7c1.1,0.9,2.3,1.3,3.7,1.3
			c1.5,0,2.7-0.5,3.6-1.6c0.9-1,1.3-2.3,1.3-3.7c0-1.2-0.5-2.3-1.6-3.4c-1.1-1-2.3-1.6-3.7-1.6C359.2,33.4,358,33.9,357.1,34.9"/>
	</defs>
	<clipPath id="SVGID_5_">
		<use xlink:href="#SVGID_4_"  style="overflow:visible;"/>
	</clipPath>
	
		<linearGradient id="SVGID_6_" gradientUnits="userSpaceOnUse" x1="-169.058" y1="343.3799" x2="-168.1304" y2="343.3799" gradientTransform="matrix(213.83 327.7263 327.7263 -213.83 -76167.6172 128764.1563)">
		<stop  offset="0" style="stop-color:#FAC826"/>
		<stop  offset="5.618000e-03" style="stop-color:#FAC826"/>
		<stop  offset="0.2528" style="stop-color:#FFFACB"/>
		<stop  offset="0.3048" style="stop-color:#F8EEBA"/>
		<stop  offset="0.408" style="stop-color:#E7D08D"/>
		<stop  offset="0.5516" style="stop-color:#CBA145"/>
		<stop  offset="0.5955" style="stop-color:#C2912E"/>
		<stop  offset="0.8708" style="stop-color:#EDD688"/>
		<stop  offset="1" style="stop-color:#FFFACB"/>
	</linearGradient>
	<polygon class="st1" points="385.6,-127.9 536.7,103.7 243.6,294.9 92.5,63.3 	"/>
</g>
<g>
	<defs>
		<path id="SVGID_7_" d="M143.6,126.2c-0.7,0.6-1,1.3-1,2.2c0,0.6,0.1,1.1,0.3,1.4c0.2,0.4,0.5,0.7,0.9,0.9c0.3,0.3,0.7,0.5,1.1,0.7
			c0.4,0.2,0.8,0.4,1.1,0.5c0.6,0.3,1.1,0.6,1.5,0.9c0.4,0.3,0.6,0.6,0.6,1c0,0.6-0.2,1-0.5,1.3c-0.4,0.3-0.9,0.4-1.5,0.4
			c-0.6,0-1.1-0.1-1.6-0.2c-0.5-0.2-0.9-0.4-1.3-0.6l-0.6,1.8c0.6,0.3,1.1,0.6,1.7,0.7c0.6,0.1,1.2,0.2,1.9,0.2
			c1.2,0,2.1-0.3,2.8-0.8c0.7-0.5,1.1-1.4,1.1-2.7c0-0.6-0.2-1.2-0.7-1.7c-0.5-0.5-1.1-1-1.8-1.4c-0.4-0.2-0.8-0.4-1.1-0.6
			c-0.4-0.2-0.7-0.4-1-0.6c-0.3-0.2-0.5-0.4-0.7-0.6c-0.2-0.2-0.3-0.4-0.3-0.7c0-0.4,0.2-0.7,0.6-0.9c0.4-0.1,0.8-0.2,1.3-0.2
			c0.6,0,1.1,0.1,1.5,0.2c0.4,0.1,0.8,0.3,1.1,0.6l0.5-1.8c-0.4-0.3-0.9-0.5-1.4-0.6c-0.6-0.1-1.1-0.2-1.7-0.2
			C145.1,125.4,144.2,125.7,143.6,126.2 M162.5,125.4v1.9h3.2v10.2h1.9v-10.2h3.2v-1.9H162.5z M190.3,125.4v7.5c0,1-0.2,1.7-0.6,2.1
			c-0.4,0.4-0.9,0.6-1.7,0.6c-0.7,0-1.3-0.2-1.8-0.6c-0.4-0.4-0.6-1.1-0.6-2.1v-7.5h-1.9v7.1c0,1.6,0.4,2.8,1.1,3.7
			c0.7,0.9,1.8,1.3,3.1,1.3c1.3,0,2.3-0.4,3-1.3c0.7-0.9,1.1-2.1,1.1-3.7v-7.1H190.3z M207.2,127.3h1.2c0.6,0,1.2,0.1,1.7,0.3
			c0.5,0.2,1,0.5,1.4,0.8c0.4,0.4,0.7,0.8,0.9,1.3c0.2,0.5,0.3,1.1,0.3,1.7c0,0.6-0.1,1.2-0.3,1.7c-0.2,0.5-0.5,1-0.9,1.3
			c-0.4,0.4-0.9,0.7-1.4,0.9c-0.5,0.2-1.1,0.3-1.7,0.3h-1.2V127.3z M205.3,125.4v12.1h3.4c0.8,0,1.6-0.1,2.3-0.4
			c0.7-0.3,1.3-0.7,1.9-1.2c0.5-0.5,0.9-1.2,1.2-1.9c0.3-0.8,0.4-1.6,0.4-2.6c0-0.9-0.1-1.7-0.4-2.4c-0.3-0.7-0.7-1.3-1.2-1.9
			c-0.5-0.5-1.1-1-1.8-1.3c-0.7-0.3-1.5-0.4-2.3-0.4H205.3z M232.9,125.4l-2.5,5.5l-2.5-5.5h-2.1l3.6,7.5v4.6h1.9v-4.6l3.6-7.4
			H232.9z M267.7,126.7l1.7,6.1H266L267.7,126.7z M266.5,125.4l-3.6,12.1h2l0.6-2.8h4.6l0.7,2.8h2l-3.6-12.1H266.5z M286.7,131.9
			h2.8h0c0.5,0,0.9,0.2,1.3,0.5c0.3,0.3,0.5,0.8,0.5,1.3c0,0.6-0.2,1-0.5,1.4c-0.3,0.3-0.8,0.5-1.3,0.5h-2.8V131.9z M286.7,127.3
			h2.3c0.4,0,0.7,0.1,1,0.4c0.3,0.3,0.4,0.6,0.4,1c0,0.4-0.1,0.7-0.4,1c-0.3,0.3-0.6,0.4-1,0.4h-2.3V127.3z M284.8,125.4v12.1h4.1
			c1.3,0,2.4-0.3,3.1-1c0.7-0.7,1.1-1.6,1.1-2.8c0-0.4-0.1-0.9-0.2-1.2c-0.1-0.3-0.3-0.7-0.5-0.9c-0.2-0.2-0.4-0.4-0.7-0.6
			c-0.3-0.1-0.5-0.2-0.8-0.3c0.3-0.2,0.6-0.5,0.8-0.9c0.2-0.3,0.3-0.8,0.3-1.3c0-0.5-0.1-0.9-0.3-1.3c-0.2-0.4-0.4-0.7-0.7-1
			c-0.3-0.3-0.7-0.4-1.1-0.6c-0.4-0.1-0.8-0.2-1.3-0.2H284.8z M352.2,126.7l1.7,6.1h-3.4L352.2,126.7z M350.9,125.4l-3.6,12.1h2
			l0.6-2.8h4.6l0.7,2.8h2l-3.6-12.1H350.9z M371.2,127.3h1.2c0.6,0,1.2,0.1,1.7,0.3c0.5,0.2,1,0.5,1.4,0.8c0.4,0.4,0.7,0.8,0.9,1.3
			c0.2,0.5,0.3,1.1,0.3,1.7c0,0.6-0.1,1.2-0.3,1.7c-0.2,0.5-0.5,1-0.9,1.3c-0.4,0.4-0.9,0.7-1.4,0.9c-0.5,0.2-1.1,0.3-1.7,0.3h-1.2
			V127.3z M369.3,125.4v12.1h3.4c0.8,0,1.6-0.1,2.3-0.4c0.7-0.3,1.3-0.7,1.9-1.2c0.5-0.5,0.9-1.2,1.2-1.9c0.3-0.8,0.4-1.6,0.4-2.6
			c0-0.9-0.1-1.7-0.4-2.4c-0.3-0.7-0.7-1.3-1.2-1.9c-0.5-0.5-1.1-1-1.8-1.3c-0.7-0.3-1.5-0.4-2.3-0.4H369.3z M330.2,135.4
			c-0.4-0.2-0.7-0.4-1-0.8s-0.5-0.8-0.7-1.3c-0.2-0.5-0.2-1.1-0.2-1.9c0-1.4,0.3-2.4,0.9-3.1c0.6-0.7,1.4-1,2.3-1c1,0,1.8,0.3,2.4,1
			c0.6,0.7,0.9,1.8,0.9,3.1c0,1.4-0.3,2.5-0.9,3.1c-0.6,0.7-1.4,1-2.3,1C331,135.6,330.6,135.6,330.2,135.4 M327.9,127
			c-1,1.1-1.4,2.6-1.4,4.4c0,1.9,0.5,3.4,1.5,4.4c1,1.1,2.2,1.6,3.7,1.6c0,0,0.1,0,0.1,0c1.5,0,2.6-0.5,3.5-1.6
			c0.9-1.1,1.4-2.6,1.4-4.5c0-1.9-0.5-3.4-1.4-4.4c-1-1.1-2.2-1.6-3.7-1.6c0,0-0.1,0-0.1,0C330,125.4,328.8,125.9,327.9,127
			 M307.8,127.3h2.7c1.2,0,1.9,0.6,1.9,1.9c0,1.2-0.7,1.8-1.9,1.8h-2.7V127.3z M310.3,125.4h-4.4v12.1h1.9v-4.6h2.2l2.4,4.6h1.9
			l-2.3-5c0.5-0.1,0.9-0.4,1.3-0.7c0.7-0.6,1.1-1.5,1.1-2.7c0-1.2-0.4-2.1-1.1-2.7c-0.7-0.6-1.5-0.9-2.6-0.9
			C310.5,125.4,310.4,125.4,310.3,125.4"/>
	</defs>
	<clipPath id="SVGID_8_">
		<use xlink:href="#SVGID_7_"  style="overflow:visible;"/>
	</clipPath>
	
		<linearGradient id="SVGID_9_" gradientUnits="userSpaceOnUse" x1="-169.2703" y1="343.3787" x2="-168.3427" y2="343.3787" gradientTransform="matrix(148.882 228.1839 228.1839 -148.882 -52958.4805 89776.6328)">
		<stop  offset="0" style="stop-color:#FAC826"/>
		<stop  offset="5.618000e-03" style="stop-color:#FAC826"/>
		<stop  offset="0.2528" style="stop-color:#FFFACB"/>
		<stop  offset="0.3048" style="stop-color:#F8EEBA"/>
		<stop  offset="0.408" style="stop-color:#E7D08D"/>
		<stop  offset="0.5516" style="stop-color:#CBA145"/>
		<stop  offset="0.5955" style="stop-color:#C2912E"/>
		<stop  offset="0.8708" style="stop-color:#EDD688"/>
		<stop  offset="1" style="stop-color:#FFFACB"/>
	</linearGradient>
	<polygon class="st2" points="308.1,17.4 384.1,133.9 213,245.5 137,129 	"/>
</g>
<rect id="_x3C_Slice_x3E_" x="-10.8" y="-11.8" class="st3" width="526" height="195.7"/>
</svg>
