<svg width="131" height="80" viewBox="0 0 599 172" fill="none" xmlns="http://www.w3.org/2000/svg">
<path d="M89.221 171.6H81.579C36.4908 171.6 0 133.4 0 86.2001C0 39.0001 36.4908 0.800049 81.579 0.800049H89.221C134.309 0.800049 170.8 39.0001 170.8 86.2001C170.8 133.4 134.309 171.6 89.221 171.6Z" fill="url(#paint0_linear_193_16060)"/>
<path d="M85.8 149.156C51.6669 149.156 24 121.489 24 87.3561V84.6C24 50.4669 51.6669 22.8 85.8 22.8C119.933 22.8 147.6 50.4669 147.6 84.6V87.3561C147.6 121.489 119.933 149.156 85.8 149.156Z" fill="url(#paint1_linear_193_16060)" stroke="white" stroke-width="8.48027" stroke-miterlimit="10" stroke-linecap="round"/>
<path d="M117.979 33.9766C99.6403 39.4887 60.631 52.6332 61.5851 65.7776C61.7971 68.7457 64.1291 71.9258 66.9912 73.4098C78.9696 79.876 96.6722 56.0253 108.969 61.6434C114.163 64.0815 113.739 69.5937 119.781 82.8441C125.611 95.5645 132.501 104.893 137.166 110.511" fill="url(#paint2_linear_193_16060)"/>
<path d="M117.979 33.9766C99.6403 39.4887 60.631 52.6332 61.5851 65.7776C61.7971 68.7457 64.1291 71.9258 66.9912 73.4098C78.9696 79.876 96.6722 56.0253 108.969 61.6434C114.163 64.0815 113.739 69.5937 119.781 82.8441C125.611 95.5645 132.501 104.893 137.166 110.511" stroke="white" stroke-width="8.48027" stroke-miterlimit="10" stroke-linecap="round"/>
<path d="M62.2673 101.349C72.2317 115.765 82.302 130.182 92.2663 144.598Z" fill="url(#paint3_linear_193_16060)"/>
<path d="M62.2673 101.349C72.2317 115.765 82.302 130.182 92.2663 144.598" stroke="white" stroke-width="8.48027" stroke-miterlimit="10" stroke-linecap="round"/>
<path d="M81.9839 95.2006C91.7362 110.359 101.489 125.518 111.135 140.676Z" fill="url(#paint4_linear_193_16060)"/>
<path d="M81.9839 95.2006C91.7362 110.359 101.489 125.518 111.135 140.676" stroke="white" stroke-width="8.48027" stroke-miterlimit="10" stroke-linecap="round"/>
<path d="M100.428 88.9463C109.863 103.045 119.403 117.249 128.837 131.348Z" fill="url(#paint5_linear_193_16060)"/>
<path d="M100.428 88.9463C109.863 103.045 119.403 117.249 128.837 131.348" stroke="white" stroke-width="8.48027" stroke-miterlimit="10" stroke-linecap="round"/>
<path d="M27.3921 72.0918C40.7485 96.5786 54.105 121.171 67.4614 145.658Z" fill="url(#paint6_linear_193_16060)"/>
<path d="M27.3921 72.0918C40.7485 96.5786 54.105 121.171 67.4614 145.658" stroke="white" stroke-width="8.48027" stroke-miterlimit="10" stroke-linecap="round"/>
<path d="M224.574 114.2H212.851V67.851H196.663V58.1852H240.8V67.851H224.574V114.2ZM255.823 80.0787C250.854 80.0787 247.282 83.8441 246.894 89.0458H264.557C264.324 83.7277 260.869 80.0787 255.823 80.0787ZM264.712 101.468H275.115C273.873 109.62 266.42 115.093 256.133 115.093C243.323 115.093 235.637 106.902 235.637 93.5875C235.637 80.3116 243.401 71.694 255.706 71.694C267.817 71.694 275.465 79.8846 275.465 92.5394V95.9943H246.778V96.693C246.778 102.632 250.543 106.708 256.327 106.708C260.481 106.708 263.664 104.651 264.712 101.468ZM281.326 114.2V72.5868H292.273V80.0011H292.506C294.719 74.8383 299.105 71.8104 305.51 71.8104C314.749 71.8104 319.95 77.6332 319.95 87.3766V114.2H308.615V89.7445C308.615 84.3099 306.053 81.2045 300.968 81.2045C295.883 81.2045 292.661 84.931 292.661 90.3268V114.2H281.326ZM342.582 114.86C332.178 114.86 325.618 106.63 325.618 93.3158C325.618 80.1176 332.217 71.9269 342.659 71.9269C348.676 71.9269 353.334 75.11 355.353 79.7294H355.586V58.1852H366.921V114.2H355.741V107.057H355.547C353.528 111.638 348.715 114.86 342.582 114.86ZM346.425 81.0104C340.718 81.0104 337.225 85.785 337.225 93.3934C337.225 101.041 340.718 105.738 346.425 105.738C352.053 105.738 355.663 101.002 355.663 93.3934C355.663 85.8239 352.053 81.0104 346.425 81.0104ZM393.162 80.0787C388.193 80.0787 384.622 83.8441 384.234 89.0458H401.896C401.663 83.7277 398.208 80.0787 393.162 80.0787ZM402.051 101.468H412.455C411.212 109.62 403.759 115.093 393.472 115.093C380.662 115.093 372.976 106.902 372.976 93.5875C372.976 80.3116 380.74 71.694 393.045 71.694C405.157 71.694 412.804 79.8846 412.804 92.5394V95.9943H384.117V96.693C384.117 102.632 387.883 106.708 393.667 106.708C397.82 106.708 401.003 104.651 402.051 101.468ZM418.666 114.2V72.5868H429.612V80.0787H429.845C431.32 74.7994 434.853 71.9269 439.744 71.9269C441.064 71.9269 442.189 72.121 442.966 72.3539V82.3302C442.034 81.942 440.481 81.6703 438.851 81.6703C433.261 81.6703 430 85.0863 430 90.9479V114.2H418.666ZM489.121 115.171C472.817 115.171 462.608 104.263 462.608 86.1732C462.608 68.1227 472.895 57.2147 489.121 57.2147C502.591 57.2147 512.839 65.7548 513.732 78.2931H502.319C501.232 71.4222 495.953 66.9193 489.121 66.9193C480.27 66.9193 474.564 74.3336 474.564 86.1344C474.564 98.0905 480.193 105.466 489.16 105.466C496.108 105.466 501.116 101.39 502.358 94.7521H513.771C512.451 107.252 502.863 115.171 489.121 115.171ZM535.897 106.669C540.827 106.669 544.903 103.447 544.903 98.9445V95.9166L536.13 96.4601C531.899 96.7706 529.492 98.6727 529.492 101.623C529.492 104.728 532.054 106.669 535.897 106.669ZM532.17 114.86C524.251 114.86 518.235 109.736 518.235 102.244C518.235 94.6744 524.057 90.288 534.422 89.6669L544.903 89.0458V86.2897C544.903 82.4078 542.186 80.1564 537.916 80.1564C533.684 80.1564 531.006 82.2526 530.462 85.3192H520.098C520.525 77.245 527.396 71.694 538.42 71.694C549.095 71.694 556.044 77.2062 556.044 85.5909V114.2H545.097V107.834H544.864C542.535 112.259 537.372 114.86 532.17 114.86ZM563.652 114.2V58.1852H574.987V114.2H563.652ZM582.906 114.2V58.1852H594.241V114.2H582.906Z" fill="url(#paint7_linear_193_16060)"/>
<defs>
<linearGradient id="paint0_linear_193_16060" x1="216.5" y1="85.8" x2="-39.9999" y2="85.9825" gradientUnits="userSpaceOnUse">
<stop offset="0.179311" stop-color="#95FC53"/>
<stop offset="0.84253" stop-color="#2BCBBA"/>
</linearGradient>
<linearGradient id="paint1_linear_193_16060" x1="168.822" y1="83.4628" x2="-9.18257" y2="82.1709" gradientUnits="userSpaceOnUse">
<stop offset="0.167846" stop-color="#95FC53"/>
<stop offset="0.901822" stop-color="#2BCBBA"/>
</linearGradient>
<linearGradient id="paint2_linear_193_16060" x1="150.146" y1="70.7203" x2="41.2725" y2="69.9224" gradientUnits="userSpaceOnUse">
<stop offset="0.167846" stop-color="#95FC53"/>
<stop offset="0.901822" stop-color="#2BCBBA"/>
</linearGradient>
<linearGradient id="paint3_linear_193_16060" x1="97.4171" y1="122.113" x2="54.2125" y2="121.89" gradientUnits="userSpaceOnUse">
<stop offset="0.167846" stop-color="#95FC53"/>
<stop offset="0.901822" stop-color="#2BCBBA"/>
</linearGradient>
<linearGradient id="paint4_linear_193_16060" x1="116.14" y1="117.033" x2="74.1565" y2="116.833" gradientUnits="userSpaceOnUse">
<stop offset="0.167846" stop-color="#95FC53"/>
<stop offset="0.901822" stop-color="#2BCBBA"/>
</linearGradient>
<linearGradient id="paint5_linear_193_16060" x1="133.715" y1="109.303" x2="92.8004" y2="109.1" gradientUnits="userSpaceOnUse">
<stop offset="0.167846" stop-color="#95FC53"/>
<stop offset="0.901822" stop-color="#2BCBBA"/>
</linearGradient>
<linearGradient id="paint6_linear_193_16060" x1="74.3413" y1="107.411" x2="16.6327" y2="107.177" gradientUnits="userSpaceOnUse">
<stop offset="0.167846" stop-color="#95FC53"/>
<stop offset="0.901822" stop-color="#2BCBBA"/>
</linearGradient>
<linearGradient id="paint7_linear_193_16060" x1="396.8" y1="26.2001" x2="396.8" y2="146.2" gradientUnits="userSpaceOnUse">
<stop offset="0.167846" stop-color="#95FC53"/>
<stop offset="0.901822" stop-color="#2BCBBA"/>
</linearGradient>
</defs>
</svg>
