<svg width="108" height="109" viewBox="0 0 108 109" fill="none" xmlns="http://www.w3.org/2000/svg">
<path fill-rule="evenodd" clip-rule="evenodd" d="M2.68473 37.8574C5.02294 30.7646 8.7909 24.3216 13.6475 18.8694L2.68473 37.8574ZM0.540671 46.9722L20.4971 12.4066C22.1643 11.087 23.9112 9.86365 25.7295 8.74502L0 53.3098C0.0573824 51.1637 0.239951 49.0488 0.540671 46.9722ZM0.108031 58.5238C0.212641 60.0521 0.380826 61.5629 0.609962 63.0536L34.4708 4.40498C33.0506 4.95569 31.6595 5.56474 30.3004 6.22916L0.108031 58.5238ZM38.3626 3.06532L1.39176 67.1006C1.6817 68.3434 2.01454 69.5696 2.38864 70.7778L42.0421 2.0959C40.7988 2.3767 39.5717 2.70039 38.3626 3.06532ZM45.5474 1.42576L3.55838 74.1528C3.96476 75.2101 4.40343 76.2514 4.87318 77.2755L48.9076 1.00567C47.777 1.11122 46.6566 1.25161 45.5474 1.42576ZM52.1444 0.800527L6.31379 80.1814C6.8052 81.1019 7.32249 82.0065 7.86468 82.8942L55.2708 0.784382C54.8456 0.7745 54.4192 0.769531 53.9916 0.769531C53.3734 0.769531 52.7576 0.779918 52.1444 0.800527ZM58.2999 0.938857L9.51609 85.435C10.076 86.2458 10.6575 87.0405 11.2598 87.8184L61.2391 1.2516C60.2673 1.12127 59.2874 1.01679 58.2999 0.938857ZM64.0915 1.71224L13.0876 90.0536C13.7056 90.7696 14.342 91.4692 14.9963 92.1517L66.8646 2.31308C65.9492 2.08925 65.0246 1.88875 64.0915 1.71224ZM69.5593 3.04685L16.9798 94.1172C17.6489 94.747 18.3341 95.36 19.0347 95.9553L72.1783 3.9079C71.3152 3.59933 70.442 3.31211 69.5593 3.04685ZM74.7276 4.89336L21.1616 97.6725C21.8797 98.223 22.612 98.7558 23.3578 99.2704L77.2077 5.99975C76.3921 5.61089 75.5652 5.24188 74.7276 4.89336ZM79.6188 7.22463L25.6219 100.75C26.3866 101.223 27.1641 101.678 27.9536 102.113L81.9623 8.56702C81.1935 8.1007 80.4121 7.65303 79.6188 7.22463ZM84.238 10.0264L30.353 103.358C31.1643 103.754 31.9871 104.129 32.8206 104.485L86.4457 11.6034C85.7237 11.0599 84.9876 10.534 84.238 10.0264ZM88.5847 13.2997L35.3577 105.492C36.2172 105.807 37.0869 106.102 37.9663 106.375L90.6535 15.1179C89.9796 14.4947 89.2898 13.8884 88.5847 13.2997ZM92.6498 17.0613L40.648 107.131C41.5583 107.362 42.4778 107.571 43.4058 107.755L94.5707 19.1349C93.9484 18.4271 93.3079 17.7356 92.6498 17.0613ZM96.4127 21.3456L46.2439 108.24C47.21 108.379 48.1843 108.492 49.1662 108.579L98.1705 23.7014C97.6055 22.8998 97.0193 22.1143 96.4127 21.3456ZM99.8383 26.2137L52.179 108.762C52.7807 108.782 53.385 108.792 53.9916 108.792C54.4256 108.792 54.8584 108.787 55.29 108.777L101.408 28.8972C100.91 27.9865 100.387 27.0917 99.8383 26.2137ZM102.869 31.7683L58.5069 108.606C59.6292 108.513 60.7417 108.386 61.8434 108.225L104.207 34.8503C103.792 33.8066 103.346 32.7788 102.869 31.7683ZM105.403 38.1787L65.3219 107.602C66.5537 107.339 67.77 107.034 68.9691 106.688L106.433 41.7995C106.131 40.5756 105.787 39.3681 105.403 38.1787ZM107.255 45.7755L72.8199 105.42C74.2204 104.899 75.5934 104.321 76.9362 103.69L107.812 50.2114C107.687 48.7146 107.5 47.2351 107.255 45.7755ZM108.001 55.2865L81.4254 101.316C83.187 100.275 84.8845 99.1372 86.5103 97.9094L107.605 61.3731C107.848 59.3758 107.982 57.3449 108.001 55.2865ZM92.9015 92.2406L105.917 69.698C103.456 78.2785 98.9261 85.9843 92.9015 92.2406Z" fill="url(#paint0_linear_171_370)"/>
<defs>
<linearGradient id="paint0_linear_171_370" x1="54.0002" y1="0.769531" x2="54.0002" y2="108.792" gradientUnits="userSpaceOnUse">
<stop stop-color="#C2C2C2"/>
<stop offset="1" stop-color="#3E3E3E"/>
</linearGradient>
</defs>
</svg>
