<svg width="159" height="41" viewBox="0 0 159 41" fill="none" xmlns="http://www.w3.org/2000/svg">
<path fill-rule="evenodd" clip-rule="evenodd" d="M0.976406 14.2566C1.82669 11.6774 3.19684 9.33452 4.96281 7.35192L0.976406 14.2566ZM0.196634 17.5713L7.4538 5.00155C8.06006 4.52168 8.6953 4.07683 9.35647 3.67005L0 19.8759C0.0208782 19.0955 0.0872755 18.3265 0.196634 17.5713ZM0.0392602 21.7721C0.0773023 22.328 0.138473 22.8775 0.221816 23.4197L12.5356 2.09158C12.019 2.29188 11.5131 2.51341 11.0187 2.75509L0.0392602 21.7721ZM13.9509 1.6044L0.506126 24.8914C0.611536 25.3432 0.732541 25.789 0.868542 26.2283L15.2886 1.25195C14.8366 1.35405 14.3905 1.47173 13.9509 1.6044ZM16.5634 1.00822L1.29391 27.4557C1.44172 27.8403 1.60127 28.219 1.77214 28.5915L17.7856 0.855411C17.3743 0.893803 16.9668 0.944872 16.5634 1.00822ZM18.9626 0.780805L2.29602 29.6483C2.47476 29.9831 2.66292 30.3121 2.86014 30.635L20.0998 0.774936C19.9452 0.771339 19.79 0.769531 19.6345 0.769531C19.4096 0.769531 19.1857 0.773309 18.9626 0.780805ZM21.2014 0.831121L3.46069 31.5589C3.66425 31.8537 3.87566 32.1426 4.09461 32.4254L22.27 0.94482C21.9167 0.897442 21.5604 0.859456 21.2014 0.831121ZM23.3072 1.11233L4.75931 33.2383C4.98403 33.4987 5.21547 33.7531 5.45336 34.0013L24.3157 1.33081C23.9828 1.24942 23.6465 1.17651 23.3072 1.11233ZM25.2956 1.59764L6.17469 34.716C6.41811 34.9452 6.66738 35.1682 6.92225 35.3847L26.2484 1.91089C25.9344 1.79863 25.6167 1.69414 25.2956 1.59764ZM27.1755 2.26927L7.69572 36.0092C7.95677 36.2093 8.22299 36.403 8.49415 36.5901L28.0771 2.67148C27.7806 2.53012 27.48 2.39597 27.1755 2.26927ZM28.9539 3.11691L9.31747 37.1282C9.5956 37.3002 9.87834 37.4655 10.1655 37.6238L29.8062 3.6051C29.5266 3.43551 29.2424 3.27271 28.9539 3.11691ZM30.6338 4.13583L11.038 38.0766C11.3331 38.2205 11.6323 38.3572 11.9355 38.4865L31.4367 4.70938C31.1741 4.51168 30.9064 4.32042 30.6338 4.13583ZM32.2145 5.32625L12.8581 38.8525C13.1707 38.9674 13.4869 39.0746 13.8067 39.1738L32.9668 5.98738C32.7218 5.76075 32.4709 5.54029 32.2145 5.32625ZM33.6928 6.69411L14.7819 39.4488C15.1129 39.5329 15.4473 39.6086 15.7848 39.6757L34.3913 7.4482C34.165 7.19078 33.9321 6.93933 33.6928 6.69411ZM35.0612 8.25214L16.8169 39.8522C17.1683 39.9027 17.5227 39.9439 17.8798 39.9755L35.7006 9.109C35.4951 8.81744 35.2819 8.53172 35.0612 8.25214ZM36.3071 10.0226L18.9754 40.0419C19.1942 40.0491 19.4139 40.0528 19.6345 40.0528C19.7923 40.0528 19.9496 40.0509 20.1066 40.0472L36.8779 10.9983C36.6968 10.6672 36.5064 10.3418 36.3071 10.0226ZM37.4092 12.0424L21.2764 39.9851C21.6845 39.9514 22.089 39.9051 22.4896 39.8468L37.8955 13.163C37.7447 12.7835 37.5825 12.4098 37.4092 12.0424ZM38.3307 14.3734L23.7546 39.62C24.2026 39.5243 24.6449 39.4134 25.081 39.2878L38.7051 15.6903C38.5952 15.2451 38.4702 14.806 38.3307 14.3734ZM39.0043 17.1361L26.4814 38.8264C26.9908 38.637 27.4902 38.427 27.9786 38.1974L39.2068 18.7496C39.1612 18.2052 39.0934 17.667 39.0043 17.1361ZM39.2753 20.5952L29.6111 37.334C30.2517 36.9555 30.8689 36.5417 31.4601 36.0953L39.1313 22.8084C39.2197 22.0821 39.2684 21.3437 39.2753 20.5952ZM33.7842 34.0339L38.5174 25.8357C37.6227 28.9563 35.9752 31.7586 33.7842 34.0339Z" fill="url(#paint0_linear_171_307)"/>
<path d="M32.6453 4.27314C32.4421 3.94229 32.545 3.50818 32.8829 3.31695C35.7018 1.72169 38.875 0.846462 42.1205 0.774375C45.6005 0.697077 49.0386 1.54598 52.0827 3.23418C55.1268 4.92237 57.6675 7.38921 59.4449 10.3821C61.2222 13.3751 62.1723 16.7865 62.1978 20.2673C62.2233 23.7481 61.3233 27.1732 59.59 30.1918C57.8566 33.2104 55.3522 35.7142 52.3332 37.4468C49.3142 39.1794 45.8889 40.0785 42.4081 40.0522C39.1619 40.0277 35.9762 39.199 33.1343 37.6452C32.7936 37.4589 32.6844 37.0264 32.8827 36.6926C33.081 36.3588 33.5118 36.2503 33.853 36.4356C36.4803 37.8627 39.4218 38.6236 42.4188 38.6462C45.6504 38.6707 48.8304 37.8359 51.6334 36.2273C54.4363 34.6187 56.7614 32.2942 58.3706 29.4916C59.9799 26.6891 60.8154 23.5092 60.7918 20.2776C60.7681 17.046 59.8861 13.8787 58.236 11.1C56.5858 8.32137 54.2269 6.03112 51.4008 4.46378C48.5746 2.89643 45.3826 2.10829 42.1517 2.18006C39.1554 2.24661 36.2254 3.05051 33.6192 4.5159C33.2808 4.70619 32.8485 4.60399 32.6453 4.27314Z" fill="url(#paint1_linear_171_307)"/>
<path d="M86.321 9.65206C88.3257 9.65206 90.0514 10.0137 91.498 10.7371C92.9654 11.4397 94.0814 12.4421 94.846 13.7441C95.6314 15.0254 96.024 16.5341 96.024 18.2701C96.024 18.8694 95.9517 19.6237 95.807 20.5331C95.435 22.6617 94.629 24.5527 93.389 26.2061C92.1697 27.8594 90.6094 29.1407 88.708 30.0501C86.8274 30.9594 84.7504 31.4141 82.477 31.4141H74.324L78.168 9.65206H86.321ZM82.942 26.8881C84.9467 26.8881 86.6104 26.3301 87.933 25.2141C89.2557 24.0981 90.0824 22.5377 90.413 20.5331C90.5164 19.9131 90.568 19.3964 90.568 18.9831C90.568 17.4537 90.103 16.2757 89.173 15.4491C88.243 14.6017 86.9204 14.1781 85.205 14.1781H82.663L80.431 26.8881H82.942ZM100.102 12.3181C99.2758 12.3181 98.6145 12.1011 98.1185 11.6671C97.6431 11.2124 97.4055 10.6441 97.4055 9.96206C97.4055 9.03206 97.7671 8.23639 98.4905 7.57506C99.2138 6.91373 100.092 6.58306 101.125 6.58306C101.952 6.58306 102.603 6.81039 103.078 7.26506C103.554 7.69906 103.791 8.2674 103.791 8.97006C103.791 9.8794 103.43 10.6647 102.706 11.3261C101.983 11.9874 101.115 12.3181 100.102 12.3181ZM102.396 14.1161L99.3585 31.4141H94.0575L97.0955 14.1161H102.396ZM110.082 13.8681C111.301 13.8681 112.335 14.1161 113.182 14.6121C114.029 15.1081 114.618 15.7591 114.949 16.5651L115.383 14.1161H120.684L117.646 31.3831C117.357 32.9744 116.778 34.4107 115.91 35.6921C115.063 36.9941 113.916 38.0274 112.469 38.7921C111.043 39.5567 109.379 39.9391 107.478 39.9391C104.915 39.9391 102.942 39.3294 101.557 38.1101C100.172 36.9114 99.5524 35.2787 99.697 33.2121H104.936C104.998 33.8734 105.298 34.3901 105.835 34.7621C106.393 35.1547 107.127 35.3511 108.036 35.3511C109.131 35.3511 110.061 35.0307 110.826 34.3901C111.591 33.7701 112.097 32.7677 112.345 31.3831L112.779 28.9341C112.118 29.7401 111.281 30.4014 110.268 30.9181C109.276 31.4141 108.17 31.6621 106.951 31.6621C105.732 31.6621 104.647 31.3831 103.696 30.8251C102.766 30.2671 102.032 29.4714 101.495 28.4381C100.978 27.4047 100.72 26.1957 100.72 24.8111C100.72 24.1704 100.782 23.4781 100.906 22.7341C101.216 20.9567 101.826 19.3964 102.735 18.0531C103.644 16.7097 104.74 15.6764 106.021 14.9531C107.302 14.2297 108.656 13.8681 110.082 13.8681ZM113.864 22.7651C113.926 22.3931 113.957 22.0521 113.957 21.7421C113.957 20.7294 113.657 19.9337 113.058 19.3551C112.479 18.7764 111.735 18.4871 110.826 18.4871C109.772 18.4871 108.811 18.8694 107.943 19.6341C107.075 20.3781 106.527 21.4114 106.3 22.7341C106.238 23.1061 106.207 23.4471 106.207 23.7571C106.207 24.7697 106.496 25.5757 107.075 26.1751C107.674 26.7537 108.418 27.0431 109.307 27.0431C110.361 27.0431 111.322 26.6607 112.19 25.8961C113.058 25.1314 113.616 24.0877 113.864 22.7651ZM128.332 13.8681C129.551 13.8681 130.585 14.1161 131.432 14.6121C132.279 15.1081 132.868 15.7591 133.199 16.5651L133.633 14.1161H138.934L135.896 31.3831C135.607 32.9744 135.028 34.4107 134.16 35.6921C133.313 36.9941 132.166 38.0274 130.719 38.7921C129.293 39.5567 127.629 39.9391 125.728 39.9391C123.165 39.9391 121.192 39.3294 119.807 38.1101C118.422 36.9114 117.802 35.2787 117.947 33.2121H123.186C123.248 33.8734 123.548 34.3901 124.085 34.7621C124.643 35.1547 125.377 35.3511 126.286 35.3511C127.381 35.3511 128.311 35.0307 129.076 34.3901C129.841 33.7701 130.347 32.7677 130.595 31.3831L131.029 28.9341C130.368 29.7401 129.531 30.4014 128.518 30.9181C127.526 31.4141 126.42 31.6621 125.201 31.6621C123.982 31.6621 122.897 31.3831 121.946 30.8251C121.016 30.2671 120.282 29.4714 119.745 28.4381C119.228 27.4047 118.97 26.1957 118.97 24.8111C118.97 24.1704 119.032 23.4781 119.156 22.7341C119.466 20.9567 120.076 19.3964 120.985 18.0531C121.894 16.7097 122.99 15.6764 124.271 14.9531C125.552 14.2297 126.906 13.8681 128.332 13.8681ZM132.114 22.7651C132.176 22.3931 132.207 22.0521 132.207 21.7421C132.207 20.7294 131.907 19.9337 131.308 19.3551C130.729 18.7764 129.985 18.4871 129.076 18.4871C128.022 18.4871 127.061 18.8694 126.193 19.6341C125.325 20.3781 124.777 21.4114 124.55 22.7341C124.488 23.1061 124.457 23.4471 124.457 23.7571C124.457 24.7697 124.746 25.5757 125.325 26.1751C125.924 26.7537 126.668 27.0431 127.557 27.0431C128.611 27.0431 129.572 26.6607 130.44 25.8961C131.308 25.1314 131.866 24.0877 132.114 22.7651ZM143.916 14.1161L146.024 24.9351L151.914 14.1161H157.649L142.304 39.6291H136.6L142.118 30.8251L138.026 14.1161H143.916Z" fill="white"/>
<defs>
<linearGradient id="paint0_linear_171_307" x1="19.6376" y1="0.769531" x2="19.6376" y2="40.0528" gradientUnits="userSpaceOnUse">
<stop stop-color="#C2C2C2"/>
<stop offset="1" stop-color="#3E3E3E"/>
</linearGradient>
<linearGradient id="paint1_linear_171_307" x1="42.5567" y1="0.769531" x2="42.5567" y2="40.0528" gradientUnits="userSpaceOnUse">
<stop stop-color="#C2C2C2"/>
<stop offset="1" stop-color="#3E3E3E"/>
</linearGradient>
</defs>
</svg>
