<svg width="70" height="70" viewBox="0 0 70 70" fill="none" xmlns="http://www.w3.org/2000/svg">
<path d="M25.514 20.99H59.2774L40.8338 35.4694C40.4429 35.7759 39.9779 35.9256 39.5562 35.9666C39.1315 35.9249 38.6651 35.7752 38.2699 35.4694L25.0893 25.1182C24.9497 25.006 24.792 24.9204 24.6186 24.8671C25.239 23.9921 25.5932 22.9336 25.5744 21.7931C25.5708 21.5319 25.5478 21.2627 25.514 20.99ZM16.9277 11.678C16.9702 11.6852 17.04 11.7118 17.1919 11.7823C17.492 11.9248 17.9692 12.2918 18.4364 12.8034C19.3771 13.8281 20.3172 15.3802 20.8052 16.4049C20.8203 16.4351 20.8361 16.4682 20.8505 16.502C22.2354 18.8773 22.8328 20.6943 22.8508 21.8341C22.8702 22.9789 22.5629 23.4719 21.5919 24.0295L19.0871 25.473C17.4553 26.4121 16.6844 28.0951 16.493 29.6653C16.3008 31.2361 16.5837 32.7623 17.2826 33.9691L23.4655 44.6224C24.1658 45.8284 25.3614 46.8373 26.8233 47.4568C28.2866 48.0778 30.1371 48.2534 31.7689 47.3165L34.2737 45.8759C35.244 45.3197 35.8306 45.3082 36.816 45.8939C37.8042 46.4811 39.0876 47.8994 40.4667 50.2762C40.4861 50.3114 40.5048 50.3409 40.5271 50.3747C41.1735 51.3066 42.0538 52.8875 42.4785 54.2115C42.6894 54.8692 42.7721 55.4636 42.7455 55.7924C42.716 56.1227 42.7088 56.0889 42.6217 56.1407L40.7157 57.233C35.9277 59.309 31.5392 58.8406 27.6172 56.807C23.6879 54.7649 20.2725 51.077 17.8915 46.7473C17.8836 46.7387 17.88 46.7279 17.8735 46.7222L12.658 37.7361C12.6494 37.7274 12.6458 37.7195 12.6386 37.708C10.0582 33.4913 8.55453 28.7039 8.74311 24.2994C8.9317 19.9013 10.7167 15.8918 14.9217 12.807L16.8284 11.7183C16.8723 11.6931 16.8867 11.6736 16.9277 11.678ZM16.9472 9.00041C16.4426 8.9925 15.928 9.09827 15.4651 9.36668L13.449 10.5259C13.4037 10.5518 13.3619 10.5784 13.3209 10.6044C8.47032 14.1533 6.23684 19.0939 6.01875 24.1864C5.80066 29.2767 7.50077 34.5303 10.3094 39.1234L15.5076 48.0786L15.4954 48.0519C18.0902 52.7659 21.8085 56.8553 26.3525 59.2112C30.8986 61.5707 36.3143 62.1175 41.8307 59.7127C41.876 59.6933 41.9221 59.6717 41.9631 59.6465L43.9821 58.4873C44.9156 57.9562 45.3849 56.9229 45.4612 56.0205C45.5397 55.1211 45.3561 54.2453 45.0776 53.3826C44.532 51.6765 43.5804 50.0193 42.7944 48.8823C41.3095 46.3285 39.8757 44.5562 38.2188 43.5654C36.5489 42.5702 34.5443 42.5846 32.909 43.5243L30.4042 44.9678C29.6642 45.3938 28.799 45.3442 27.8885 44.9592C26.9823 44.5742 26.1431 43.8043 25.8314 43.2646L19.6485 32.6119C19.3361 32.0694 19.0806 30.9627 19.2015 29.9869C19.3181 29.014 19.7133 28.252 20.4539 27.8253L22.8875 26.4264C22.9508 26.7524 23.1351 27.0482 23.4021 27.2468L36.5835 37.6001C37.4407 38.2736 38.4563 38.6485 39.4791 38.7075C39.531 38.7104 39.5842 38.7104 39.6368 38.7075C40.6603 38.6485 41.6709 38.2729 42.5288 37.6001L60.6831 23.3423V46.897C60.6831 47.2554 60.2743 47.7274 59.4724 47.7274H46.9044C46.1479 47.7231 45.5354 48.3333 45.5354 49.0853C45.5354 49.8358 46.1486 50.446 46.9044 50.4417H59.4724C61.5267 50.4417 63.4147 48.9572 63.4147 46.897V21.8204C63.4147 19.7588 61.5267 18.2751 59.4724 18.2751H24.7661C24.3818 17.3144 23.8743 16.2962 23.2352 15.1895C22.637 13.9446 21.6668 12.299 20.4525 10.9757C19.8392 10.305 19.1778 9.71064 18.3507 9.32638V9.32998C17.9397 9.13569 17.451 9.0112 16.9472 9.00041Z" fill="url(#paint0_linear_1023_184)" stroke="#131313"/>
<defs>
<linearGradient id="paint0_linear_1023_184" x1="36.6852" y1="8.99999" x2="37.3496" y2="86.8435" gradientUnits="userSpaceOnUse">
<stop offset="0.170916" stop-color="#C2C2C2"/>
<stop offset="1" stop-color="#3E3E3E"/>
</linearGradient>
</defs>
</svg>
