<svg width="50" height="50" viewBox="0 0 50 50" fill="none" xmlns="http://www.w3.org/2000/svg">
<path d="M47.0938 6H2.90625C1.30375 6 0 7.33304 0 8.97155V41.0285C0 42.667 1.30375 44 2.90625 44H47.0938C48.6962 44 50 42.667 50 41.0285V8.97155C50 7.33304 48.6962 6 47.0938 6ZM44.8597 9.19521L27.7703 28.0565C27.0459 28.8576 26.0622 29.2985 25 29.2985C23.9378 29.2985 22.9541 28.8576 22.2288 28.0553L5.14031 9.19521H44.8597ZM3.125 40.8048V11.6728L19.9353 30.2258C21.2388 31.6671 23.0847 32.4937 25 32.4937C26.9153 32.4937 28.7613 31.6671 30.0638 30.227L46.875 11.6731V40.8048H3.125Z" fill="url(#paint0_linear_1156_288)"/>
<defs>
<linearGradient id="paint0_linear_1156_288" x1="26.7224" y1="6" x2="27.1256" y2="62.5931" gradientUnits="userSpaceOnUse">
<stop offset="0.170916" stop-color="#C2C2C2"/>
<stop offset="1" stop-color="#3E3E3E"/>
</linearGradient>
</defs>
</svg>
