<svg width="76" height="76" viewBox="0 0 76 76" fill="none" xmlns="http://www.w3.org/2000/svg">
<path d="M59.2132 16.7868C53.5469 11.1206 46.0133 8 38 8C29.9867 8 22.4531 11.1206 16.7868 16.7868C11.1206 22.4531 8 29.9867 8 38C8 46.0133 11.1206 53.5469 16.7868 59.2132C22.4531 64.8794 29.9867 68 38 68C46.0133 68 53.5469 64.8794 59.2132 59.2132C64.8794 53.5469 68 46.0133 68 38C68 29.9867 64.8794 22.4531 59.2132 16.7868ZM57.5495 57.5495C52.3276 62.7713 45.3848 65.6471 38 65.6471C30.6152 65.6471 23.6724 62.7713 18.4505 57.5495C13.2287 52.3276 10.3529 45.3848 10.3529 38C10.3529 30.6152 13.2287 23.6724 18.4505 18.4505C23.6724 13.2287 30.6152 10.3529 38 10.3529C45.3848 10.3529 52.3276 13.2287 57.5495 18.4505C62.7713 23.6724 65.6471 30.6152 65.6471 38C65.6471 45.3848 62.7712 52.3276 57.5495 57.5495Z" fill="white"/>
<path d="M38 16.4219C26.1017 16.4219 16.4216 26.1019 16.4216 38.0002C16.4216 38.65 16.9484 39.1766 17.5981 39.1766C18.2478 39.1766 18.7746 38.65 18.7746 38.0002C18.7746 27.3993 27.3992 18.7749 38 18.7749C38.6498 18.7749 39.1764 18.2481 39.1764 17.5983C39.1764 16.9485 38.6496 16.4219 38 16.4219Z" fill="white"/>
<path d="M58.4019 36.8242C57.7521 36.8242 57.2255 37.351 57.2255 38.0007C57.2255 48.6016 48.601 57.226 38.0002 57.226C37.3504 57.226 36.8237 57.7527 36.8237 58.4024C36.8237 59.0522 37.3505 59.5789 38.0002 59.5789C49.8985 59.5789 59.5785 49.8989 59.5785 38.0005C59.5784 37.3509 59.0516 36.8242 58.4019 36.8242Z" fill="white"/>
<path d="M39.6943 36.8207H38.4149H37.585H36.3057C34.6663 36.8207 33.3326 35.487 33.3326 33.8476V31.8766C33.3326 30.2373 34.6663 28.9036 36.3057 28.9036H40.0601C41.4978 28.9036 42.6673 30.0731 42.6673 31.5108C42.6673 32.1606 43.1941 32.6872 43.8438 32.6872C44.4934 32.6872 45.0202 32.1605 45.0202 31.5108C45.0202 28.7757 42.795 26.5507 40.0601 26.5507H39.1764V23.6296C39.1764 22.9798 38.6497 22.4531 38 22.4531C37.3502 22.4531 36.8235 22.9799 36.8235 23.6296V26.5507H36.3057C33.369 26.5507 30.9797 28.9399 30.9797 31.8766V33.8476C30.9797 36.7843 33.369 39.1736 36.3057 39.1736H37.585H38.4149H39.6943C41.3336 39.1736 42.6673 40.5073 42.6673 42.1466V44.1176C42.6673 45.7569 41.3336 47.0906 39.6943 47.0906H35.9398C34.5022 47.0906 33.3326 45.9211 33.3326 44.4834C33.3326 43.8336 32.8059 43.307 32.1562 43.307C31.5065 43.307 30.9797 43.8338 30.9797 44.4834C30.9797 47.2185 33.2049 49.4435 35.9398 49.4435H36.8235V52.3646C36.8235 53.0145 37.3503 53.5411 38 53.5411C38.6498 53.5411 39.1764 53.0143 39.1764 52.3646V49.4435H39.6943C42.631 49.4435 45.0202 47.0543 45.0202 44.1176V42.1466C45.0202 39.2099 42.631 36.8207 39.6943 36.8207Z" fill="white"/>
<path d="M42.152 19.4973C42.8071 19.4973 43.3382 18.9663 43.3382 18.3112C43.3382 17.6561 42.8071 17.125 42.152 17.125C41.4969 17.125 40.9658 17.6561 40.9658 18.3112C40.9658 18.9663 41.4969 19.4973 42.152 19.4973Z" fill="white"/>
<path d="M33.848 58.9973C34.5031 58.9973 35.0342 58.4663 35.0342 57.8112C35.0342 57.1561 34.5031 56.625 33.848 56.625C33.1929 56.625 32.6619 57.1561 32.6619 57.8112C32.6619 58.4663 33.1929 58.9973 33.848 58.9973Z" fill="white"/>
</svg>
