<svg width="124" height="124" viewBox="0 0 124 124" fill="none" xmlns="http://www.w3.org/2000/svg">
<path fill-rule="evenodd" clip-rule="evenodd" d="M99.8309 88.8738H68.1695C68.1036 88.8755 68.0408 88.9024 67.9941 88.9491C67.9474 88.9957 67.9205 89.0585 67.9188 89.1245V108.572C67.9205 108.638 67.9475 108.701 67.9942 108.747C68.0409 108.794 68.1037 108.82 68.1695 108.822H99.8309C99.8968 108.82 99.9596 108.794 100.006 108.747C100.053 108.701 100.08 108.638 100.082 108.572V89.1245C100.08 89.0585 100.053 88.9957 100.006 88.9491C99.9597 88.9024 99.8969 88.8755 99.8309 88.8738ZM68.1695 85.6966H99.8309C100.74 85.698 101.611 86.0596 102.253 86.7022C102.896 87.3447 103.257 88.2158 103.259 89.1245V108.572C103.257 109.481 102.896 110.352 102.253 110.994C101.611 111.637 100.74 111.999 99.8309 112H68.1695C67.2606 111.999 66.3892 111.638 65.7463 110.995C65.1035 110.352 64.7417 109.481 64.7403 108.572V89.1245C64.7417 88.2158 65.1033 87.3447 65.7459 86.7022C66.3884 86.0596 67.2608 85.698 68.1695 85.6966ZM85.9656 98.8496L80.4616 102.033V95.6685L85.9656 98.8523V98.8496ZM89.8378 100.268L79.6603 106.143C79.4197 106.281 79.1473 106.352 78.8702 106.352C78.5932 106.351 78.3212 106.277 78.0814 106.138C77.8416 106 77.6424 105.8 77.5038 105.56C77.3651 105.321 77.2917 105.049 77.2911 104.771L77.2844 92.9251C77.2854 92.634 77.3662 92.3487 77.5181 92.1003C77.6699 91.8519 77.887 91.6499 78.1456 91.5163C78.4043 91.3826 78.6946 91.3225 78.9851 91.3424C79.2755 91.3623 79.555 91.4614 79.793 91.6291C83.1731 93.5809 86.551 95.5301 89.9267 97.4766C90.1714 97.6221 90.3725 97.8304 90.5093 98.08C90.6461 98.3296 90.7134 98.6113 90.7044 98.8958C90.6953 99.1802 90.6101 99.4571 90.4577 99.6974C90.3053 99.9378 90.0912 100.133 89.8378 100.262V100.268ZM80.0862 15.1838H56.1534C55.8533 15.1855 55.5661 15.3054 55.3538 15.5174C55.1415 15.7295 55.0213 16.0166 55.0192 16.3167V31.7262C55.0209 32.0265 55.141 32.314 55.3533 32.5263C55.5656 32.7386 55.8531 32.8587 56.1534 32.8604H57.5277C57.9499 32.8604 58.3548 33.0281 58.6534 33.3267C58.9519 33.6252 59.1196 34.0301 59.1196 34.4523V38.3365L64.9765 33.5608C65.1223 33.3465 65.3183 33.171 65.5474 33.0496C65.7765 32.9282 66.0318 32.8646 66.2911 32.8644H80.0875C80.3878 32.8627 80.6753 32.7426 80.8876 32.5303C81.0999 32.3179 81.22 32.0305 81.2217 31.7302V16.3167C81.2196 16.0166 81.0994 15.7295 80.8871 15.5174C80.6748 15.3054 80.3862 15.1855 80.0862 15.1838ZM56.1534 12H80.0862C81.2289 12.0025 82.3241 12.4575 83.1321 13.2655C83.9401 14.0735 84.3951 15.1687 84.3975 16.3114V31.7262C84.3958 32.8691 83.941 33.9647 83.1328 34.7729C82.3247 35.581 81.2291 36.0358 80.0862 36.0376H66.9438L58.528 42.8999C58.2948 43.0859 58.014 43.2025 57.7177 43.2367C57.4214 43.2708 57.1215 43.221 56.8522 43.0929C56.5828 42.9649 56.3548 42.7638 56.1942 42.5125C56.0336 42.2611 55.9469 41.9698 55.9438 41.6715V36.0296C54.8394 35.9729 53.7987 35.4947 53.0364 34.6936C52.274 33.8925 51.8479 32.8294 51.846 31.7235V16.3167C51.8485 15.174 52.3035 14.0788 53.1115 13.2708C53.9195 12.4628 55.0147 12.0078 56.1574 12.0053L56.1534 12ZM45.956 39.9908C45.796 40.2727 45.7531 40.6062 45.8366 40.9194L57.7758 85.4923C57.8167 85.6486 57.8886 85.795 57.9873 85.9229C58.086 86.0507 58.2094 86.1574 58.3502 86.2365C58.6589 86.3978 59.017 86.437 59.3532 86.3463C59.6895 86.2556 59.9793 86.0417 60.165 85.747C60.3271 85.466 60.3715 85.1321 60.2883 84.8184L48.3491 40.2455C48.3082 40.0901 48.237 39.9444 48.1395 39.8167C48.0421 39.689 47.9204 39.5818 47.7814 39.5013C47.4712 39.3401 47.1119 39.3009 46.7742 39.3915C46.4366 39.4821 46.1438 39.6959 45.956 39.9908ZM19.788 62.6752L25.7403 61.0833C26.0021 61.0121 26.2414 60.8751 26.4354 60.6854L43.6584 45.0623L53.3981 81.4105L31.1779 76.595C30.8677 76.5269 30.5441 76.5537 30.2493 76.6719L24.2187 78.6167L19.7853 62.6978L19.788 62.6752ZM12.9216 64.5152L13.8276 67.7985C13.9219 68.1973 13.858 68.6171 13.6493 68.9697C13.4406 69.3224 13.1033 69.5804 12.7084 69.6896C12.3134 69.7988 11.8915 69.7507 11.5313 69.5554C11.171 69.3601 10.9005 69.0327 10.7765 68.6422L9.86383 65.335L5.52725 66.513L9.99914 83.2027L14.3079 81.8137L12.375 74.6423C12.3011 74.435 12.2709 74.2147 12.2863 73.9953C12.3018 73.7758 12.3626 73.5619 12.4649 73.3671C12.5672 73.1722 12.7088 73.0008 12.8807 72.8634C13.0526 72.7261 13.2511 72.6259 13.4637 72.5691C13.6762 72.5124 13.8983 72.5003 14.1158 72.5337C14.3333 72.567 14.5415 72.6451 14.7272 72.763C14.913 72.8809 15.0724 73.0361 15.1952 73.2186C15.318 73.4012 15.4016 73.6073 15.4408 73.8238L17.3311 80.84L21.2047 79.5904L16.7275 63.5096L12.9216 64.5298V64.5152ZM18.7081 83.7187L22.4756 82.5036L30.8145 95.1498C30.9373 95.3095 31.0237 95.4941 31.0677 95.6908C31.1117 95.8874 31.1122 96.0912 31.0692 96.288C30.996 96.4377 30.8881 96.5677 30.7545 96.6671C30.6209 96.7666 30.4654 96.8327 30.3011 96.8598L27.9132 97.4992L18.7081 83.7187ZM58.8145 67.0569L55.9544 56.3846C56.918 56.8195 57.773 57.463 58.4576 58.2687C59.1422 59.0743 59.6393 60.022 59.9129 61.0431C60.1866 62.0643 60.23 63.1335 60.0401 64.1736C59.8501 65.2136 59.4315 66.1984 58.8145 67.0569ZM54.986 52.767C56.695 53.1035 58.2918 53.8649 59.629 54.9811C60.7736 55.9379 61.6968 57.1318 62.3349 58.4803C62.973 59.8288 63.3108 61.2997 63.3249 62.7915C63.339 64.2833 63.0291 65.7603 62.4167 67.1206C61.8043 68.481 60.9038 69.6921 59.7776 70.6705L63.3594 84.0119C63.5134 84.5914 63.5475 85.1962 63.4594 85.7893C63.3714 86.3824 63.1631 86.9513 62.8473 87.461C62.2252 88.4489 61.2469 89.1596 60.1152 89.4461C58.9834 89.7325 57.7848 89.5727 56.7676 88.9998C55.7601 88.4141 55.0231 87.456 54.7154 86.3321L54.3241 84.8728L30.9126 79.7788L25.6063 81.4914L33.4636 93.408C33.7681 93.8609 33.9975 94.3599 34.1428 94.8858C34.3714 95.701 34.3404 96.5672 34.054 97.3639C33.7588 98.1643 33.2118 98.8472 32.4952 99.31C32.0741 99.5859 31.6114 99.7923 31.1249 99.9215L27.6453 100.85C27.308 100.939 26.9509 100.915 26.6288 100.781C26.3067 100.647 26.0374 100.412 25.8623 100.11L15.5801 84.7216L9.38228 86.7287C8.98258 86.8542 8.54952 86.817 8.17702 86.6253C7.80452 86.4336 7.52261 86.1028 7.39242 85.7046C5.66787 79.3145 3.76954 72.2093 2.05162 65.798C1.9457 65.3922 2.00416 64.9611 2.2143 64.5982C2.42443 64.2353 2.76927 63.97 3.17391 63.8599L24.5451 58.1291L42.7364 41.6145C42.4841 40.5274 42.6558 39.385 43.2166 38.4201C43.8203 37.3973 44.8007 36.6517 45.9477 36.3433C47.0946 36.0348 48.3167 36.1879 49.352 36.7698C49.8537 37.0572 50.2937 37.4407 50.6468 37.8985C50.9999 38.3563 51.2591 38.8794 51.4096 39.4376L54.982 52.767H54.986ZM64.9022 46.7298L63.2148 49.4108C66.3768 51.3978 68.7002 54.4756 69.7447 58.0611C70.7892 61.6466 70.4822 65.4907 68.8819 68.865L71.75 70.2181C73.6788 66.143 74.0472 61.5023 72.7853 57.1739C71.5234 52.8456 68.7188 49.1298 64.9022 46.7298ZM112.952 42.2194C109.086 39.4951 104.473 38.0328 99.7434 38.0328C95.0141 38.0328 90.4005 39.4951 86.5347 42.2194C84.9717 43.314 83.684 44.7562 82.7727 46.4326C81.8614 48.1091 81.3514 49.974 81.2827 51.8809C81.2893 53.7673 81.7872 55.6194 82.7274 57.2548C83.7761 59.0523 85.1967 60.605 86.8942 61.809C87.1295 61.9504 87.3243 62.1503 87.4596 62.3892C87.5949 62.6282 87.6661 62.8981 87.6662 63.1727V72.3261L95.3378 65.8869C95.5055 65.7462 95.7005 65.6418 95.9106 65.5804C96.1207 65.5189 96.3412 65.5018 96.5583 65.53C97.0588 65.5963 97.5872 65.6476 98.1435 65.6839C98.6414 65.7157 99.1751 65.7321 99.7447 65.733C104.486 65.8163 109.125 64.3464 112.953 61.5476C114.516 60.4522 115.803 59.0092 116.714 57.3321C117.625 55.6549 118.134 53.7894 118.201 51.8822C118.133 49.9753 117.623 48.1104 116.711 46.434C115.8 44.7575 114.512 43.3153 112.949 42.2207L112.952 42.2194ZM99.7434 34.8556C105.186 34.7792 110.504 36.4863 114.885 39.7162C116.838 41.1009 118.442 42.921 119.57 45.0325C120.698 47.144 121.32 49.4891 121.385 51.8822C121.32 54.2757 120.698 56.6212 119.57 58.7332C118.442 60.8452 116.838 62.6657 114.885 64.0509C110.502 67.2761 105.185 68.9794 99.7434 68.9009C99.1676 68.9009 98.5676 68.8805 97.9432 68.8398C97.5842 68.8159 97.2193 68.7846 96.8488 68.7456L87.0918 76.9359C86.8597 77.1272 86.5781 77.2487 86.2797 77.2866C85.9813 77.3244 85.6783 77.2769 85.4058 77.1496C85.1333 77.0223 84.9025 76.8204 84.74 76.5673C84.5775 76.3142 84.49 76.0202 84.4877 75.7195V63.9594C82.6608 62.555 81.1282 60.8047 79.9774 58.8083C78.7643 56.7008 78.121 54.3138 78.1109 51.8822C78.1749 49.4902 78.7943 47.1459 79.9202 45.0345C81.046 42.923 82.6474 41.1023 84.5978 39.7162C88.9806 36.4869 94.3 34.7812 99.7434 34.8596V34.8556ZM40.5674 31.3494C40.6946 30.1493 40.5723 28.9357 40.2082 27.7851C39.8441 26.6344 39.2459 25.5714 38.4514 24.6629C37.6569 23.7544 36.6831 23.02 35.5913 22.5058C34.4994 21.9915 33.313 21.7086 32.1065 21.6747C30.6635 21.6417 29.2331 21.9504 27.9321 22.5756C26.6311 23.2009 25.4964 24.125 24.6207 25.2724C23.7449 24.125 22.6103 23.2009 21.3093 22.5756C20.0083 21.9504 18.5779 21.6417 17.1348 21.6747C15.9287 21.7088 14.7427 21.9918 13.6512 22.506C12.5597 23.0201 11.5862 23.7543 10.7918 24.6625C9.99751 25.5707 9.39946 26.6333 9.03522 27.7835C8.67098 28.9338 8.54841 30.1469 8.67522 31.3468C9.06391 36.2432 13.0741 42.5856 23.8141 48.9306C24.0635 49.0774 24.3481 49.1536 24.6375 49.1508C24.9268 49.1479 25.21 49.0663 25.4564 48.9146C36.1752 42.5749 40.1814 36.2392 40.5674 31.3468V31.3494ZM24.622 45.7176C33.6971 40.1791 37.0918 34.9975 37.4022 31.1014C37.4984 30.33 37.4321 29.547 37.2075 28.8028C36.9829 28.0586 36.6051 27.3696 36.0984 26.7801C35.5916 26.1906 34.9671 25.7137 34.265 25.38C33.5629 25.0463 32.7987 24.8633 32.0216 24.8426C30.7339 24.86 29.4797 25.2559 28.4154 25.9811C27.3511 26.7062 26.5236 27.7284 26.0361 28.9205C25.9022 29.1802 25.6993 29.3981 25.4497 29.5501C25.2002 29.7022 24.9136 29.7827 24.6213 29.7827C24.3291 29.7827 24.0425 29.7022 23.7929 29.5501C23.5434 29.3981 23.3405 29.1802 23.2065 28.9205C22.7193 27.7285 21.8921 26.7063 20.828 25.9812C19.7639 25.2561 18.5099 24.8601 17.2224 24.8426C16.4452 24.8631 15.6808 25.046 14.9786 25.3796C14.2763 25.7132 13.6516 26.1901 13.1447 26.7796C12.6378 27.3691 12.2599 28.0582 12.0353 28.8025C11.8106 29.5468 11.7443 30.3299 11.8404 31.1014C12.1495 34.9975 15.5469 40.1791 24.622 45.7176Z" fill="url(#paint0_linear_1023_171)" stroke="#131313"/>
<defs>
<linearGradient id="paint0_linear_1023_171" x1="65.8051" y1="12" x2="66.9747" y2="160.927" gradientUnits="userSpaceOnUse">
<stop offset="0.170916" stop-color="#C2C2C2"/>
<stop offset="1" stop-color="#3E3E3E"/>
</linearGradient>
</defs>
</svg>
