<svg width="124" height="124" viewBox="0 0 124 124" fill="none" xmlns="http://www.w3.org/2000/svg">
<path d="M66.6854 61.3353C66.6866 63.4102 65.8814 65.4044 64.4398 66.8968C62.9982 68.3891 61.0331 69.2628 58.9593 69.3333V71.9993C58.9593 72.7064 58.6785 73.3845 58.1785 73.8845C57.6785 74.3845 57.0004 74.6654 56.2933 74.6654C55.5863 74.6654 54.9081 74.3845 54.4082 73.8845C53.9082 73.3845 53.6273 72.7064 53.6273 71.9993V69.3333H50.9613C50.2542 69.3333 49.5761 69.0525 49.0761 68.5525C48.5762 68.0525 48.2953 67.3744 48.2953 66.6673C48.2953 65.9603 48.5762 65.2821 49.0761 64.7822C49.5761 64.2822 50.2542 64.0013 50.9613 64.0013H58.6874C59.3945 64.0013 60.0726 63.7204 60.5726 63.2205C61.0725 62.7205 61.3534 62.0424 61.3534 61.3353C61.3534 60.6282 61.0725 59.9501 60.5726 59.4501C60.0726 58.9502 59.3945 58.6693 58.6874 58.6693H53.6273C51.5061 58.6693 49.4718 57.8266 47.9719 56.3267C46.4719 54.8268 45.6293 52.7925 45.6293 50.6713C45.6293 48.55 46.4719 46.5157 47.9719 45.0158C49.4718 43.5159 51.5061 42.6732 53.6273 42.6732V40.0072C53.6273 39.3001 53.9082 38.622 54.4082 38.1221C54.9081 37.6221 55.5863 37.3412 56.2933 37.3412C57.0004 37.3412 57.6785 37.6221 58.1785 38.1221C58.6785 38.622 58.9593 39.3001 58.9593 40.0072V42.6732H61.4227C62.1298 42.6732 62.8079 42.9541 63.3079 43.4541C63.8079 43.9541 64.0887 44.6322 64.0887 45.3392C64.0887 46.0463 63.8079 46.7244 63.3079 47.2244C62.8079 47.7244 62.1298 48.0052 61.4227 48.0052H53.6273C52.9202 48.0052 52.2421 48.2861 51.7422 48.7861C51.2422 49.2861 50.9613 49.9642 50.9613 50.6713C50.9613 51.3783 51.2422 52.0564 51.7422 52.5564C52.2421 53.0564 52.9202 53.3373 53.6273 53.3373H58.7034C60.8218 53.3415 62.8521 54.186 64.3485 55.6855C65.845 57.185 66.6854 59.2169 66.6854 61.3353ZM66.2962 17.2768C74.8804 19.4945 82.4842 24.502 87.9123 31.512C93.3405 38.5221 96.2852 47.1373 96.2835 56.0033C96.2835 56.7104 96.5644 57.3885 97.0643 57.8884C97.5643 58.3884 98.2424 58.6693 98.9495 58.6693C99.6566 58.6693 100.335 58.3884 100.835 57.8884C101.335 57.3885 101.616 56.7104 101.616 56.0033C101.616 45.9563 98.2775 36.1941 92.1256 28.2509C85.9737 20.3076 77.3568 14.6337 67.6292 12.1207C67.2844 12.0133 66.9214 11.977 66.5622 12.0141C66.203 12.0512 65.855 12.1609 65.5395 12.3365C65.2239 12.5121 64.9474 12.75 64.7265 13.0357C64.5057 13.3214 64.3452 13.6491 64.2548 13.9987C64.1644 14.3483 64.146 14.7127 64.2007 15.0697C64.2554 15.4266 64.382 15.7688 64.5729 16.0753C64.7638 16.3819 65.015 16.6464 65.3112 16.853C65.6074 17.0595 65.9426 17.2037 66.2962 17.2768ZM38.3777 91.7652C33.3668 89.2728 28.9402 85.7478 25.3892 81.4221C21.8382 77.0964 19.2431 72.0679 17.7748 66.6673C16.2896 61.2943 15.9417 55.6705 16.7533 50.1554C17.5649 44.6404 19.5182 39.3552 22.4883 34.6379C22.8659 34.0397 22.9904 33.316 22.8344 32.6261C22.6784 31.9361 22.2547 31.3364 21.6565 30.9588C21.0583 30.5812 20.3347 30.4567 19.6447 30.6127C18.9547 30.7687 18.355 31.1924 17.9774 31.7906C14.6124 37.1385 12.4002 43.1296 11.4821 49.381C10.564 55.6325 10.9602 62.0067 12.6454 68.0963C14.3083 74.2125 17.2465 79.9077 21.267 84.8077C25.2875 89.7076 30.2992 93.7014 35.973 96.5266C36.3444 96.7164 36.7556 96.8151 37.1727 96.8146C37.772 96.8145 38.3539 96.6126 38.8243 96.2413C39.2948 95.87 39.6264 95.351 39.7656 94.768C39.9049 94.1851 39.8437 93.5723 39.5919 93.0284C39.3401 92.4846 38.9123 92.0361 38.3777 91.7652ZM112.28 99.5126C112.315 99.8973 112.261 100.285 112.122 100.646C111.984 101.006 111.764 101.33 111.48 101.592L101.882 111.19C101.62 111.474 101.296 111.694 100.936 111.832C100.575 111.971 100.187 112.025 99.8026 111.99C99.4121 111.958 99.0333 111.841 98.6925 111.648C98.3518 111.454 98.0574 111.189 97.8298 110.87L92.0179 102.712L86.206 110.87C85.9518 111.212 85.6224 111.49 85.2434 111.684C84.8643 111.879 84.4457 111.983 84.0198 111.99C83.8931 111.998 83.7659 111.98 83.6466 111.936C83.1584 111.882 82.6965 111.687 82.3176 111.375C81.9387 111.062 81.6593 110.646 81.5138 110.177L73.4624 86.0759C68.2536 89.115 62.3238 90.6987 56.2933 90.6614C49.4386 90.6614 42.7378 88.6288 37.0383 84.8205C31.3388 81.0122 26.8966 75.5993 24.2734 69.2664C21.6502 62.9334 20.9638 55.9648 22.3011 49.2418C23.6384 42.5188 26.9393 36.3433 31.7863 31.4963C36.6334 26.6492 42.8088 23.3484 49.5319 22.0111C56.2549 20.6738 63.2235 21.3601 69.5564 23.9833C75.8894 26.6065 81.3022 31.0487 85.1105 36.7482C88.9188 42.4478 90.9515 49.1485 90.9515 56.0033C90.9888 62.0338 89.4051 67.9635 86.3659 73.1724L110.467 81.2237C110.936 81.3693 111.352 81.6486 111.665 82.0275C111.977 82.4064 112.172 82.8683 112.226 83.3565C112.3 83.8399 112.24 84.3344 112.052 84.7858C111.864 85.2372 111.555 85.6282 111.16 85.9159L103.002 91.7278L111.16 97.5397C111.479 97.7673 111.744 98.0617 111.938 98.4025C112.131 98.7432 112.248 99.1221 112.28 99.5126ZM81.1939 71.4661C84.1041 66.8352 85.6389 61.4727 85.6194 56.0033C85.6194 50.2031 83.8995 44.5332 80.6771 39.7106C77.4547 34.8879 72.8746 31.1291 67.5159 28.9095C62.1573 26.6899 56.2608 26.1091 50.5721 27.2407C44.8834 28.3722 39.658 31.1653 35.5566 35.2666C31.4553 39.3679 28.6623 44.5933 27.5307 50.282C26.3992 55.9707 26.9799 61.8673 29.1995 67.2259C31.4192 72.5845 35.178 77.1647 40.0006 80.3871C44.8233 83.6094 50.4932 85.3294 56.2933 85.3294C61.7628 85.3489 67.1252 83.8141 71.7562 80.9038L68.7169 71.7861C68.5651 71.3185 68.5455 70.818 68.6602 70.34C68.775 69.862 69.0198 69.425 69.3674 69.0774C69.715 68.7297 70.152 68.485 70.63 68.3702C71.1081 68.2554 71.6085 68.275 72.0761 68.4269L81.1939 71.4661ZM105.508 100.046L96.87 93.914C96.5232 93.6646 96.2407 93.3363 96.0459 92.9561C95.851 92.576 95.7494 92.155 95.7494 91.7278C95.7494 91.3007 95.851 90.8796 96.0459 90.4995C96.2407 90.1194 96.5232 89.7911 96.87 89.5417L103.802 84.6362L81.5138 77.1714L81.4071 77.1181L75.4353 75.1452L77.4081 81.1171L77.4615 81.2237L84.9263 103.512L89.8317 96.58C90.0811 96.2332 90.4094 95.9507 90.7896 95.7558C91.1697 95.561 91.5907 95.4593 92.0179 95.4593C92.445 95.4593 92.8661 95.561 93.2462 95.7558C93.6263 95.9507 93.9546 96.2332 94.204 96.58L100.336 105.218L102.949 102.658L105.508 100.046Z" fill="url(#paint0_linear_1023_158)" stroke="#131313"/>
<defs>
<linearGradient id="paint0_linear_1023_158" x1="65.1342" y1="12" x2="66.5127" y2="160.924" gradientUnits="userSpaceOnUse">
<stop offset="0.170916" stop-color="#C2C2C2"/>
<stop offset="1" stop-color="#3E3E3E"/>
</linearGradient>
</defs>
</svg>
