<svg width="76" height="76" viewBox="0 0 76 76" fill="none" xmlns="http://www.w3.org/2000/svg">
<path d="M73.6505 9.83337C73.413 9.63285 73.0819 9.56123 72.7795 9.64001L60.6722 12.7553C60.6075 12.7696 60.5499 12.7911 60.4923 12.8198C60.4563 12.8413 60.4203 12.8627 60.3843 12.8842C60.3627 12.8985 60.3483 12.9057 60.3267 12.92C60.2763 12.963 60.2259 13.006 60.1828 13.0489C60.1756 13.0633 60.1684 13.0776 60.154 13.0847C60.1252 13.1206 60.0964 13.1564 60.0748 13.1993C60.0604 13.228 60.046 13.2566 60.0388 13.2781C60.0244 13.3068 60.01 13.3354 59.9956 13.3712C59.9884 13.3999 59.9812 13.4285 59.974 13.4643C59.9668 13.493 59.9596 13.5288 59.9524 13.5574C59.9452 13.5861 59.9524 13.6219 59.9452 13.6505C59.9452 13.6792 59.938 13.715 59.9452 13.7436C59.9452 13.7866 59.9596 13.8296 59.9668 13.8725C59.974 13.894 59.974 13.9083 59.974 13.9298C59.9884 13.9943 60.01 14.0516 60.0388 14.1089C60.0532 14.1447 60.0748 14.1733 60.0964 14.202C60.1108 14.2234 60.118 14.2449 60.1396 14.2664C60.1756 14.3165 60.226 14.3667 60.2691 14.4096L63.4147 17.1382L58.304 23.111C52.9342 13.7579 43.0295 8 32.1243 8C23.868 8 16.3819 11.3158 10.9329 16.687C10.8897 16.7157 10.8465 16.7515 10.8106 16.7873C10.7746 16.8231 10.7386 16.8661 10.7098 16.909C5.33275 22.3447 2 29.7928 2 38V38.0072V38.0143C2 46.2215 5.33275 53.6696 10.7242 59.0838C10.753 59.1268 10.789 59.1697 10.8321 59.2127C10.8753 59.2557 10.9185 59.2843 10.9617 59.3201C16.4035 64.6842 23.8896 68 32.1387 68C40.395 68 47.8811 64.677 53.3373 59.313C53.3805 59.2843 53.4237 59.2485 53.4597 59.2127C53.4957 59.1769 53.5317 59.1339 53.5605 59.091C58.9519 53.6696 62.2918 46.2215 62.2918 38.0072C62.2918 35.4505 61.9679 32.9224 61.3273 30.4803L68.8134 21.7288L71.4191 23.9346C71.4263 23.9418 71.4263 23.9418 71.4335 23.9418C71.4551 23.9561 71.4767 23.9704 71.4983 23.9847C71.5271 24.0062 71.5559 24.0277 71.5847 24.042C71.6062 24.0563 71.6278 24.0635 71.6494 24.0707C71.6854 24.085 71.7142 24.0993 71.7502 24.1136C71.7718 24.1208 71.7934 24.128 71.8222 24.1351C71.8582 24.1423 71.9014 24.1494 71.9374 24.1566C71.9518 24.1566 71.959 24.1638 71.9734 24.1638C71.9949 24.1638 72.0237 24.1638 72.0453 24.1638C72.1101 24.1638 72.1749 24.1566 72.2397 24.1423C72.2541 24.1423 72.2757 24.1351 72.2901 24.128C72.3333 24.1136 72.3837 24.0993 72.4268 24.085C72.4484 24.0778 72.47 24.0635 72.4916 24.0563C72.5276 24.0349 72.5636 24.0134 72.5996 23.9919C72.6212 23.9776 72.6428 23.9632 72.6572 23.9489C72.6932 23.9203 72.722 23.8916 72.7508 23.8558C72.7579 23.8415 72.7723 23.8343 72.7867 23.8272C72.7939 23.82 72.7939 23.8128 72.8011 23.8057C72.8227 23.777 72.8443 23.7484 72.8659 23.7126C72.8803 23.6911 72.8947 23.6696 72.9091 23.6481C72.9235 23.6195 72.9379 23.5837 72.9523 23.555C72.9595 23.5264 72.9739 23.5049 72.9811 23.4762C72.9883 23.4476 72.9955 23.419 73.0027 23.3903C73.0099 23.3617 73.0171 23.3259 73.0171 23.2972C73.0171 23.29 73.0171 23.29 73.0171 23.2829L73.996 10.6641C74.0248 10.3418 73.8953 10.0411 73.6505 9.83337ZM71.2247 21.2275L69.3316 19.6233C69.2452 19.5517 69.1589 19.5016 69.0581 19.4657C68.6838 19.3153 68.2375 19.4085 67.9568 19.7307L49.3495 41.4805L39.7256 33.3306C39.4233 33.0728 39.0058 33.037 38.6674 33.2017H38.6602C38.5523 33.2519 38.4587 33.3306 38.3723 33.4237C38.3651 33.4309 38.3651 33.4309 38.3579 33.438L22.2484 52.2731L19.945 50.0816L38.6243 28.2459L48.2554 36.403C48.4354 36.5605 48.6657 36.6321 48.8888 36.6321C49.1624 36.6321 49.4359 36.5175 49.6303 36.2884L58.8871 25.46L58.8943 25.4529L65.5382 17.6825C65.5598 17.6539 65.5742 17.6324 65.5958 17.6037C65.6174 17.5751 65.6318 17.5536 65.6462 17.5249C65.6606 17.4963 65.675 17.4677 65.6894 17.4318C65.7038 17.4032 65.7181 17.3746 65.7253 17.3459C65.7325 17.3173 65.7397 17.2815 65.7469 17.2456C65.7541 17.217 65.7613 17.1883 65.7685 17.1597C65.7757 17.1239 65.7685 17.0952 65.7685 17.0594C65.7685 17.0308 65.7685 17.0021 65.7685 16.9735C65.7685 16.9377 65.7613 16.909 65.7541 16.8732C65.7469 16.8446 65.7469 16.8159 65.7397 16.7873C65.7325 16.7587 65.7181 16.7228 65.7038 16.6942C65.6966 16.6656 65.6822 16.6369 65.675 16.6154C65.6606 16.5868 65.639 16.5581 65.6174 16.5295C65.603 16.508 65.5886 16.4794 65.5742 16.4579C65.5526 16.4292 65.5238 16.4077 65.5022 16.3791C65.4806 16.3576 65.4662 16.3361 65.4446 16.3146L65.4374 16.3075L62.9685 14.1661L71.9662 11.8529L71.2247 21.2275ZM60.3267 37.0403H58.1673C57.6274 37.0403 57.1955 37.4772 57.1955 38.0072C57.1955 38.5371 57.6346 38.974 58.1673 38.974H60.3267C60.0892 45.978 57.2531 52.3376 52.7543 57.1358L51.2354 55.6247C50.8539 55.2452 50.2349 55.2452 49.8606 55.6247C49.4791 56.0043 49.4791 56.6202 49.8606 56.9926L51.3794 58.5037C46.5494 62.9869 40.1575 65.8014 33.1177 66.0449V63.8964C33.1177 63.3593 32.6786 62.9296 32.1459 62.9296C31.6132 62.9296 31.1742 63.3664 31.1742 63.8964V66.0449C24.1344 65.8085 17.7424 62.9869 12.9196 58.5109L14.4384 56.9998C14.8199 56.6202 14.8199 56.0043 14.4384 55.6319C14.0569 55.2523 13.4379 55.2523 13.0636 55.6319L11.5448 57.143C7.03871 52.3447 4.20264 45.978 3.9651 38.974H6.12455C6.66441 38.974 7.0963 38.5371 7.0963 38.0072C7.0963 37.4772 6.65721 37.0403 6.12455 37.0403H3.9651C4.20264 30.0363 7.03871 23.6768 11.5376 18.8785L13.0564 20.3896C13.2435 20.5758 13.4955 20.6761 13.7474 20.6761C13.9993 20.6761 14.2441 20.583 14.4384 20.3896C14.8199 20.01 14.8199 19.3941 14.4384 19.0217L12.9196 17.5106C17.7352 13.0346 24.1344 10.2129 31.1742 9.9766V12.1251C31.1742 12.6622 31.6132 13.0919 32.1459 13.0919C32.6786 13.0919 33.1177 12.655 33.1177 12.1251V9.9766C40.0495 10.2129 46.4919 12.9272 51.3938 17.4891L49.8534 19.0217C49.4719 19.4013 49.4719 20.0172 49.8534 20.3896C50.0405 20.5758 50.2925 20.6761 50.5444 20.6761C50.7964 20.6761 51.0411 20.583 51.2354 20.3896L52.7758 18.857C54.3954 20.5901 55.8135 22.5524 56.9796 24.7009L48.7737 34.2903L39.1353 26.1332C38.725 25.7894 38.1132 25.8324 37.7605 26.2406L17.8576 49.5159C17.5264 49.9098 17.5552 50.4899 17.9223 50.8408L21.6294 54.3786C21.8093 54.5505 22.0541 54.6508 22.306 54.6508C22.3204 54.6508 22.342 54.6508 22.3564 54.6508C22.6227 54.6364 22.8747 54.5147 23.0474 54.3142L39.1929 35.4361L48.8241 43.5932C48.9608 43.7078 49.1192 43.7794 49.2847 43.8081C49.3423 43.8152 49.3927 43.8224 49.4503 43.8224C49.5223 43.8224 49.5871 43.8152 49.659 43.8009C49.8606 43.7579 50.0549 43.6505 50.1989 43.4786L59.7509 32.3065C60.082 33.8606 60.2691 35.4433 60.3267 37.0403Z" fill="white"/>
</svg>
