<svg width="76" height="76" viewBox="0 0 76 76" fill="none" xmlns="http://www.w3.org/2000/svg">
<path d="M69.7129 20.7514H55.6117V12.5268C55.6117 10.0308 53.5391 8 50.9914 8H5.62042C3.0727 8 1 10.0308 1 12.5268V40.3797C1 42.8758 3.0727 44.9062 5.62042 44.9062H9.33961V54.1238C9.33961 54.5456 9.58056 54.932 9.96373 55.1247C10.1289 55.2077 10.3086 55.2486 10.4875 55.2486C10.7236 55.2486 10.9584 55.1775 11.1573 55.0374L19.7215 49.0129V53.1308C19.7215 55.6269 21.7941 57.6576 24.3418 57.6576H49.774L64.1759 67.7888C64.3748 67.9286 64.6096 68 64.8457 68C65.0246 68 65.2043 67.9591 65.3695 67.8759C65.7526 67.6834 65.9936 67.297 65.9936 66.8752V57.6576H69.7128C72.2606 57.6576 74.3333 55.6269 74.3333 53.1308V25.2782C74.3335 22.7822 72.2608 20.7514 69.7129 20.7514ZM10.4877 42.6568H5.62042C4.33874 42.6568 3.29615 41.6352 3.29615 40.3798V12.5268C3.29615 11.2711 4.33888 10.2495 5.62042 10.2495H50.9913C52.2728 10.2495 53.3154 11.2713 53.3154 12.5268V40.3797C53.3154 41.6352 52.2727 42.6566 50.9913 42.6566H25.1901C24.9498 42.6566 24.7156 42.7304 24.5204 42.8678L11.6358 51.9318V43.7815C11.6358 43.1604 11.1217 42.6568 10.4877 42.6568ZM72.0373 53.1309C72.0373 54.3867 70.9946 55.4082 69.7129 55.4082H64.8457C64.2116 55.4082 63.6976 55.9118 63.6976 56.5329V64.6829L50.8132 55.6194C50.618 55.482 50.3838 55.4082 50.1436 55.4082H24.3418C23.0602 55.4082 22.0176 54.3866 22.0176 53.1309V47.3978L25.5594 44.9063H50.9914C53.5391 44.9063 55.6117 42.876 55.6117 40.3798V23.0009H69.7129C70.9947 23.0009 72.0373 24.0225 72.0373 25.2781V53.1309ZM17.5526 38.5394H39.0594C39.6934 38.5394 40.2074 38.0358 40.2074 37.4145C40.2074 32.4693 37.0471 28.2361 32.6023 26.5441C34.2225 25.2945 35.266 23.3578 35.266 21.1857C35.266 17.426 32.1436 14.3671 28.3058 14.3671C24.4682 14.3671 21.3462 17.426 21.3462 21.1857C21.3462 23.3579 22.3896 25.2946 24.0097 26.5441C19.5651 28.2362 16.4047 32.4694 16.4047 37.4145C16.4046 38.0358 16.9186 38.5394 17.5526 38.5394ZM28.3058 16.6165C30.8776 16.6165 32.9698 18.6662 32.9698 21.1856C32.9698 23.7051 30.8776 25.7547 28.3058 25.7547C25.7344 25.7547 23.6423 23.7051 23.6423 21.1856C23.6422 18.6662 25.7344 16.6165 28.3058 16.6165ZM28.3059 28.0042C33.2136 28.0042 37.2737 31.6294 37.843 36.2897H18.7689C19.3382 31.6294 23.3982 28.0042 28.3059 28.0042Z" fill="white"/>
</svg>
