<svg width="49" height="40" viewBox="0 0 49 40" fill="none" xmlns="http://www.w3.org/2000/svg">
<path d="M45.8086 8.50094H36.4078V3.01786C36.4078 1.35385 35.0261 0 33.3276 0H3.08028C1.3818 0 0 1.35385 0 3.01786V21.5864C0 23.2505 1.3818 24.6041 3.08028 24.6041H5.55974V30.7492C5.55974 31.0304 5.72037 31.288 5.97582 31.4165C6.08594 31.4718 6.20572 31.4991 6.32502 31.4991C6.48241 31.4991 6.63893 31.4516 6.77153 31.3583L12.481 27.3419V30.0872C12.481 31.7513 13.8627 33.1051 15.5612 33.1051H32.516L42.1173 39.8592C42.2499 39.9524 42.4064 40 42.5638 40C42.6831 40 42.8029 39.9727 42.913 39.9172C43.1684 39.7889 43.3291 39.5313 43.3291 39.2502V33.1051H45.8085C47.5071 33.1051 48.8889 31.7513 48.8889 30.0872V11.5188C48.889 9.85479 47.5072 8.50094 45.8086 8.50094ZM6.32512 23.1045H3.08028C2.22583 23.1045 1.53076 22.4235 1.53076 21.5865V3.01786C1.53076 2.18075 2.22592 1.4997 3.08028 1.4997H33.3275C34.1819 1.4997 34.8769 2.18084 34.8769 3.01786V21.5864C34.8769 22.4235 34.1818 23.1044 33.3275 23.1044H16.1267C15.9665 23.1044 15.8104 23.1536 15.6803 23.2452L7.0905 29.2879V23.8544C7.0905 23.4403 6.7478 23.1045 6.32512 23.1045ZM47.3582 30.0873C47.3582 30.9245 46.6631 31.6054 45.8086 31.6054H42.5638C42.1411 31.6054 41.7984 31.9412 41.7984 32.3553V37.7886L33.2088 31.7462C33.0787 31.6547 32.9225 31.6054 32.7624 31.6054H15.5612C14.7068 31.6054 14.0118 30.9244 14.0118 30.0873V26.2652L16.373 24.6042H33.3276C35.0261 24.6042 36.4078 23.2506 36.4078 21.5865V10.0006H45.8086C46.6632 10.0006 47.3582 10.6817 47.3582 11.5187V30.0873ZM11.0351 20.3596H25.3729C25.7956 20.3596 26.1383 20.0239 26.1383 19.6097C26.1383 16.3129 24.0314 13.4907 21.0682 12.3627C22.1483 11.5297 22.844 10.2385 22.844 8.79047C22.844 6.28401 20.7624 4.2447 18.2039 4.2447C15.6455 4.2447 13.5641 6.28401 13.5641 8.79047C13.5641 10.2386 14.2597 11.5298 15.3398 12.3627C12.3767 13.4908 10.2698 16.313 10.2698 19.6097C10.2697 20.0239 10.6124 20.3596 11.0351 20.3596ZM18.2039 5.74431C19.9184 5.74431 21.3132 7.11081 21.3132 8.79038C21.3132 10.47 19.9184 11.8364 18.2039 11.8364C16.4896 11.8364 15.0949 10.47 15.0949 8.79038C15.0948 7.11081 16.4896 5.74431 18.2039 5.74431ZM18.2039 13.3361C21.4758 13.3361 24.1824 15.7529 24.562 18.8598H11.8459C12.2255 15.7529 14.9321 13.3361 18.2039 13.3361Z" fill="url(#paint0_linear_771_13885)"/>
<defs>
<linearGradient id="paint0_linear_771_13885" x1="26.1286" y1="-4.06377e-06" x2="26.5855" y2="59.5712" gradientUnits="userSpaceOnUse">
<stop offset="0.170916" stop-color="#C2C2C2"/>
<stop offset="1" stop-color="#3E3E3E"/>
</linearGradient>
</defs>
</svg>
