<svg width="124" height="124" viewBox="0 0 124 124" fill="none" xmlns="http://www.w3.org/2000/svg">
<path d="M120.232 12H3.52717C2.85692 12 2.21413 12.2663 1.74019 12.7402C1.26625 13.2141 1 13.8569 1 14.5272V109.473C1 110.143 1.26625 110.786 1.74019 111.26C2.21413 111.734 2.85692 112 3.52717 112H120.232C120.902 112 121.545 111.734 122.019 111.26C122.493 110.786 122.759 110.143 122.759 109.473V14.5272C122.759 13.8569 122.493 13.2141 122.019 12.7402C121.545 12.2663 120.902 12 120.232 12ZM6.05433 17.0543H117.705V28.7425H6.05433V17.0543ZM6.05433 106.946V33.7968H117.705V106.946H6.05433Z" fill="url(#paint0_linear_1023_162)"/>
<path d="M13.3328 20.3789C12.833 20.3789 12.3444 20.5271 11.9288 20.8048C11.5132 21.0825 11.1893 21.4772 10.998 21.939C10.8068 22.4007 10.7567 22.9089 10.8542 23.3991C10.9517 23.8893 11.1924 24.3396 11.5459 24.693C11.8993 25.0465 12.3496 25.2872 12.8398 25.3847C13.33 25.4822 13.8382 25.4321 14.2999 25.2409C14.7617 25.0496 15.1564 24.7257 15.4341 24.3101C15.7118 23.8945 15.86 23.4059 15.86 22.9061C15.86 22.2358 15.5937 21.593 15.1198 21.1191C14.6459 20.6452 14.0031 20.3789 13.3328 20.3789Z" fill="url(#paint1_linear_1023_162)"/>
<path d="M21.8485 25.4215C23.2442 25.4215 24.3756 24.2901 24.3756 22.8944C24.3756 21.4986 23.2442 20.3672 21.8485 20.3672C20.4527 20.3672 19.3213 21.4986 19.3213 22.8944C19.3213 24.2901 20.4527 25.4215 21.8485 25.4215Z" fill="url(#paint2_linear_1023_162)"/>
<path d="M30.3778 20.3789C29.8779 20.3789 29.3893 20.5271 28.9737 20.8048C28.5581 21.0825 28.2342 21.4772 28.043 21.939C27.8517 22.4007 27.8016 22.9089 27.8991 23.3991C27.9967 23.8893 28.2373 24.3396 28.5908 24.693C28.9442 25.0465 29.3945 25.2872 29.8847 25.3847C30.375 25.4822 30.8831 25.4321 31.3449 25.2409C31.8066 25.0496 32.2013 24.7257 32.479 24.3101C32.7567 23.8945 32.9049 23.4059 32.9049 22.9061C32.9049 22.2358 32.6387 21.593 32.1647 21.1191C31.6908 20.6452 31.048 20.3789 30.3778 20.3789Z" fill="url(#paint3_linear_1023_162)"/>
<path d="M48.0564 62.277L49.8507 60.4954C50.1144 60.2679 50.3282 59.9883 50.4788 59.6743C50.6293 59.3602 50.7134 59.0184 50.7255 58.6703C50.7377 58.3223 50.6779 57.9754 50.5497 57.6516C50.4215 57.3278 50.2277 57.0339 49.9806 56.7886C49.7334 56.5432 49.4382 56.3515 49.1135 56.2256C48.7888 56.0997 48.4415 56.0423 48.0935 56.0569C47.7456 56.0716 47.4044 56.158 47.0914 56.3108C46.7784 56.4636 46.5004 56.6794 46.2748 56.9447L36.3935 66.8007C36.1586 67.0354 35.9722 67.3141 35.845 67.6209C35.7178 67.9277 35.6523 68.2565 35.6523 68.5886C35.6523 68.9207 35.7178 69.2496 35.845 69.5564C35.9722 69.8632 36.1586 70.1419 36.3935 70.3766L46.2748 80.2578C46.749 80.732 47.3921 80.9984 48.0627 80.9984C48.7333 80.9984 49.3765 80.732 49.8507 80.2578C50.3249 79.7836 50.5913 79.1405 50.5913 78.4698C50.5913 77.7992 50.3249 77.1561 49.8507 76.6819L48.0564 74.9002L41.7385 68.5823L48.0564 62.277Z" fill="url(#paint4_linear_1023_162)"/>
<path d="M77.4845 56.9437C77.0103 56.4695 76.3672 56.2031 75.6965 56.2031C75.0259 56.2031 74.3828 56.4695 73.9086 56.9437C73.4344 57.4179 73.168 58.0611 73.168 58.7317C73.168 59.4023 73.4344 60.0455 73.9086 60.5197L75.7029 62.3013L82.0208 68.6192L75.7029 74.9372L73.9086 76.7188C73.4344 77.193 73.168 77.8362 73.168 78.5068C73.168 79.1774 73.4344 79.8206 73.9086 80.2948C74.3828 80.769 75.0259 81.0354 75.6965 81.0354C76.3672 81.0354 77.0103 80.769 77.4845 80.2948L87.3657 70.4135C87.6007 70.1788 87.7871 69.9001 87.9143 69.5933C88.0415 69.2865 88.1069 68.9577 88.1069 68.6256C88.1069 68.2934 88.0415 67.9646 87.9143 67.6578C87.7871 67.351 87.6007 67.0723 87.3657 66.8376L77.4845 56.9437Z" fill="url(#paint5_linear_1023_162)"/>
<path d="M67.0848 51.4489C66.7654 51.3519 66.4299 51.3191 66.0978 51.3525C65.7657 51.3859 65.4434 51.4847 65.1497 51.6433C64.856 51.8019 64.5966 52.0172 64.3866 52.2766C64.1765 52.536 64.0199 52.8344 63.9258 53.1547L54.7901 82.5709C54.5922 83.2093 54.6552 83.9002 54.9655 84.4922C55.2757 85.0842 55.8078 85.5293 56.4454 85.7299C56.6912 85.8046 56.9466 85.843 57.2035 85.8436C57.7434 85.8433 58.2689 85.6702 58.7032 85.3496C59.1375 85.029 59.4577 84.5777 59.617 84.0619L68.7527 54.6205C68.8523 54.3027 68.8882 53.9684 68.8582 53.6368C68.8283 53.3051 68.7331 52.9827 68.5781 52.6879C68.4231 52.3932 68.2113 52.132 67.9551 51.9194C67.6988 51.7067 67.403 51.5468 67.0848 51.4489Z" fill="url(#paint6_linear_1023_162)"/>
<defs>
<linearGradient id="paint0_linear_1023_162" x1="66.0738" y1="12" x2="67.2205" y2="160.928" gradientUnits="userSpaceOnUse">
<stop offset="0.170916" stop-color="#C2C2C2"/>
<stop offset="1" stop-color="#3E3E3E"/>
</linearGradient>
<linearGradient id="paint1_linear_1023_162" x1="13.5069" y1="20.3789" x2="13.5775" y2="27.906" gradientUnits="userSpaceOnUse">
<stop offset="0.170916" stop-color="#C2C2C2"/>
<stop offset="1" stop-color="#3E3E3E"/>
</linearGradient>
<linearGradient id="paint2_linear_1023_162" x1="22.0226" y1="20.3672" x2="22.0931" y2="27.8943" gradientUnits="userSpaceOnUse">
<stop offset="0.170916" stop-color="#C2C2C2"/>
<stop offset="1" stop-color="#3E3E3E"/>
</linearGradient>
<linearGradient id="paint3_linear_1023_162" x1="30.5519" y1="20.3789" x2="30.6224" y2="27.906" gradientUnits="userSpaceOnUse">
<stop offset="0.170916" stop-color="#C2C2C2"/>
<stop offset="1" stop-color="#3E3E3E"/>
</linearGradient>
<linearGradient id="paint4_linear_1023_162" x1="43.709" y1="56.0547" x2="44.2852" y2="93.1961" gradientUnits="userSpaceOnUse">
<stop offset="0.170916" stop-color="#C2C2C2"/>
<stop offset="1" stop-color="#3E3E3E"/>
</linearGradient>
<linearGradient id="paint5_linear_1023_162" x1="81.1521" y1="56.2031" x2="81.7283" y2="93.1784" gradientUnits="userSpaceOnUse">
<stop offset="0.170916" stop-color="#C2C2C2"/>
<stop offset="1" stop-color="#3E3E3E"/>
</linearGradient>
<linearGradient id="paint6_linear_1023_162" x1="62.2615" y1="51.3398" x2="63.4322" y2="102.702" gradientUnits="userSpaceOnUse">
<stop offset="0.170916" stop-color="#C2C2C2"/>
<stop offset="1" stop-color="#3E3E3E"/>
</linearGradient>
</defs>
</svg>
