<svg width="70" height="70" viewBox="0 0 70 70" fill="none" xmlns="http://www.w3.org/2000/svg">
<path d="M48.66 39.3418H44.6945C44.3505 39.3418 44.0298 39.5149 43.8411 39.8024C43.6524 40.0899 43.621 40.4531 43.7578 40.7686C43.9537 41.2208 44.0385 41.7038 44.0095 42.2041C43.9187 43.774 42.668 45.0398 41.1002 45.1482C40.2169 45.2089 39.3758 44.9125 38.7326 44.3122C38.0888 43.7113 37.7342 42.8957 37.7342 42.0157C37.7342 41.5819 37.8208 41.1623 37.9915 40.7685C38.1282 40.4529 38.0968 40.0898 37.9082 39.8023C37.7194 39.5148 37.3986 39.3417 37.0548 39.3417H30.9303V35.563C31.2384 35.6003 31.5518 35.61 31.8686 35.5916C34.4619 35.4416 36.5527 33.3752 36.7319 30.7849C36.8326 29.3305 36.3424 27.9449 35.3518 26.8833C34.3749 25.8365 32.9938 25.2361 31.5625 25.2361C31.3496 25.2361 31.1387 25.2488 30.9302 25.2741V20.474C30.9302 19.9102 30.4732 19.4531 29.9093 19.4531H12.1799C10.4266 19.4531 9.0001 20.8795 9.0001 22.6329V38.2036C9.0001 39.0361 9.32179 39.7949 9.84735 40.3624C9.32169 40.93 9 41.6888 9 42.5215V58.0921C9 59.8454 10.4265 61.2719 12.1798 61.2719H48.6599C50.4132 61.2719 51.8397 59.8454 51.8397 58.0921V42.5215C51.8397 40.7722 50.4166 39.3458 48.66 39.3418ZM11.0419 22.6331C11.0419 22.0057 11.5523 21.4951 12.1799 21.4951H28.8885V26.5986C28.8885 26.9425 29.0617 27.2633 29.3492 27.4521C29.6367 27.6408 29.9999 27.6721 30.3154 27.5353C30.7092 27.3646 31.1288 27.2781 31.5626 27.2781C32.4427 27.2781 33.2583 27.6327 33.8591 28.2765C34.4593 28.9197 34.7562 29.7605 34.695 30.6441C34.5865 32.2118 33.3208 33.4625 31.7508 33.5534C31.2504 33.5821 30.7675 33.4975 30.3154 33.3016C29.9999 33.1648 29.6367 33.1962 29.3492 33.3848C29.0617 33.5736 28.8885 33.8943 28.8885 34.2383V39.3418H23.7851C23.4411 39.3418 23.1204 39.5149 22.9316 39.8024C22.7428 40.0899 22.7116 40.4531 22.8484 40.7686C23.0191 41.1623 23.1057 41.582 23.1057 42.0157C23.1057 42.8958 22.7511 43.7114 22.1072 44.3123C21.464 44.9125 20.6225 45.209 19.7397 45.1483C18.172 45.0398 16.9213 43.7741 16.8305 42.2042C16.8016 41.7039 16.8862 41.2208 17.0822 40.7687C17.219 40.4531 17.1877 40.09 16.9989 39.8025C16.8102 39.515 16.4894 39.3419 16.1456 39.3419H12.1837C12.1823 39.3419 12.1811 39.3419 12.1798 39.3419C12.179 39.3419 12.1781 39.3419 12.1772 39.3419C11.5509 39.3404 11.0419 38.8305 11.0419 38.204V22.6331ZM28.8884 59.2301H12.1798C11.5522 59.2301 11.0418 58.7196 11.0418 58.0921V42.5215C11.0418 41.8948 11.5509 41.3849 12.1772 41.3835H12.1799H14.8206C14.7832 41.6916 14.7736 42.0048 14.7919 42.3219C14.9419 44.9151 17.0083 47.0058 19.5986 47.1851C19.7233 47.1938 19.8475 47.198 19.971 47.198C21.2881 47.198 22.5297 46.7106 23.5001 45.805C24.547 44.8281 25.1473 43.4469 25.1473 42.0156C25.1473 41.8027 25.1347 41.5918 25.1094 41.3834H28.8884V46.4867C28.8884 46.8307 29.0616 47.1514 29.3491 47.3401C29.6365 47.529 29.9998 47.5603 30.3152 47.4234C30.7675 47.2275 31.2501 47.143 31.7507 47.1717C33.3207 47.2625 34.5865 48.5132 34.695 50.081C34.7561 50.9645 34.4593 51.8053 33.8591 52.4485C33.2582 53.0923 32.4427 53.4469 31.5625 53.4469C31.1287 53.4469 30.7091 53.3603 30.3152 53.1897C29.9999 53.0531 29.6366 53.0843 29.3491 53.273C29.0616 53.4618 28.8884 53.7826 28.8884 54.1264V59.2301ZM49.7979 58.0921C49.7979 58.7196 49.2873 59.2301 48.6599 59.2301H30.9302V55.4509C31.1387 55.4762 31.3496 55.4889 31.5625 55.4889C32.9938 55.4889 34.3749 54.8885 35.3518 53.8417C36.3424 52.7802 36.8326 51.3946 36.732 49.9401C36.5527 47.3499 34.4619 45.2835 31.8687 45.1334C31.5516 45.1149 31.2384 45.1246 30.9303 45.162V41.3834H35.7306C35.7053 41.5918 35.6926 41.8027 35.6926 42.0156C35.6926 43.4469 36.293 44.828 37.3398 45.8049C38.4014 46.7955 39.7867 47.286 41.2414 47.185C43.8316 47.0059 45.898 44.915 46.0481 42.3218C46.0665 42.0046 46.0568 41.6915 46.0195 41.3834H48.6629C49.2888 41.3848 49.7981 41.8953 49.7981 42.5213V58.0921H49.7979Z" fill="url(#paint0_linear_1023_186)"/>
<path d="M58.0903 9H40.3607C39.7969 9 39.3398 9.45706 39.3398 10.0209V16.1452C39.3398 16.4891 39.513 16.8099 39.8005 16.9985C40.0879 17.1872 40.4511 17.2185 40.7666 17.0818C41.1604 16.9112 41.58 16.8247 42.0138 16.8247C42.8939 16.8247 43.7095 17.1792 44.3104 17.8231C44.9106 18.4663 45.2075 19.3072 45.1463 20.1907C45.0378 21.7584 43.7721 23.0091 42.202 23.0999C41.7017 23.129 41.219 23.0442 40.7666 22.8483C40.4512 22.7118 40.088 22.743 39.8005 22.9317C39.513 23.1205 39.3398 23.4412 39.3398 23.7851V29.9093C39.3398 30.4732 39.7969 30.9302 40.3607 30.9302H45.1608C45.1355 31.1387 45.1228 31.3496 45.1228 31.5625C45.1228 32.9938 45.7232 34.3749 46.77 35.3518C47.7406 36.2576 48.9819 36.745 50.2992 36.7449C50.4227 36.7449 50.547 36.7406 50.6716 36.732C53.2618 36.5527 55.3282 34.4619 55.4782 31.8687C55.4966 31.5517 55.4869 31.2384 55.4496 30.9303H58.0903C59.8436 30.9303 61.2701 29.5038 61.2701 27.7505V24.8429C61.2701 24.2791 60.813 23.822 60.2492 23.822C59.6853 23.822 59.2283 24.2791 59.2283 24.8429V27.7505C59.2283 28.3781 58.7178 28.8885 58.0903 28.8885H54.1248C53.7809 28.8885 53.4601 29.0617 53.2714 29.3492C53.0827 29.6366 53.0513 29.9999 53.1881 30.3153C53.384 30.7676 53.4688 31.2506 53.4398 31.7508C53.349 33.3208 52.0983 34.5866 50.5306 34.6951C49.6474 34.7556 48.8062 34.4594 48.1631 33.8592C47.5192 33.2583 47.1646 32.4427 47.1646 31.5626C47.1646 31.1288 47.2512 30.7092 47.4218 30.3153C47.5586 29.9998 47.5272 29.6366 47.3385 29.3492C47.1497 29.0617 46.8289 28.8885 46.4851 28.8885H41.3816V25.1098C41.6896 25.1471 42.0029 25.1566 42.3198 25.1384C44.9131 24.9884 47.0039 22.922 47.1832 20.3318C47.2839 18.8773 46.7937 17.4917 45.803 16.4302C44.8262 15.3834 43.445 14.783 42.0137 14.783C41.8008 14.783 41.59 14.7957 41.3815 14.821V11.0418H58.0902C58.7178 11.0418 59.2283 11.5523 59.2283 12.1798V15.6127C59.2283 16.1765 59.6853 16.6336 60.2492 16.6336C60.813 16.6336 61.2701 16.1765 61.2701 15.6127V12.1798C61.2701 10.4265 59.8436 9 58.0903 9Z" fill="url(#paint1_linear_1023_186)"/>
<path d="M61.0976 19.6788C60.8576 19.3126 60.3881 19.1451 59.9691 19.2648C59.5637 19.3806 59.2682 19.7426 59.2321 20.1621C59.1956 20.5857 59.4413 21.0003 59.8278 21.1755C60.2114 21.3492 60.6733 21.2643 60.971 20.9672C61.3117 20.6273 61.3638 20.0784 61.0976 19.6788Z" fill="url(#paint2_linear_1023_186)"/>
<defs>
<linearGradient id="paint0_linear_1023_186" x1="31.8956" y1="19.4531" x2="32.4655" y2="81.7314" gradientUnits="userSpaceOnUse">
<stop offset="0.170916" stop-color="#C2C2C2"/>
<stop offset="1" stop-color="#3E3E3E"/>
</linearGradient>
<linearGradient id="paint1_linear_1023_186" x1="51.0604" y1="9" x2="51.5505" y2="50.3164" gradientUnits="userSpaceOnUse">
<stop offset="0.170916" stop-color="#C2C2C2"/>
<stop offset="1" stop-color="#3E3E3E"/>
</linearGradient>
<linearGradient id="paint2_linear_1023_186" x1="60.3179" y1="19.2266" x2="60.3463" y2="22.262" gradientUnits="userSpaceOnUse">
<stop offset="0.170916" stop-color="#C2C2C2"/>
<stop offset="1" stop-color="#3E3E3E"/>
</linearGradient>
</defs>
</svg>
