<svg width="39" height="36" viewBox="0 0 39 36" fill="none" xmlns="http://www.w3.org/2000/svg">
<path d="M35.8992 17.4563H34.7115V15.8074C33.8875 -4.12792 5.47581 -4.12909 4.65162 15.8074V17.4563H3.46393C2.69714 17.457 1.96196 17.7619 1.41973 18.3041C0.877492 18.8463 0.572492 19.5814 0.571655 20.3482V23.8967C0.572466 24.6635 0.877437 25.3988 1.41966 25.941C1.96188 26.4833 2.69707 26.7884 3.46393 26.7893H4.65162V30.1291C4.65267 31.0777 5.02995 31.9871 5.70068 32.6578C6.37141 33.3285 7.28082 33.7058 8.22938 33.7069H14.3208C14.4502 34.1215 14.7084 34.484 15.0578 34.7419C15.4072 34.9998 15.8297 35.1397 16.2641 35.1412H19.1427C21.8633 35.0812 21.8617 30.9652 19.1426 30.9069H16.2641C15.8297 30.9084 15.407 31.0484 15.0575 31.3064C14.7081 31.5644 14.4499 31.9272 14.3206 32.3419H8.22941C7.64273 32.3412 7.08027 32.1079 6.66543 31.6931C6.25059 31.2782 6.01725 30.7158 6.01661 30.1291V28.5824C7.91314 29.7986 10.7044 28.4879 10.6617 26.1367L10.6618 18.1088C10.6597 17.7102 10.5759 17.3163 10.4155 16.9514C10.2551 16.5865 10.0216 16.2584 9.72938 15.9873C9.43715 15.7163 9.09242 15.508 8.71651 15.3755C8.3406 15.243 7.9415 15.189 7.54389 15.2168C7.00582 15.2186 6.47913 15.3719 6.0241 15.659C6.0613 12.0613 7.51659 8.62361 10.0738 6.09269C12.631 3.56178 16.0836 2.14211 19.6815 2.1421C23.2794 2.1421 26.732 3.56175 29.2892 6.09266C31.8465 8.62358 33.3018 12.0613 33.339 15.659C32.8839 15.3719 32.3572 15.2186 31.8192 15.2168C31.4216 15.189 31.0225 15.243 30.6466 15.3755C30.2706 15.508 29.9259 15.7162 29.6337 15.9873C29.3414 16.2584 29.1079 16.5865 28.9475 16.9514C28.7872 17.3163 28.7034 17.7102 28.7013 18.1088V26.1368C28.7305 26.858 29.0174 27.5449 29.5099 28.0727C30.0024 28.6005 30.6679 28.9341 31.3854 29.0131C32.1029 29.092 32.825 28.9111 33.4205 28.503C34.016 28.095 34.4454 27.4869 34.6307 26.7892L35.8992 26.7893C36.666 26.7884 37.4012 26.4833 37.9434 25.941C38.4857 25.3988 38.7906 24.6635 38.7914 23.8967V20.3482C38.7906 19.5814 38.4856 18.8463 37.9434 18.3041C37.4011 17.7619 36.666 17.457 35.8992 17.4563ZM4.65162 25.4243H3.46393C3.05896 25.4238 2.67072 25.2627 2.3844 24.9763C2.09807 24.6899 1.93704 24.3016 1.93665 23.8967V20.3482C1.93718 19.9433 2.09828 19.5552 2.38459 19.269C2.67091 18.9827 3.05907 18.8217 3.46393 18.8213H4.65162V25.4243ZM16.2641 32.2719H19.1427C19.2439 32.2741 19.3435 32.2981 19.4347 32.3421C19.5259 32.3862 19.6066 32.4493 19.6713 32.5272C19.736 32.6051 19.7832 32.696 19.8097 32.7937C19.8363 32.8915 19.8415 32.9938 19.8251 33.0937C19.825 33.2747 19.753 33.4481 19.6251 33.5761C19.4971 33.7041 19.3236 33.776 19.1427 33.7762H16.2641C16.1628 33.774 16.0632 33.75 15.972 33.706C15.8809 33.6619 15.8002 33.5988 15.7355 33.5209C15.6708 33.443 15.6235 33.3521 15.597 33.2544C15.5704 33.1566 15.5652 33.0543 15.5816 32.9544C15.5818 32.7734 15.6537 32.6 15.7817 32.472C15.9096 32.344 16.0831 32.2721 16.2641 32.2719ZM7.54391 16.5818C7.76161 16.5547 7.98259 16.5737 8.19242 16.6378C8.40225 16.7018 8.5962 16.8094 8.76163 16.9535C8.92705 17.0976 9.06022 17.275 9.15244 17.4741C9.24466 17.6731 9.29385 17.8894 9.29681 18.1088V26.1368C9.27952 28.1744 6.03435 28.1771 6.01661 26.1367C6.0114 26.1252 6.02036 18.1573 6.01661 18.1388C6.01303 17.9358 6.04987 17.7342 6.12498 17.5456C6.2001 17.357 6.31199 17.1853 6.45414 17.0404C6.59628 16.8955 6.76584 16.7803 6.95294 16.7016C7.14004 16.6229 7.34093 16.5821 7.54391 16.5818ZM33.3465 26.1368C33.3435 26.3561 33.2943 26.5724 33.2021 26.7715C33.1099 26.9705 32.9767 27.1479 32.8113 27.292C32.6459 27.4361 32.4519 27.5437 32.2421 27.6077C32.0322 27.6718 31.8113 27.6908 31.5936 27.6637C31.1887 27.6632 30.8005 27.5023 30.5142 27.216C30.2279 26.9298 30.0668 26.5416 30.0663 26.1368V18.1088C30.0668 17.7039 30.2279 17.3158 30.5142 17.0295C30.8005 16.7433 31.1887 16.5823 31.5936 16.5818C31.8138 16.5544 32.0373 16.5742 32.2492 16.6401C32.4611 16.7059 32.6565 16.8162 32.8224 16.9635C32.9884 17.1109 33.1209 17.2919 33.2113 17.4946C33.3017 17.6973 33.3477 17.9169 33.3465 18.1388C33.3465 18.1388 33.3514 26.108 33.3465 26.1368ZM37.4264 23.8967C37.4261 24.3016 37.265 24.6899 36.9787 24.9763C36.6924 25.2627 36.3041 25.4238 35.8992 25.4243H34.7115C34.7137 23.8211 34.7099 20.3994 34.7115 18.8213H35.8992C36.3041 18.8217 36.6922 18.9827 36.9785 19.269C37.2648 19.5552 37.4259 19.9434 37.4264 20.3482V23.8967Z" fill="url(#paint0_linear_771_13931)"/>
<path d="M19.6812 9.96094C18.3834 9.95973 17.1148 10.3454 16.0372 11.0687C14.9597 11.792 14.1223 12.82 13.6318 14.0216C13.1414 15.2231 13.0203 16.5436 13.2839 17.8143C13.5476 19.085 14.1841 20.2482 15.112 21.1555V24.9779C15.1141 25.1115 15.1551 25.2416 15.2299 25.3522C15.3048 25.4629 15.4103 25.5494 15.5336 25.601C15.6568 25.6526 15.7924 25.6672 15.9238 25.6429C16.0552 25.6187 16.1767 25.5566 16.2734 25.4644L18.8101 22.9677C19.6968 23.0871 20.5986 23.0231 21.4595 22.7796C22.3205 22.5362 23.1222 22.1185 23.8151 21.5524C24.508 20.9863 25.0771 20.2839 25.4874 19.4888C25.8976 18.6937 26.1401 17.8228 26.1999 16.9301C26.2597 16.0374 26.1355 15.1419 25.835 14.2992C25.5344 13.4564 25.064 12.6844 24.4528 12.031C23.8416 11.3776 23.1027 10.8567 22.2819 10.5006C21.4611 10.1445 20.5759 9.96084 19.6812 9.96094ZM18.7071 21.5674C18.5985 21.5468 18.4866 21.5528 18.3808 21.5849C18.275 21.6169 18.1785 21.674 18.0996 21.7513L16.477 23.3483V20.8596C16.477 20.7634 16.4567 20.6683 16.4174 20.5805C16.378 20.4928 16.3206 20.4143 16.2487 20.3504C15.7042 19.8661 15.2681 19.2723 14.969 18.6079C14.6699 17.9434 14.5144 17.2233 14.5128 16.4947C14.7545 9.65549 24.6076 9.65415 24.8496 16.4947C24.8502 17.2561 24.6825 18.0082 24.3583 18.6971C24.0341 19.386 23.5616 19.9947 22.9745 20.4795C22.3875 20.9643 21.7004 21.3133 20.9626 21.5014C20.2249 21.6894 19.4546 21.712 18.7071 21.5674Z" fill="url(#paint1_linear_771_13931)"/>
<path d="M17.2216 15.8984C17.0334 15.9012 16.8539 15.9778 16.7218 16.1119C16.5897 16.2459 16.5157 16.4265 16.5157 16.6147C16.5157 16.8029 16.5897 16.9836 16.7218 17.1176C16.8539 17.2516 17.0335 17.3283 17.2217 17.331C17.4098 17.3283 17.5894 17.2516 17.7215 17.1176C17.8536 16.9835 17.9276 16.8029 17.9276 16.6147C17.9276 16.4265 17.8536 16.2459 17.7214 16.1118C17.5893 15.9778 17.4098 15.9012 17.2216 15.8984Z" fill="url(#paint2_linear_771_13931)"/>
<path d="M19.681 15.8984C19.4928 15.9012 19.3133 15.9778 19.1812 16.1119C19.0491 16.2459 18.975 16.4265 18.975 16.6147C18.975 16.8029 19.0491 16.9836 19.1812 17.1176C19.3133 17.2516 19.4928 17.3283 19.681 17.331C19.8692 17.3283 20.0487 17.2516 20.1808 17.1176C20.3129 16.9835 20.387 16.8029 20.387 16.6147C20.387 16.4265 20.3129 16.2459 20.1808 16.1118C20.0487 15.9778 19.8691 15.9012 19.681 15.8984Z" fill="url(#paint3_linear_771_13931)"/>
<path d="M22.1409 15.8984C21.9527 15.9012 21.7732 15.9778 21.6411 16.1119C21.509 16.2459 21.4349 16.4265 21.4349 16.6147C21.4349 16.8029 21.509 16.9836 21.6411 17.1176C21.7732 17.2516 21.9527 17.3283 22.1409 17.331C22.3291 17.3283 22.5086 17.2516 22.6407 17.1176C22.7728 16.9835 22.8469 16.8029 22.8469 16.6147C22.8469 16.4265 22.7728 16.2459 22.6407 16.1118C22.5086 15.9778 22.329 15.9012 22.1409 15.8984Z" fill="url(#paint4_linear_771_13931)"/>
<defs>
<linearGradient id="paint0_linear_771_13931" x1="20.9981" y1="0.855465" x2="21.4276" y2="51.9159" gradientUnits="userSpaceOnUse">
<stop offset="0.170916" stop-color="#C2C2C2"/>
<stop offset="1" stop-color="#3E3E3E"/>
</linearGradient>
<linearGradient id="paint1_linear_771_13931" x1="20.1313" y1="9.96094" x2="20.3945" y2="33.3312" gradientUnits="userSpaceOnUse">
<stop offset="0.170916" stop-color="#C2C2C2"/>
<stop offset="1" stop-color="#3E3E3E"/>
</linearGradient>
<linearGradient id="paint2_linear_771_13931" x1="17.2703" y1="15.8984" x2="17.2906" y2="18.0319" gradientUnits="userSpaceOnUse">
<stop offset="0.170916" stop-color="#C2C2C2"/>
<stop offset="1" stop-color="#3E3E3E"/>
</linearGradient>
<linearGradient id="paint3_linear_771_13931" x1="19.7296" y1="15.8984" x2="19.7499" y2="18.0319" gradientUnits="userSpaceOnUse">
<stop offset="0.170916" stop-color="#C2C2C2"/>
<stop offset="1" stop-color="#3E3E3E"/>
</linearGradient>
<linearGradient id="paint4_linear_771_13931" x1="22.1895" y1="15.8984" x2="22.2098" y2="18.0319" gradientUnits="userSpaceOnUse">
<stop offset="0.170916" stop-color="#C2C2C2"/>
<stop offset="1" stop-color="#3E3E3E"/>
</linearGradient>
</defs>
</svg>
