<svg width="50" height="50" viewBox="0 0 50 50" fill="none" xmlns="http://www.w3.org/2000/svg">
<path fill-rule="evenodd" clip-rule="evenodd" d="M7 18.4702C7 8.28553 15.2855 0 25.4702 0C35.6549 0 43.9405 8.28553 43.9405 18.4702C43.9405 21.8242 42.4378 25.4302 42.3748 25.5813C41.8892 26.734 40.932 28.5246 40.2399 29.5741L27.5747 48.7636C27.0565 49.5491 26.2894 50 25.4702 50C24.651 50 23.884 49.5491 23.3657 48.7625L10.7017 29.5741C10.0106 28.5246 9.05237 26.734 8.56671 25.5813L8.5654 25.5781C8.4854 25.3852 7 21.8027 7 18.4702ZM38.4255 28.3779C39.0458 27.437 39.9378 25.7714 40.3714 24.7382C40.3855 24.7056 41.7675 21.3777 41.7675 18.4702C41.7675 9.48392 34.4565 2.17297 25.4702 2.17297C16.4839 2.17297 9.17297 9.48392 9.17297 18.4702C9.17297 21.3681 10.5468 24.6806 10.5701 24.7368L10.5702 24.7371C11.0037 25.7703 11.8957 27.437 12.5161 28.3779L25.1812 47.5674C25.4311 47.9465 25.5104 47.9465 25.7603 47.5674L38.4255 28.3779ZM15.6919 18.4713C15.6919 13.0802 20.078 8.69293 25.4702 8.69293C30.8624 8.69293 35.2486 13.0802 35.2486 18.4713C35.2486 23.8624 30.8624 28.2496 25.4702 28.2496C20.078 28.2496 15.6919 23.8624 15.6919 18.4713ZM17.8648 18.4713C17.8648 22.6651 21.2775 26.0767 25.4702 26.0767C29.663 26.0767 33.0756 22.6651 33.0756 18.4713C33.0756 14.2775 29.663 10.8659 25.4702 10.8659C21.2775 10.8659 17.8648 14.2775 17.8648 18.4713Z" fill="url(#paint0_linear_1156_302)"/>
<defs>
<linearGradient id="paint0_linear_1156_302" x1="26.7427" y1="-5.07971e-06" x2="27.6876" y2="74.4563" gradientUnits="userSpaceOnUse">
<stop offset="0.170916" stop-color="#C2C2C2"/>
<stop offset="1" stop-color="#3E3E3E"/>
</linearGradient>
</defs>
</svg>
