<svg width="124" height="124" viewBox="0 0 124 124" fill="none" xmlns="http://www.w3.org/2000/svg">
<path d="M92.3571 69.4821C91.3714 69.4821 90.5714 70.2821 90.5714 71.2679V106.643C90.5714 107.625 89.7679 108.429 88.7857 108.429H17.3571C16.3714 108.429 15.5714 107.625 15.5714 106.643V44.1429H78.0714C79.0571 44.1429 79.8571 43.3429 79.8571 42.3571C79.8571 41.3714 79.0571 40.5714 78.0714 40.5714H15.5714V37H85.2143C86.2 37 87 36.2 87 35.2143C87 34.2286 86.2 33.4286 85.2143 33.4286H15.5714V24.5C15.5714 23.5179 16.3714 22.7143 17.3571 22.7143H19.1429V24.5C19.1429 27.4536 21.5464 29.8571 24.5 29.8571C27.4536 29.8571 29.8571 27.4536 29.8571 24.5V22.7143H33.4286V24.5C33.4286 27.4536 35.8321 29.8571 38.7857 29.8571C41.7393 29.8571 44.1429 27.4536 44.1429 24.5V22.7143H47.7143V24.5C47.7143 27.4536 50.1179 29.8571 53.0714 29.8571C56.025 29.8571 58.4286 27.4536 58.4286 24.5V22.7143H62V24.5C62 27.4536 64.4036 29.8571 67.3571 29.8571C70.3107 29.8571 72.7143 27.4536 72.7143 24.5V22.7143H76.2857V24.5C76.2857 27.4536 78.6893 29.8571 81.6429 29.8571C84.5964 29.8571 87 27.4536 87 24.5V22.7143H88.7857C89.7679 22.7143 90.5714 23.5179 90.5714 24.5V28.0714C90.5714 29.0571 91.3714 29.8571 92.3571 29.8571C93.3428 29.8571 94.1429 29.0571 94.1429 28.0714V24.5C94.1429 21.5464 91.7393 19.1429 88.7857 19.1429H87V17.3571C87 14.4036 84.5964 12 81.6429 12C78.6893 12 76.2857 14.4036 76.2857 17.3571V19.1429H72.7143V17.3571C72.7143 14.4036 70.3107 12 67.3571 12C64.4036 12 62 14.4036 62 17.3571V19.1429H58.4286V17.3571C58.4286 14.4036 56.025 12 53.0714 12C50.1179 12 47.7143 14.4036 47.7143 17.3571V19.1429H44.1429V17.3571C44.1429 14.4036 41.7393 12 38.7857 12C35.8321 12 33.4286 14.4036 33.4286 17.3571V19.1429H29.8571V17.3571C29.8571 14.4036 27.4536 12 24.5 12C21.5464 12 19.1429 14.4036 19.1429 17.3571V19.1429H17.3571C14.4036 19.1429 12 21.5464 12 24.5V35.2143V42.3571V106.643C12 109.596 14.4036 112 17.3571 112H88.7857C91.7393 112 94.1429 109.596 94.1429 106.643V71.2679C94.1429 70.2786 93.3428 69.4821 92.3571 69.4821ZM79.8571 17.3571C79.8571 16.375 80.6607 15.5714 81.6429 15.5714C82.625 15.5714 83.4286 16.375 83.4286 17.3571V24.5C83.4286 25.4821 82.625 26.2857 81.6429 26.2857C80.6607 26.2857 79.8571 25.4821 79.8571 24.5V17.3571ZM65.5714 17.3571C65.5714 16.375 66.375 15.5714 67.3571 15.5714C68.3393 15.5714 69.1429 16.375 69.1429 17.3571V24.5C69.1429 25.4821 68.3393 26.2857 67.3571 26.2857C66.375 26.2857 65.5714 25.4821 65.5714 24.5V17.3571ZM51.2857 17.3571C51.2857 16.375 52.0857 15.5714 53.0714 15.5714C54.0571 15.5714 54.8571 16.375 54.8571 17.3571V24.5C54.8571 25.4821 54.0571 26.2857 53.0714 26.2857C52.0857 26.2857 51.2857 25.4821 51.2857 24.5V17.3571ZM38.7857 15.5714C39.7714 15.5714 40.5714 16.375 40.5714 17.3571V24.5C40.5714 25.4821 39.7714 26.2857 38.7857 26.2857C37.8 26.2857 37 25.4821 37 24.5V20.9357V20.9286V20.9214V17.3571C37 16.375 37.8 15.5714 38.7857 15.5714ZM22.7143 17.3571C22.7143 16.375 23.5143 15.5714 24.5 15.5714C25.4857 15.5714 26.2857 16.375 26.2857 17.3571V24.5C26.2857 25.4821 25.4857 26.2857 24.5 26.2857C23.5143 26.2857 22.7143 25.4821 22.7143 24.5V17.3571Z" fill="url(#paint0_linear_1023_173)"/>
<path d="M108.954 28.1229L106.029 26.0801C104.468 24.9837 102.571 24.5658 100.689 24.8944C98.8107 25.2265 97.175 26.2694 96.0821 27.8301L93.0179 32.2051L93.0071 32.2158L60.2322 79.0229C60.175 79.1051 60.1572 79.2015 60.1143 79.2908C60.075 79.3729 60.0143 79.4408 59.9857 79.5301L53.375 101.427C53.15 102.166 53.4286 102.966 54.0607 103.405C54.3679 103.623 54.7286 103.73 55.0857 103.73C55.4607 103.73 55.8393 103.612 56.1536 103.373L74.4679 89.6729C74.5429 89.6158 74.5857 89.5337 74.65 89.4658C74.7179 89.3979 74.8 89.3479 74.8572 89.2658L110.707 38.0765C112.968 34.8479 112.182 30.3837 108.954 28.1229ZM64.1607 92.9229C62.8893 92.0444 61.6393 91.1729 60.45 90.3408L62.6893 82.9265L66.5143 85.6051L66.5179 85.6087H66.5214L70.35 88.2908L64.1607 92.9229ZM94.9107 35.7301L97.8357 37.7801L67.1072 81.6622L64.1822 79.6122L94.9107 35.7301ZM70.0322 83.7087L100.757 39.8265L103.686 41.8765L72.9572 85.7587L70.0322 83.7087ZM59.3643 93.9372C59.9607 94.3515 60.5322 94.7515 61.1464 95.1765L58.3607 97.2587L59.3643 93.9372ZM107.782 36.0265L105.732 38.9515L96.9572 32.8051L99.0072 29.8765C99.55 29.0944 100.371 28.5765 101.311 28.4087C102.243 28.2515 103.196 28.4515 103.979 29.0051L106.904 31.0479C108.518 32.1801 108.914 34.4122 107.782 36.0265Z" fill="url(#paint1_linear_1023_173)"/>
<path d="M20.9283 54.8566H35.214C36.1997 54.8566 36.9997 54.0566 36.9997 53.0709C36.9997 52.0852 36.1997 51.2852 35.214 51.2852H20.9283C19.9426 51.2852 19.1426 52.0852 19.1426 53.0709C19.1426 54.0566 19.9426 54.8566 20.9283 54.8566Z" fill="url(#paint2_linear_1023_173)"/>
<path d="M66.0247 63.7857C66.0247 62.8 65.2283 62 64.239 62H20.9283C19.9426 62 19.1426 62.8 19.1426 63.7857C19.1426 64.7714 19.9426 65.5714 20.9283 65.5714H64.239C65.2283 65.5714 66.0247 64.7714 66.0247 63.7857Z" fill="url(#paint3_linear_1023_173)"/>
<path d="M58.6497 74.5006C58.6497 73.5148 57.8497 72.7148 56.864 72.7148H20.9283C19.9426 72.7148 19.1426 73.5148 19.1426 74.5006C19.1426 75.4863 19.9426 76.2863 20.9283 76.2863H56.864C57.8497 76.2863 58.6497 75.4863 58.6497 74.5006Z" fill="url(#paint4_linear_1023_173)"/>
<path d="M54.7819 85.2154C54.7819 84.2297 53.9819 83.4297 52.9962 83.4297H20.9283C19.9426 83.4297 19.1426 84.2297 19.1426 85.2154C19.1426 86.2011 19.9426 87.0011 20.9283 87.0011H52.9962C53.9819 87.0011 54.7819 86.2011 54.7819 85.2154Z" fill="url(#paint5_linear_1023_173)"/>
<path d="M20.9283 94.1445C19.9426 94.1445 19.1426 94.9445 19.1426 95.9302C19.1426 96.916 19.9426 97.716 20.9283 97.716H49.439C50.4247 97.716 51.2247 96.916 51.2247 95.9302C51.2247 94.9445 50.4247 94.1445 49.439 94.1445H20.9283Z" fill="url(#paint6_linear_1023_173)"/>
<defs>
<linearGradient id="paint0_linear_1023_173" x1="55.9011" y1="12" x2="57.6007" y2="160.917" gradientUnits="userSpaceOnUse">
<stop offset="0.170916" stop-color="#C2C2C2"/>
<stop offset="1" stop-color="#3E3E3E"/>
</linearGradient>
<linearGradient id="paint1_linear_1023_173" x1="84.67" y1="24.7851" x2="86.1523" y2="142.344" gradientUnits="userSpaceOnUse">
<stop offset="0.170916" stop-color="#C2C2C2"/>
<stop offset="1" stop-color="#3E3E3E"/>
</linearGradient>
<linearGradient id="paint2_linear_1023_173" x1="28.6863" y1="51.2852" x2="28.6963" y2="56.6043" gradientUnits="userSpaceOnUse">
<stop offset="0.170916" stop-color="#C2C2C2"/>
<stop offset="1" stop-color="#3E3E3E"/>
</linearGradient>
<linearGradient id="paint3_linear_1023_173" x1="44.1986" y1="62" x2="44.2024" y2="67.3192" gradientUnits="userSpaceOnUse">
<stop offset="0.170916" stop-color="#C2C2C2"/>
<stop offset="1" stop-color="#3E3E3E"/>
</linearGradient>
<linearGradient id="paint4_linear_1023_173" x1="40.2571" y1="72.7148" x2="40.2616" y2="78.034" gradientUnits="userSpaceOnUse">
<stop offset="0.170916" stop-color="#C2C2C2"/>
<stop offset="1" stop-color="#3E3E3E"/>
</linearGradient>
<linearGradient id="paint5_linear_1023_173" x1="38.1899" y1="83.4297" x2="38.1949" y2="88.7488" gradientUnits="userSpaceOnUse">
<stop offset="0.170916" stop-color="#C2C2C2"/>
<stop offset="1" stop-color="#3E3E3E"/>
</linearGradient>
<linearGradient id="paint6_linear_1023_173" x1="36.2888" y1="94.1445" x2="36.2944" y2="99.4637" gradientUnits="userSpaceOnUse">
<stop offset="0.170916" stop-color="#C2C2C2"/>
<stop offset="1" stop-color="#3E3E3E"/>
</linearGradient>
</defs>
</svg>
