<svg width="15" height="16" viewBox="0 0 15 16" fill="none" xmlns="http://www.w3.org/2000/svg">
<g clip-path="url(#clip0_1153_37)">
<path d="M7.36061 10.678C10.0234 10.678 12.182 8.51939 12.182 5.85659C12.182 3.19378 10.0234 1.03516 7.36061 1.03516C4.69781 1.03516 2.53918 3.19378 2.53918 5.85659C2.53918 8.51939 4.69781 10.678 7.36061 10.678Z" stroke="white" stroke-width="0.6" stroke-linecap="round" stroke-linejoin="round"/>
<path d="M7.36063 8.00056C8.5441 8.00056 9.50349 7.04117 9.50349 5.8577C9.50349 4.67423 8.5441 3.71484 7.36063 3.71484C6.17716 3.71484 5.21777 4.67423 5.21777 5.8577C5.21777 7.04117 6.17716 8.00056 7.36063 8.00056Z" stroke="white" stroke-width="0.6" stroke-linecap="round" stroke-linejoin="round"/>
<path d="M6.42851 10.5917L5.48565 14.556C5.467 14.6314 5.4325 14.7019 5.38447 14.7628C5.33643 14.8238 5.27596 14.8738 5.20708 14.9096C5.13438 14.9412 5.05598 14.9574 4.97673 14.9574C4.89747 14.9574 4.81907 14.9412 4.74637 14.9096L1.18923 13.356C1.11461 13.3208 1.04896 13.269 0.997193 13.2048C0.945427 13.1405 0.908894 13.0653 0.890336 12.9849C0.871778 12.9045 0.871678 12.8209 0.890042 12.7404C0.908406 12.66 0.944758 12.5847 0.996369 12.5203L3.74994 9.07031" stroke="white" stroke-width="0.6" stroke-linecap="round" stroke-linejoin="round"/>
<path d="M8.57141 10.5386L9.5357 14.5565C9.55487 14.6331 9.59075 14.7045 9.64076 14.7656C9.69077 14.8268 9.75368 14.8761 9.82498 14.91C9.89569 14.942 9.97239 14.9585 10.05 14.9585C10.1276 14.9585 10.2043 14.942 10.275 14.91L13.8107 13.3565C13.8864 13.3216 13.953 13.2696 14.0051 13.2045C14.0572 13.1394 14.0933 13.063 14.1107 12.9815C14.131 12.9017 14.1319 12.8182 14.1132 12.7381C14.0946 12.6579 14.057 12.5834 14.0036 12.5208L11.1321 8.86719" stroke="white" stroke-width="0.6" stroke-linecap="round" stroke-linejoin="round"/>
</g>
<defs>
<clipPath id="clip0_1153_37">
<rect width="15" height="15" fill="white" transform="translate(0 0.5)"/>
</clipPath>
</defs>
</svg>
