<svg width="61" height="61" viewBox="0 0 61 61" fill="none" xmlns="http://www.w3.org/2000/svg">
<path d="M24.4822 18.5747H25.4197V10.6641H24.4822C19.4348 10.671 14.5961 12.6794 11.0274 16.2488C7.45872 19.8182 5.45127 24.6573 5.44531 29.7047V50.5359H27.2122V28.7672H13.3897C13.6285 25.9886 14.9001 23.4005 16.9536 21.5136C19.0071 19.6267 21.6934 18.5781 24.4822 18.5747ZM25.3372 30.6441V48.6628H7.32031V29.7047C7.32546 25.316 9.00938 21.0955 12.0268 17.9086C15.0442 14.7217 19.1665 12.81 23.5484 12.5653V16.7259C20.2712 16.9663 17.206 18.4368 14.9676 20.8425C12.7292 23.2482 11.483 26.4112 11.4791 29.6972V30.6347L25.3372 30.6441Z" fill="#C2C2C2"/>
<path d="M41.5028 28.7672C41.7411 25.9883 43.0126 23.3997 45.0662 21.5124C47.1197 19.6251 49.8062 18.5762 52.5953 18.5728H53.5328V10.6641H52.5953C47.5471 10.6695 42.7072 12.6773 39.1376 16.247C35.568 19.8166 33.5601 24.6565 33.5547 29.7047V50.5359H55.3197V28.7672H41.5028ZM53.4447 48.6628H35.4259V29.7047C35.4311 25.3163 37.1147 21.096 40.1318 17.9092C43.1488 14.7224 47.2706 12.8104 51.6522 12.5653V16.7259C48.375 16.9663 45.3098 18.4368 43.0714 20.8425C40.8329 23.2482 39.5868 26.4112 39.5828 29.6972V30.6347H53.4447V48.6628Z" fill="#C2C2C2"/>
</svg>
