<svg width="198" height="198" viewBox="0 0 198 198" fill="none" xmlns="http://www.w3.org/2000/svg">
<path d="M100.739 13.7001C100.884 12.4847 101.295 11.428 101.97 10.5298C102.657 9.63302 103.516 8.97424 104.545 8.55344C105.587 8.12214 106.687 7.97558 107.842 8.11375C109.165 8.27186 110.299 8.73983 111.246 9.51767C112.205 10.285 112.846 11.2922 113.169 12.5393L110.72 12.2466C110.477 11.5528 110.088 11.0108 109.555 10.6208C109.021 10.2307 108.379 9.99076 107.629 9.90102C106.807 9.80274 106.052 9.89982 105.364 10.1923C104.676 10.4847 104.107 10.9544 103.655 11.6013C103.215 12.2497 102.94 13.0326 102.83 13.9501C102.72 14.8675 102.803 15.6932 103.078 16.427C103.365 17.1622 103.807 17.7589 104.405 18.2171C105.004 18.6634 105.715 18.9357 106.537 19.034C107.287 19.1237 107.968 19.0419 108.578 18.7886C109.189 18.5353 109.694 18.1002 110.094 17.4833L112.543 17.776C111.935 18.912 111.075 19.7397 109.962 20.2592C108.86 20.7801 107.648 20.9615 106.325 20.8034C105.158 20.6638 104.123 20.2682 103.222 19.6167C102.323 18.9532 101.645 18.1047 101.188 17.0712C100.743 16.0391 100.594 14.9154 100.739 13.7001Z" fill="#B7AAAA"/>
<path d="M124.532 24.7752C123.443 24.3645 122.533 23.733 121.803 22.8806C121.088 22.0212 120.633 21.0351 120.437 19.9224C120.256 18.8027 120.382 17.6702 120.813 16.5249C121.245 15.3796 121.896 14.4517 122.767 13.7411C123.649 13.0348 124.64 12.6005 125.74 12.4381C126.855 12.2687 127.958 12.3893 129.047 12.8C130.147 13.2148 131.055 13.852 131.769 14.7114C132.5 15.5638 132.957 16.5442 133.142 17.6527C133.327 18.7612 133.203 19.8881 132.772 21.0334C132.34 22.1787 131.687 23.1122 130.812 23.834C129.941 24.5445 128.948 24.9845 127.833 25.1539C126.733 25.3163 125.632 25.19 124.532 24.7752ZM125.161 23.1077C125.935 23.3998 126.691 23.4861 127.429 23.3667C128.171 23.2359 128.833 22.9085 129.415 22.3842C130.013 21.853 130.475 21.155 130.801 20.2904C131.127 19.4258 131.239 18.6023 131.136 17.8198C131.045 17.0416 130.762 16.3641 130.287 15.7874C129.811 15.2107 129.187 14.7763 128.412 14.4842C127.637 14.1921 126.881 14.1058 126.143 14.2253C125.406 14.3448 124.74 14.6646 124.146 15.1846C123.564 15.7088 123.11 16.4033 122.784 17.2679C122.458 18.1324 122.339 18.9595 122.426 19.749C122.528 20.5314 122.815 21.2166 123.286 21.8046C123.761 22.3812 124.386 22.8156 125.161 23.1077Z" fill="#B7AAAA"/>
<path d="M145.395 35.5664L143.691 34.423L143.77 23.2255L138.565 30.983L136.861 29.8396L143.841 19.4365L145.545 20.5799L145.477 31.7625L150.672 24.0199L152.376 25.1633L145.395 35.5664Z" fill="#B7AAAA"/>
<path d="M165.222 36.5344L164.042 37.7217L161.68 35.3743L154.041 43.0602L152.586 41.6137L160.225 33.9278L157.85 31.5678L159.03 30.3804L165.222 36.5344Z" fill="#B7AAAA"/>
<path d="M166.307 53.9219L163.343 49.6036L160.726 50.3083L159.514 48.5424L172.379 45.1468L173.723 47.1056L165.932 57.8913L164.709 56.1105L166.307 53.9219ZM167.361 52.4996L171.003 47.5321L165.049 49.131L167.361 52.4996Z" fill="#B7AAAA"/>
<path d="M174.61 59.9017C175.748 59.4503 176.872 59.3074 177.984 59.4731C179.1 59.65 180.088 60.0905 180.948 60.7948C181.824 61.5058 182.477 62.4023 182.906 63.4842C183.398 64.7223 183.527 65.9427 183.294 67.1453C183.077 68.3547 182.497 69.3982 181.554 70.2759L180.645 67.9838C181.139 67.4392 181.43 66.8394 181.519 66.1845C181.607 65.5296 181.512 64.8508 181.233 64.1481C180.928 63.3785 180.483 62.7612 179.898 62.2961C179.313 61.831 178.629 61.5539 177.845 61.4649C177.065 61.387 176.246 61.5184 175.387 61.8592C174.528 62.2001 173.842 62.6661 173.327 63.2575C172.818 63.86 172.504 64.5332 172.386 65.2771C172.279 66.0167 172.379 66.7712 172.684 67.5409C172.963 68.2435 173.359 68.8028 173.873 69.2187C174.386 69.6346 175.01 69.8714 175.743 69.9291L176.652 72.2212C175.364 72.2288 174.226 71.867 173.239 71.1356C172.256 70.4154 171.519 69.4362 171.028 68.1981C170.594 67.1051 170.449 66.0072 170.592 64.9046C170.747 63.7975 171.169 62.797 171.86 61.9031C172.556 61.0203 173.472 60.3532 174.61 59.9017Z" fill="#B7AAAA"/>
<path d="M189.025 86.1655L187.376 86.4547L186.801 83.1748L176.128 85.0471L175.773 83.026L186.446 81.1537L185.868 77.856L187.517 77.5668L189.025 86.1655Z" fill="#B7AAAA"/>
<path d="M189.859 103.248L181.922 102.485C180.978 102.395 180.244 102.571 179.719 103.015C179.193 103.471 178.887 104.141 178.802 105.025C178.716 105.92 178.889 106.636 179.319 107.172C179.749 107.719 180.435 108.039 181.379 108.129L189.317 108.892L189.12 110.935L181.219 110.175C180.203 110.078 179.364 109.774 178.702 109.264C178.04 108.755 177.571 108.113 177.296 107.339C177.021 106.565 176.926 105.73 177.012 104.834C177.098 103.939 177.35 103.137 177.768 102.43C178.184 101.734 178.766 101.205 179.512 100.843C180.258 100.481 181.138 100.349 182.154 100.446L190.055 101.206L189.859 103.248Z" fill="#B7AAAA"/>
<path d="M174.314 120.137C174.556 119.332 174.911 118.649 175.379 118.088C175.86 117.531 176.413 117.146 177.041 116.933C177.669 116.72 178.327 116.717 179.017 116.923L178.386 119.027C177.855 118.918 177.37 118.992 176.93 119.248C176.486 119.516 176.166 119.978 175.97 120.633C175.766 121.311 175.769 121.888 175.977 122.364C176.197 122.843 176.565 123.16 177.083 123.315C177.485 123.436 177.849 123.413 178.174 123.248C178.496 123.094 178.779 122.859 179.024 122.544C179.265 122.241 179.559 121.803 179.906 121.23C180.347 120.51 180.745 119.934 181.1 119.502C181.463 119.085 181.921 118.771 182.472 118.56C183.024 118.35 183.673 118.357 184.421 118.58C185.11 118.787 185.662 119.14 186.076 119.64C186.49 120.14 186.742 120.742 186.832 121.445C186.922 122.149 186.844 122.908 186.6 123.724C186.252 124.885 185.674 125.746 184.868 126.306C184.069 126.881 183.152 127.057 182.116 126.834L182.767 124.662C183.214 124.758 183.65 124.663 184.074 124.377C184.498 124.091 184.803 123.637 184.989 123.016C185.158 122.453 185.152 121.95 184.971 121.508C184.791 121.065 184.43 120.763 183.89 120.601C183.522 120.491 183.185 120.509 182.878 120.655C182.579 120.816 182.309 121.048 182.068 121.352C181.827 121.655 181.536 122.082 181.196 122.631C180.74 123.359 180.329 123.937 179.962 124.366C179.592 124.806 179.126 125.13 178.562 125.337C178.007 125.559 177.35 125.556 176.592 125.329C175.983 125.147 175.458 124.808 175.017 124.312C174.574 123.829 174.28 123.221 174.136 122.489C174 121.771 174.06 120.987 174.314 120.137Z" fill="#B7AAAA"/>
<path d="M162.937 144.359L164.051 142.636L175.248 142.521L167.402 137.45L168.516 135.727L179.038 142.527L177.924 144.25L166.742 144.375L174.573 149.436L173.459 151.159L162.937 144.359Z" fill="#B7AAAA"/>
<path d="M154.779 153.831C155.616 153.022 156.576 152.47 157.659 152.175C158.742 151.896 159.828 151.907 160.917 152.206C162.007 152.521 162.976 153.119 163.827 154C164.677 154.88 165.237 155.866 165.507 156.956C165.768 158.056 165.737 159.137 165.413 160.201C165.089 161.282 164.508 162.226 163.671 163.035C162.825 163.852 161.861 164.4 160.779 164.678C159.696 164.974 158.614 164.968 157.533 164.661C156.452 164.353 155.486 163.76 154.636 162.879C153.785 161.999 153.221 161.009 152.943 159.91C152.673 158.819 152.7 157.733 153.025 156.652C153.348 155.589 153.933 154.648 154.779 153.831ZM156.017 155.113C155.422 155.688 155.02 156.334 154.813 157.052C154.613 157.779 154.626 158.517 154.851 159.268C155.075 160.036 155.508 160.752 156.15 161.416C156.792 162.081 157.489 162.534 158.24 162.776C158.983 163.026 159.716 163.06 160.441 162.878C161.165 162.695 161.825 162.316 162.421 161.741C163.016 161.165 163.418 160.519 163.625 159.801C163.833 159.083 163.828 158.345 163.612 157.586C163.388 156.835 162.954 156.127 162.312 155.463C161.67 154.798 160.974 154.337 160.223 154.078C159.472 153.835 158.73 153.801 157.997 153.976C157.273 154.158 156.613 154.537 156.017 155.113Z" fill="#B7AAAA"/>
<path d="M136.631 181.954L133.926 169.19L135.967 168.083L142.791 175.152L140.729 165.5L142.746 164.385L151.836 173.707L149.922 174.745L142.786 167.026L145.175 177.32L143.15 178.418L136.024 170.755L138.562 180.907L136.631 181.954Z" fill="#B7AAAA"/>
<path d="M114.363 188.312L113.3 187.047L115.553 185.688L112.959 185.243L113.499 183.639L115.816 184.85L114.96 182.356L116.587 182.048L116.736 184.677L118.445 182.668L119.578 184.012L117.343 185.368L119.912 185.78L119.372 187.384L117.002 186.183L117.844 188.699L116.199 189.01L116.1 186.354L114.363 188.312Z" fill="#B7AAAA"/>
<path d="M99.453 184.089C99.344 185.308 98.9654 186.376 98.3171 187.294C97.6568 188.211 96.8185 188.895 95.8023 189.346C94.7731 189.808 93.6788 189.988 92.5194 189.884C91.1927 189.765 90.0448 189.332 89.0756 188.582C88.0935 187.844 87.4228 186.856 87.0635 185.619L89.5197 185.839C89.7836 186.525 90.188 187.055 90.7329 187.429C91.2778 187.803 91.9267 188.024 92.6797 188.091C93.5044 188.165 94.256 188.045 94.9346 187.733C95.6131 187.42 96.1687 186.933 96.6012 186.273C97.0217 185.612 97.2731 184.821 97.3554 183.901C97.4377 182.981 97.3305 182.158 97.0339 181.433C96.7254 180.706 96.2655 180.123 95.6543 179.683C95.042 179.255 94.3235 179.004 93.4988 178.93C92.7458 178.862 92.068 178.965 91.4654 179.236C90.8629 179.507 90.3708 179.957 89.9894 180.586L87.5332 180.366C88.1062 179.213 88.9414 178.36 90.039 177.807C91.1246 177.254 92.3308 177.036 93.6575 177.155C94.8288 177.26 95.8745 177.624 96.7945 178.249C97.7135 178.885 98.4166 179.713 98.9037 180.732C99.3789 181.751 99.562 182.869 99.453 184.089Z" fill="#B7AAAA"/>
<path d="M75.3315 173.729C76.4325 174.107 77.3607 174.711 78.1162 175.541C78.8564 176.378 79.3413 177.35 79.5706 178.456C79.7848 179.57 79.6932 180.706 79.296 181.864C78.8988 183.022 78.2757 183.969 77.4268 184.705C76.5665 185.437 75.589 185.901 74.4944 186.097C73.3845 186.299 72.2791 186.212 71.1781 185.834C70.0657 185.452 69.1394 184.843 68.3992 184.005C67.6437 183.175 67.1569 182.209 66.9389 181.107C66.7209 180.004 66.8105 178.874 67.2077 177.716C67.6049 176.558 68.23 175.606 69.0828 174.858C69.9317 174.122 70.9111 173.652 72.021 173.449C73.1156 173.254 74.2191 173.347 75.3315 173.729ZM74.7531 175.414C73.97 175.146 73.2115 175.082 72.4779 175.224C71.7403 175.377 71.0884 175.724 70.522 176.265C69.9403 176.814 69.4996 177.526 69.1997 178.4C68.8999 179.274 68.8129 180.1 68.9389 180.879C69.0535 181.654 69.357 182.323 69.8492 182.885C70.3414 183.447 70.9791 183.863 71.7622 184.132C72.5454 184.4 73.3038 184.464 74.0375 184.322C74.7712 184.181 75.4269 183.841 76.0046 183.304C76.571 182.762 77.0041 182.054 77.304 181.18C77.6038 180.306 77.6984 179.476 77.5877 178.69C77.4617 177.911 77.1545 177.234 76.6662 176.661C76.174 176.099 75.5363 175.683 74.7531 175.414Z" fill="#B7AAAA"/>
<path d="M54.1558 163.567L55.893 164.659L56.1481 175.854L61.12 167.945L62.8573 169.037L56.1897 179.643L54.4525 178.551L54.1878 167.371L49.2255 175.265L47.4882 174.173L54.1558 163.567Z" fill="#B7AAAA"/>
<path d="M34.3151 163.192L35.4593 161.971L37.89 164.247L45.2967 156.337L46.7945 157.74L39.3878 165.649L41.8316 167.938L40.6874 169.16L34.3151 163.192Z" fill="#B7AAAA"/>
<path d="M32.7171 145.851L35.8096 150.079L38.4039 149.297L39.6685 151.025L26.9108 154.804L25.5081 152.887L32.9735 141.873L34.2488 143.616L32.7171 145.851ZM31.7061 147.305L28.2143 152.379L34.1184 150.603L31.7061 147.305Z" fill="#B7AAAA"/>
<path d="M24.2314 140.11C23.1078 140.595 21.988 140.772 20.872 140.639C19.7513 140.496 18.7503 140.085 17.8692 139.407C16.9722 138.723 16.2929 137.846 15.8313 136.778C15.3031 135.555 15.1374 134.339 15.334 133.13C15.5149 131.914 16.0633 130.854 16.9794 129.949L17.9573 132.212C17.4799 132.772 17.2066 133.38 17.1376 134.037C17.0686 134.694 17.184 135.37 17.4838 136.064C17.8121 136.824 18.2755 137.428 18.874 137.875C19.4725 138.322 20.1649 138.579 20.9514 138.644C21.7331 138.699 22.548 138.543 23.3963 138.177C24.2445 137.81 24.9167 137.324 25.4129 136.717C25.9043 136.1 26.1978 135.417 26.2934 134.67C26.3779 133.928 26.256 133.177 25.9277 132.416C25.6279 131.722 25.215 131.175 24.6892 130.775C24.1633 130.375 23.5332 130.157 22.7989 130.121L21.821 127.857C23.1082 127.811 24.2562 128.139 25.2651 128.84C26.2692 129.53 27.0353 130.487 27.5636 131.71C28.0299 132.789 28.2079 133.882 28.0976 134.989C27.9764 136.1 27.5838 137.113 26.9199 138.027C26.2512 138.93 25.3551 139.624 24.2314 140.11Z" fill="#B7AAAA"/>
<path d="M9.03162 114.266L10.6711 113.928L11.3435 117.189L21.9563 115.001L22.3707 117.011L11.7579 119.199L12.4339 122.478L10.7944 122.816L9.03162 114.266Z" fill="#B7AAAA"/>
<path d="M7.6968 97.2568L15.6535 97.7825C16.5994 97.845 17.3281 97.6466 17.8394 97.1873C18.3516 96.7161 18.637 96.0374 18.6955 95.1513C18.7549 94.2533 18.5613 93.543 18.1148 93.0204C17.669 92.4859 16.9732 92.1873 16.0273 92.1248L8.07061 91.5991L8.20589 89.5516L16.1266 90.0749C17.1444 90.1422 17.9919 90.4207 18.6691 90.9104C19.3463 91.4001 19.834 92.0276 20.1321 92.7929C20.4303 93.5582 20.5498 94.3899 20.4904 95.288C20.4311 96.186 20.2033 96.9947 19.807 97.7142C19.4115 98.4216 18.8463 98.9676 18.1113 99.352C17.3764 99.7363 16.5 99.8949 15.4823 99.8277L7.56152 99.3043L7.6968 97.2568Z" fill="#B7AAAA"/>
<path d="M22.7274 79.9111C22.5107 80.7227 22.1766 81.416 21.725 81.991C21.2618 82.5628 20.7198 82.9646 20.099 83.1963C19.4782 83.428 18.82 83.451 18.1244 83.2653L18.6909 81.1436C19.225 81.2366 19.7081 81.1482 20.1403 80.8785C20.5756 80.5973 20.8814 80.1263 21.0579 79.4654C21.2405 78.7814 21.2206 78.2047 20.9981 77.7354C20.764 77.2631 20.3861 76.9572 19.8644 76.818C19.4586 76.7096 19.0957 76.7431 18.7756 76.9185C18.4586 77.0823 18.1826 77.3253 17.9475 77.6476C17.7155 77.9582 17.4348 78.405 17.1053 78.9877C16.6861 79.7204 16.3057 80.3081 15.9639 80.7509C15.6136 81.1791 15.1659 81.5067 14.6209 81.7338C14.0759 81.9609 13.4266 81.9738 12.673 81.7726C11.9773 81.5869 11.4151 81.2505 10.9862 80.7634C10.5573 80.2762 10.2874 79.6825 10.1763 78.9821C10.0652 78.2818 10.1195 77.52 10.3393 76.6969C10.6519 75.5259 11.2029 74.6483 11.9923 74.0642C12.7732 73.4653 13.6846 73.2615 14.7265 73.4528L14.1415 75.644C13.6917 75.5612 13.2591 75.6693 12.844 75.9683C12.4288 76.2673 12.1376 76.7299 11.9705 77.3559C11.8188 77.924 11.8399 78.4265 12.0338 78.8633C12.2277 79.3001 12.5971 79.5912 13.142 79.7367C13.513 79.8357 13.8496 79.8076 14.1519 79.6524C14.4457 79.4824 14.7086 79.2421 14.9406 78.9314C15.1726 78.6207 15.4502 78.1856 15.7735 77.6261C16.2073 76.8849 16.601 76.2944 16.9544 75.8547C17.3108 75.4034 17.7674 75.0657 18.324 74.8417C18.8721 74.603 19.5288 74.5859 20.294 74.7901C20.9085 74.9542 21.4433 75.2771 21.8984 75.7588C22.3567 76.2289 22.6688 76.8277 22.8347 77.5551C22.9922 78.2678 22.9564 79.0532 22.7274 79.9111Z" fill="#B7AAAA"/>
<path d="M33.3769 55.3444L32.315 57.1003L21.1262 57.549L29.12 62.3833L28.0582 64.1392L17.3381 57.6561L18.3999 55.9002L29.5734 55.4423L21.5949 50.6172L22.6568 48.8613L33.3769 55.3444Z" fill="#B7AAAA"/>
<path d="M41.2469 45.6384C40.4342 46.4717 39.491 47.0521 38.4174 47.3795C37.3435 47.6899 36.2576 47.7119 35.1596 47.4456C34.0614 47.1623 33.0741 46.5934 32.1979 45.7388C31.3216 44.8841 30.7325 43.9156 30.4304 42.8332C30.1368 41.7422 30.136 40.6602 30.4281 39.5873C30.72 38.4975 31.2723 37.5359 32.085 36.7026C32.9061 35.8608 33.8536 35.2846 34.9274 34.9742C36.001 34.6468 37.0827 34.6205 38.1723 34.8955C39.2619 35.1704 40.2449 35.7351 41.1211 36.5897C41.9974 37.4444 42.5908 38.4171 42.9014 39.5079C43.2035 40.5903 43.2086 41.6764 42.9167 42.7663C42.6246 43.8392 42.068 44.7966 41.2469 45.6384ZM39.9712 44.3942C40.5493 43.8015 40.9314 43.1433 41.1176 42.4196C41.2951 41.6876 41.2604 40.9498 41.0135 40.2061C40.7664 39.4455 40.3121 38.7426 39.6507 38.0974C38.9892 37.4522 38.2794 37.0198 37.5215 36.8002C36.7718 36.572 36.0377 36.5599 35.3189 36.7641C34.6001 36.9682 33.9517 37.3667 33.3736 37.9594C32.7955 38.5522 32.4133 39.2104 32.2272 39.934C32.0411 40.6576 32.0672 41.3956 32.3058 42.1479C32.5527 42.8915 33.0069 43.586 33.6683 44.2311C34.3298 44.8763 35.0396 45.3171 35.7979 45.5538C36.5558 45.7734 37.2985 45.7854 38.0259 45.5896C38.7446 45.3854 39.3931 44.987 39.9712 44.3942Z" fill="#B7AAAA"/>
<path d="M58.5463 16.9869L61.6328 29.6646L59.6258 30.8323L52.5927 23.9704L54.9428 33.5571L52.9604 34.7314L43.595 25.6863L45.4775 24.5909L52.8416 32.0933L50.145 21.8752L52.1364 20.7165L59.4888 28.1631L56.6482 18.0913L58.5463 16.9869Z" fill="#B7AAAA"/>
<path d="M80.6145 9.96162L81.7152 11.1938L79.5042 12.6205L82.1099 12.9868L81.6187 14.6063L79.2663 13.4654L80.1967 15.9331L78.5794 16.2892L78.3522 13.6667L76.7043 15.7252L75.5315 14.4167L77.7249 12.9939L75.1445 12.6588L75.6358 11.0393L78.0408 12.1686L77.1242 9.67949L78.7591 9.31955L78.9374 11.9712L80.6145 9.96162Z" fill="#B7AAAA"/>
<path d="M167 99C167 103.356 160.883 107.048 160.079 111.157C159.245 115.39 163.462 121.136 161.84 125.029C160.203 128.999 153.128 130.065 150.78 133.587C148.401 137.14 150.1 144.076 147.088 147.088C144.076 150.1 137.14 148.401 133.587 150.78C130.065 153.144 128.984 160.203 125.029 161.841C121.136 163.463 115.39 159.245 111.157 160.079C107.048 160.898 103.356 167 99 167C94.6438 167 90.9518 160.883 86.8428 160.079C82.6102 159.245 76.8637 163.463 72.9709 161.841C69.0009 160.203 67.935 153.128 64.413 150.78C60.8601 148.401 53.9241 150.1 50.9119 147.088C47.8996 144.076 49.5988 137.14 47.2199 133.587C44.8564 130.065 37.7969 128.984 36.1595 125.029C34.5375 121.136 38.7547 115.39 37.9205 111.157C37.1018 107.048 31 103.356 31 99C31 94.6438 37.1172 90.9518 37.9205 86.8428C38.7547 82.6102 34.5375 76.8637 36.1595 72.9709C37.7969 69.0009 44.8719 67.935 47.2199 64.413C49.5988 60.8601 47.8996 53.9241 50.9119 50.9119C53.9241 47.8996 60.8601 49.5988 64.413 47.2199C67.935 44.8564 69.0164 37.7969 72.9709 36.1595C76.8637 34.5375 82.6102 38.7547 86.8428 37.9205C90.9518 37.1018 94.6438 31 99 31C103.356 31 107.048 37.1172 111.157 37.9205C115.39 38.7547 121.136 34.5375 125.029 36.1595C128.999 37.7969 130.065 44.8719 133.587 47.2199C137.14 49.5988 144.076 47.8996 147.088 50.9119C150.1 53.9241 148.401 60.8601 150.78 64.413C153.144 67.935 160.203 69.0164 161.84 72.9709C163.462 76.8637 159.245 82.6102 160.079 86.8428C160.883 90.9673 167 94.6592 167 99Z" fill="url(#paint0_linear_115_2)"/>
<path d="M80.9283 76.76V75.432H83.9363V87H82.4643V76.76H80.9283ZM86.4373 81.096C86.4373 79.2613 86.736 77.832 87.3333 76.808C87.9306 75.7733 88.976 75.256 90.4693 75.256C91.952 75.256 92.992 75.7733 93.5893 76.808C94.1866 77.832 94.4853 79.2613 94.4853 81.096C94.4853 82.9627 94.1866 84.4133 93.5893 85.448C92.992 86.4827 91.952 87 90.4693 87C88.976 87 87.9306 86.4827 87.3333 85.448C86.736 84.4133 86.4373 82.9627 86.4373 81.096ZM93.0453 81.096C93.0453 80.168 92.9813 79.384 92.8533 78.744C92.736 78.0933 92.4853 77.5707 92.1013 77.176C91.728 76.7813 91.184 76.584 90.4693 76.584C89.744 76.584 89.1893 76.7813 88.8053 77.176C88.432 77.5707 88.1813 78.0933 88.0533 78.744C87.936 79.384 87.8773 80.168 87.8773 81.096C87.8773 82.056 87.936 82.8613 88.0533 83.512C88.1813 84.1627 88.432 84.6853 88.8053 85.08C89.1893 85.4747 89.744 85.672 90.4693 85.672C91.184 85.672 91.728 85.4747 92.1013 85.08C92.4853 84.6853 92.736 84.1627 92.8533 83.512C92.9813 82.8613 93.0453 82.056 93.0453 81.096ZM96.4842 81.096C96.4842 79.2613 96.7829 77.832 97.3802 76.808C97.9775 75.7733 99.0229 75.256 100.516 75.256C101.999 75.256 103.039 75.7733 103.636 76.808C104.234 77.832 104.532 79.2613 104.532 81.096C104.532 82.9627 104.234 84.4133 103.636 85.448C103.039 86.4827 101.999 87 100.516 87C99.0229 87 97.9775 86.4827 97.3802 85.448C96.7829 84.4133 96.4842 82.9627 96.4842 81.096ZM103.092 81.096C103.092 80.168 103.028 79.384 102.9 78.744C102.783 78.0933 102.532 77.5707 102.148 77.176C101.775 76.7813 101.231 76.584 100.516 76.584C99.7909 76.584 99.2362 76.7813 98.8522 77.176C98.4789 77.5707 98.2282 78.0933 98.1002 78.744C97.9829 79.384 97.9242 80.168 97.9242 81.096C97.9242 82.056 97.9829 82.8613 98.1002 83.512C98.2282 84.1627 98.4789 84.6853 98.8522 85.08C99.2362 85.4747 99.7909 85.672 100.516 85.672C101.231 85.672 101.775 85.4747 102.148 85.08C102.532 84.6853 102.783 84.1627 102.9 83.512C103.028 82.8613 103.092 82.056 103.092 81.096ZM106.211 78.04C106.211 77.3147 106.43 76.7387 106.867 76.312C107.304 75.8747 107.864 75.656 108.547 75.656C109.23 75.656 109.79 75.8747 110.227 76.312C110.664 76.7387 110.883 77.3147 110.883 78.04C110.883 78.776 110.664 79.3627 110.227 79.8C109.79 80.2267 109.23 80.44 108.547 80.44C107.864 80.44 107.304 80.2267 106.867 79.8C106.43 79.3627 106.211 78.776 106.211 78.04ZM115.555 75.832L109.075 87H107.635L114.115 75.832H115.555ZM108.547 76.552C108.184 76.552 107.896 76.68 107.683 76.936C107.48 77.1813 107.379 77.5493 107.379 78.04C107.379 78.5307 107.48 78.904 107.683 79.16C107.896 79.416 108.184 79.544 108.547 79.544C108.91 79.544 109.198 79.416 109.411 79.16C109.624 78.8933 109.731 78.52 109.731 78.04C109.731 77.5493 109.624 77.1813 109.411 76.936C109.198 76.68 108.91 76.552 108.547 76.552ZM112.339 84.792C112.339 84.056 112.558 83.4747 112.995 83.048C113.432 82.6107 113.992 82.392 114.675 82.392C115.358 82.392 115.912 82.6107 116.339 83.048C116.776 83.4747 116.995 84.056 116.995 84.792C116.995 85.5173 116.776 86.0987 116.339 86.536C115.912 86.9733 115.358 87.192 114.675 87.192C113.992 87.192 113.432 86.9787 112.995 86.552C112.558 86.1147 112.339 85.528 112.339 84.792ZM114.659 83.304C114.296 83.304 114.008 83.432 113.795 83.688C113.582 83.9333 113.475 84.3013 113.475 84.792C113.475 85.272 113.582 85.64 113.795 85.896C114.008 86.1413 114.296 86.264 114.659 86.264C115.022 86.264 115.31 86.1413 115.523 85.896C115.736 85.64 115.843 85.272 115.843 84.792C115.843 84.3013 115.736 83.9333 115.523 83.688C115.31 83.432 115.022 83.304 114.659 83.304ZM80.9885 109.112L78.7645 106.888C78.2205 107.037 77.6658 107.112 77.1005 107.112C76.0658 107.112 75.1218 106.872 74.2685 106.392C73.4152 105.901 72.7378 105.224 72.2365 104.36C71.7458 103.485 71.5005 102.504 71.5005 101.416C71.5005 100.328 71.7458 99.352 72.2365 98.488C72.7378 97.6133 73.4152 96.936 74.2685 96.456C75.1218 95.9653 76.0658 95.72 77.1005 95.72C78.1458 95.72 79.0952 95.9653 79.9485 96.456C80.8018 96.936 81.4738 97.608 81.9645 98.472C82.4552 99.336 82.7005 100.317 82.7005 101.416C82.7005 102.483 82.4658 103.443 81.9965 104.296C81.5272 105.149 80.8818 105.821 80.0605 106.312L82.8765 109.112H80.9885ZM72.9885 101.416C72.9885 102.301 73.1645 103.08 73.5165 103.752C73.8792 104.424 74.3698 104.941 74.9885 105.304C75.6178 105.667 76.3218 105.848 77.1005 105.848C77.8792 105.848 78.5778 105.667 79.1965 105.304C79.8258 104.941 80.3165 104.424 80.6685 103.752C81.0312 103.08 81.2125 102.301 81.2125 101.416C81.2125 100.52 81.0312 99.7413 80.6685 99.08C80.3165 98.408 79.8312 97.8907 79.2125 97.528C78.5938 97.1653 77.8898 96.984 77.1005 96.984C76.3112 96.984 75.6072 97.1653 74.9885 97.528C74.3698 97.8907 73.8792 98.408 73.5165 99.08C73.1645 99.7413 72.9885 100.52 72.9885 101.416ZM92.4299 98.232V107H90.9739V105.704C90.6965 106.152 90.3072 106.504 89.8059 106.76C89.3152 107.005 88.7712 107.128 88.1739 107.128C87.4912 107.128 86.8779 106.989 86.3339 106.712C85.7899 106.424 85.3579 105.997 85.0379 105.432C84.7285 104.867 84.5739 104.179 84.5739 103.368V98.232H86.0139V103.176C86.0139 104.04 86.2325 104.707 86.6699 105.176C87.1072 105.635 87.7045 105.864 88.4619 105.864C89.2405 105.864 89.8539 105.624 90.3019 105.144C90.7499 104.664 90.9739 103.965 90.9739 103.048V98.232H92.4299ZM94.3443 102.584C94.3443 101.688 94.5256 100.904 94.8883 100.232C95.2509 99.5493 95.7469 99.0213 96.3763 98.648C97.0163 98.2747 97.7256 98.088 98.5043 98.088C99.2723 98.088 99.9389 98.2533 100.504 98.584C101.07 98.9147 101.491 99.3307 101.768 99.832V98.232H103.24V107H101.768V105.368C101.48 105.88 101.048 106.307 100.472 106.648C99.9069 106.979 99.2456 107.144 98.4883 107.144C97.7096 107.144 97.0056 106.952 96.3763 106.568C95.7469 106.184 95.2509 105.645 94.8883 104.952C94.5256 104.259 94.3443 103.469 94.3443 102.584ZM101.768 102.6C101.768 101.939 101.635 101.363 101.368 100.872C101.102 100.381 100.739 100.008 100.28 99.752C99.8323 99.4853 99.3363 99.352 98.7923 99.352C98.2483 99.352 97.7523 99.48 97.3043 99.736C96.8563 99.992 96.4989 100.365 96.2323 100.856C95.9656 101.347 95.8323 101.923 95.8323 102.584C95.8323 103.256 95.9656 103.843 96.2323 104.344C96.4989 104.835 96.8563 105.213 97.3043 105.48C97.7523 105.736 98.2483 105.864 98.7923 105.864C99.3363 105.864 99.8323 105.736 100.28 105.48C100.739 105.213 101.102 104.835 101.368 104.344C101.635 103.843 101.768 103.261 101.768 102.6ZM107.157 95.16V107H105.701V95.16H107.157ZM110.39 96.808C110.113 96.808 109.878 96.712 109.686 96.52C109.494 96.328 109.398 96.0933 109.398 95.816C109.398 95.5387 109.494 95.304 109.686 95.112C109.878 94.92 110.113 94.824 110.39 94.824C110.657 94.824 110.881 94.92 111.062 95.112C111.254 95.304 111.35 95.5387 111.35 95.816C111.35 96.0933 111.254 96.328 111.062 96.52C110.881 96.712 110.657 96.808 110.39 96.808ZM111.094 98.232V107H109.638V98.232H111.094ZM115.352 99.432V104.6C115.352 105.027 115.442 105.331 115.624 105.512C115.805 105.683 116.12 105.768 116.568 105.768H117.64V107H116.328C115.517 107 114.909 106.813 114.504 106.44C114.098 106.067 113.896 105.453 113.896 104.6V99.432H112.76V98.232H113.896V96.024H115.352V98.232H117.64V99.432H115.352ZM126.956 98.232L121.676 111.128H120.172L121.9 106.904L118.364 98.232H119.98L122.732 105.336L125.452 98.232H126.956ZM60.18 119.08C59.8707 118.429 59.4227 117.928 58.836 117.576C58.2493 117.213 57.5667 117.032 56.788 117.032C56.0093 117.032 55.3053 117.213 54.676 117.576C54.0573 117.928 53.5667 118.44 53.204 119.112C52.852 119.773 52.676 120.541 52.676 121.416C52.676 122.291 52.852 123.059 53.204 123.72C53.5667 124.381 54.0573 124.893 54.676 125.256C55.3053 125.608 56.0093 125.784 56.788 125.784C57.876 125.784 58.772 125.459 59.476 124.808C60.18 124.157 60.5907 123.277 60.708 122.168H56.26V120.984H62.26V122.104C62.1747 123.021 61.8867 123.864 61.396 124.632C60.9053 125.389 60.26 125.992 59.46 126.44C58.66 126.877 57.7693 127.096 56.788 127.096C55.7533 127.096 54.8093 126.856 53.956 126.376C53.1027 125.885 52.4253 125.208 51.924 124.344C51.4333 123.48 51.188 122.504 51.188 121.416C51.188 120.328 51.4333 119.352 51.924 118.488C52.4253 117.613 53.1027 116.936 53.956 116.456C54.8093 115.965 55.7533 115.72 56.788 115.72C57.972 115.72 59.0173 116.013 59.924 116.6C60.8413 117.187 61.508 118.013 61.924 119.08H60.18ZM71.9611 118.232V127H70.5051V125.704C70.2278 126.152 69.8385 126.504 69.3371 126.76C68.8465 127.005 68.3025 127.128 67.7051 127.128C67.0225 127.128 66.4091 126.989 65.8651 126.712C65.3211 126.424 64.8891 125.997 64.5691 125.432C64.2598 124.867 64.1051 124.179 64.1051 123.368V118.232H65.5451V123.176C65.5451 124.04 65.7638 124.707 66.2011 125.176C66.6385 125.635 67.2358 125.864 67.9931 125.864C68.7718 125.864 69.3851 125.624 69.8331 125.144C70.2811 124.664 70.5051 123.965 70.5051 123.048V118.232H71.9611ZM73.8755 122.584C73.8755 121.688 74.0568 120.904 74.4195 120.232C74.7822 119.549 75.2782 119.021 75.9075 118.648C76.5475 118.275 77.2568 118.088 78.0355 118.088C78.8035 118.088 79.4702 118.253 80.0355 118.584C80.6008 118.915 81.0222 119.331 81.2995 119.832V118.232H82.7715V127H81.2995V125.368C81.0115 125.88 80.5795 126.307 80.0035 126.648C79.4382 126.979 78.7768 127.144 78.0195 127.144C77.2408 127.144 76.5368 126.952 75.9075 126.568C75.2782 126.184 74.7822 125.645 74.4195 124.952C74.0568 124.259 73.8755 123.469 73.8755 122.584ZM81.2995 122.6C81.2995 121.939 81.1662 121.363 80.8995 120.872C80.6328 120.381 80.2702 120.008 79.8115 119.752C79.3635 119.485 78.8675 119.352 78.3235 119.352C77.7795 119.352 77.2835 119.48 76.8355 119.736C76.3875 119.992 76.0302 120.365 75.7635 120.856C75.4968 121.347 75.3635 121.923 75.3635 122.584C75.3635 123.256 75.4968 123.843 75.7635 124.344C76.0302 124.835 76.3875 125.213 76.8355 125.48C77.2835 125.736 77.7795 125.864 78.3235 125.864C78.8675 125.864 79.3635 125.736 79.8115 125.48C80.2702 125.213 80.6328 124.835 80.8995 124.344C81.1662 123.843 81.2995 123.261 81.2995 122.6ZM86.688 119.656C86.944 119.155 87.3067 118.765 87.776 118.488C88.256 118.211 88.8373 118.072 89.52 118.072V119.576H89.136C87.504 119.576 86.688 120.461 86.688 122.232V127H85.232V118.232H86.688V119.656ZM90.6568 122.584C90.6568 121.688 90.8381 120.904 91.2008 120.232C91.5634 119.549 92.0594 119.021 92.6888 118.648C93.3288 118.275 94.0381 118.088 94.8168 118.088C95.5848 118.088 96.2514 118.253 96.8168 118.584C97.3821 118.915 97.8034 119.331 98.0808 119.832V118.232H99.5528V127H98.0808V125.368C97.7928 125.88 97.3608 126.307 96.7848 126.648C96.2194 126.979 95.5581 127.144 94.8008 127.144C94.0221 127.144 93.3181 126.952 92.6888 126.568C92.0594 126.184 91.5634 125.645 91.2008 124.952C90.8381 124.259 90.6568 123.469 90.6568 122.584ZM98.0808 122.6C98.0808 121.939 97.9474 121.363 97.6808 120.872C97.4141 120.381 97.0514 120.008 96.5928 119.752C96.1448 119.485 95.6488 119.352 95.1048 119.352C94.5608 119.352 94.0648 119.48 93.6168 119.736C93.1688 119.992 92.8114 120.365 92.5448 120.856C92.2781 121.347 92.1448 121.923 92.1448 122.584C92.1448 123.256 92.2781 123.843 92.5448 124.344C92.8114 124.835 93.1688 125.213 93.6168 125.48C94.0648 125.736 94.5608 125.864 95.1048 125.864C95.6488 125.864 96.1448 125.736 96.5928 125.48C97.0514 125.213 97.4141 124.835 97.6808 124.344C97.9474 123.843 98.0808 123.261 98.0808 122.6ZM106.285 118.072C107.352 118.072 108.216 118.397 108.877 119.048C109.539 119.688 109.869 120.616 109.869 121.832V127H108.429V122.04C108.429 121.165 108.211 120.499 107.773 120.04C107.336 119.571 106.739 119.336 105.981 119.336C105.213 119.336 104.6 119.576 104.141 120.056C103.693 120.536 103.469 121.235 103.469 122.152V127H102.013V118.232H103.469V119.48C103.757 119.032 104.147 118.685 104.637 118.44C105.139 118.195 105.688 118.072 106.285 118.072ZM114.024 119.432V124.6C114.024 125.027 114.114 125.331 114.296 125.512C114.477 125.683 114.792 125.768 115.24 125.768H116.312V127H115C114.189 127 113.581 126.813 113.176 126.44C112.77 126.067 112.568 125.453 112.568 124.6V119.432H111.432V118.232H112.568V116.024H114.024V118.232H116.312V119.432H114.024ZM126.076 122.28C126.076 122.557 126.06 122.851 126.028 123.16H119.02C119.073 124.024 119.366 124.701 119.9 125.192C120.444 125.672 121.1 125.912 121.868 125.912C122.497 125.912 123.02 125.768 123.436 125.48C123.862 125.181 124.161 124.787 124.332 124.296H125.9C125.665 125.139 125.196 125.827 124.492 126.36C123.788 126.883 122.913 127.144 121.868 127.144C121.036 127.144 120.289 126.957 119.628 126.584C118.977 126.211 118.465 125.683 118.092 125C117.718 124.307 117.532 123.507 117.532 122.6C117.532 121.693 117.713 120.899 118.076 120.216C118.438 119.533 118.945 119.011 119.596 118.648C120.257 118.275 121.014 118.088 121.868 118.088C122.7 118.088 123.436 118.269 124.076 118.632C124.716 118.995 125.206 119.496 125.548 120.136C125.9 120.765 126.076 121.48 126.076 122.28ZM124.572 121.976C124.572 121.421 124.449 120.947 124.204 120.552C123.958 120.147 123.622 119.843 123.196 119.64C122.78 119.427 122.316 119.32 121.804 119.32C121.068 119.32 120.438 119.555 119.916 120.024C119.404 120.493 119.11 121.144 119.036 121.976H124.572ZM135.998 122.28C135.998 122.557 135.982 122.851 135.95 123.16H128.942C128.995 124.024 129.288 124.701 129.822 125.192C130.366 125.672 131.022 125.912 131.79 125.912C132.419 125.912 132.942 125.768 133.358 125.48C133.784 125.181 134.083 124.787 134.254 124.296H135.822C135.587 125.139 135.118 125.827 134.414 126.36C133.71 126.883 132.835 127.144 131.79 127.144C130.958 127.144 130.211 126.957 129.55 126.584C128.899 126.211 128.387 125.683 128.014 125C127.64 124.307 127.454 123.507 127.454 122.6C127.454 121.693 127.635 120.899 127.998 120.216C128.36 119.533 128.867 119.011 129.518 118.648C130.179 118.275 130.936 118.088 131.79 118.088C132.622 118.088 133.358 118.269 133.998 118.632C134.638 118.995 135.128 119.496 135.47 120.136C135.822 120.765 135.998 121.48 135.998 122.28ZM134.494 121.976C134.494 121.421 134.371 120.947 134.126 120.552C133.88 120.147 133.544 119.843 133.118 119.64C132.702 119.427 132.238 119.32 131.726 119.32C130.99 119.32 130.36 119.555 129.838 120.024C129.326 120.493 129.032 121.144 128.958 121.976H134.494ZM137.376 122.584C137.376 121.688 137.557 120.904 137.92 120.232C138.282 119.549 138.778 119.021 139.408 118.648C140.048 118.275 140.762 118.088 141.552 118.088C142.234 118.088 142.869 118.248 143.456 118.568C144.042 118.877 144.49 119.288 144.8 119.8V115.16H146.272V127H144.8V125.352C144.512 125.875 144.085 126.307 143.52 126.648C142.954 126.979 142.293 127.144 141.536 127.144C140.757 127.144 140.048 126.952 139.408 126.568C138.778 126.184 138.282 125.645 137.92 124.952C137.557 124.259 137.376 123.469 137.376 122.584ZM144.8 122.6C144.8 121.939 144.666 121.363 144.4 120.872C144.133 120.381 143.77 120.008 143.312 119.752C142.864 119.485 142.368 119.352 141.824 119.352C141.28 119.352 140.784 119.48 140.336 119.736C139.888 119.992 139.53 120.365 139.264 120.856C138.997 121.347 138.864 121.923 138.864 122.584C138.864 123.256 138.997 123.843 139.264 124.344C139.53 124.835 139.888 125.213 140.336 125.48C140.784 125.736 141.28 125.864 141.824 125.864C142.368 125.864 142.864 125.736 143.312 125.48C143.77 125.213 144.133 124.835 144.4 124.344C144.666 123.843 144.8 123.261 144.8 122.6Z" fill="black"/>
<path d="M99.5 50L101.184 55.1824H106.633L102.225 58.3853L103.908 63.5676L99.5 60.3647L95.0916 63.5676L96.7755 58.3853L92.3671 55.1824H97.8161L99.5 50Z" fill="black"/>
<path d="M99.5 133L101.184 138.182H106.633L102.225 141.385L103.908 146.568L99.5 143.365L95.0916 146.568L96.7755 141.385L92.3671 138.182H97.8161L99.5 133Z" fill="black"/>
<defs>
<linearGradient id="paint0_linear_115_2" x1="103.685" y1="31" x2="105.584" y2="233.536" gradientUnits="userSpaceOnUse">
<stop offset="0.170916" stop-color="#C2C2C2"/>
<stop offset="1" stop-color="#3E3E3E"/>
</linearGradient>
</defs>
</svg>
