<svg width="150" height="30" viewBox="0 0 150 30" fill="none" xmlns="http://www.w3.org/2000/svg">
<path d="M14.0489 2.92705C14.3483 2.00574 15.6517 2.00574 15.9511 2.92705L18.1432 9.67376C18.2771 10.0858 18.661 10.3647 19.0943 10.3647H26.1882C27.1569 10.3647 27.5597 11.6044 26.7759 12.1738L21.0369 16.3435C20.6864 16.5981 20.5397 17.0495 20.6736 17.4615L22.8657 24.2082C23.1651 25.1295 22.1106 25.8956 21.3269 25.3262L15.5878 21.1565C15.2373 20.9019 14.7627 20.9019 14.4122 21.1565L8.67312 25.3262C7.88941 25.8956 6.83493 25.1295 7.13428 24.2082L9.32642 17.4615C9.46029 17.0495 9.31363 16.5981 8.96315 16.3435L3.22405 12.1738C2.44034 11.6044 2.84311 10.3647 3.81184 10.3647H10.9057C11.339 10.3647 11.7229 10.0858 11.8568 9.67376L14.0489 2.92705Z" fill="#FFBA08"/>
<path d="M44.0489 2.92705C44.3483 2.00574 45.6517 2.00574 45.9511 2.92705L48.1432 9.67376C48.2771 10.0858 48.661 10.3647 49.0943 10.3647H56.1882C57.1569 10.3647 57.5597 11.6044 56.7759 12.1738L51.0369 16.3435C50.6864 16.5981 50.5397 17.0495 50.6736 17.4615L52.8657 24.2082C53.1651 25.1295 52.1106 25.8956 51.3269 25.3262L45.5878 21.1565C45.2373 20.9019 44.7627 20.9019 44.4122 21.1565L38.6731 25.3262C37.8894 25.8956 36.8349 25.1295 37.1343 24.2082L39.3264 17.4615C39.4603 17.0495 39.3136 16.5981 38.9631 16.3435L33.2241 12.1738C32.4403 11.6044 32.8431 10.3647 33.8118 10.3647H40.9057C41.339 10.3647 41.7229 10.0858 41.8568 9.67376L44.0489 2.92705Z" fill="#FFBA08"/>
<path d="M74.0489 2.92705C74.3483 2.00574 75.6517 2.00574 75.9511 2.92705L78.1432 9.67376C78.2771 10.0858 78.661 10.3647 79.0943 10.3647H86.1882C87.1569 10.3647 87.5597 11.6044 86.7759 12.1738L81.0369 16.3435C80.6864 16.5981 80.5397 17.0495 80.6736 17.4615L82.8657 24.2082C83.1651 25.1295 82.1106 25.8956 81.3269 25.3262L75.5878 21.1565C75.2373 20.9019 74.7627 20.9019 74.4122 21.1565L68.6731 25.3262C67.8894 25.8956 66.8349 25.1295 67.1343 24.2082L69.3264 17.4615C69.4603 17.0495 69.3136 16.5981 68.9631 16.3435L63.2241 12.1738C62.4403 11.6044 62.8431 10.3647 63.8118 10.3647H70.9057C71.339 10.3647 71.7229 10.0858 71.8568 9.67376L74.0489 2.92705Z" fill="#FFBA08"/>
<path d="M104.049 2.92705C104.348 2.00574 105.652 2.00574 105.951 2.92705L108.143 9.67376C108.277 10.0858 108.661 10.3647 109.094 10.3647H116.188C117.157 10.3647 117.56 11.6044 116.776 12.1738L111.037 16.3435C110.686 16.5981 110.54 17.0495 110.674 17.4615L112.866 24.2082C113.165 25.1295 112.111 25.8956 111.327 25.3262L105.588 21.1565C105.237 20.9019 104.763 20.9019 104.412 21.1565L98.6731 25.3262C97.8894 25.8956 96.8349 25.1295 97.1343 24.2082L99.3264 17.4615C99.4603 17.0495 99.3136 16.5981 98.9631 16.3435L93.2241 12.1738C92.4403 11.6044 92.8431 10.3647 93.8118 10.3647H100.906C101.339 10.3647 101.723 10.0858 101.857 9.67376L104.049 2.92705Z" fill="#FFBA08"/>
<path d="M134.049 2.92705C134.348 2.00574 135.652 2.00574 135.951 2.92705L138.143 9.67376C138.277 10.0858 138.661 10.3647 139.094 10.3647H146.188C147.157 10.3647 147.56 11.6044 146.776 12.1738L141.037 16.3435C140.686 16.5981 140.54 17.0495 140.674 17.4615L142.866 24.2082C143.165 25.1295 142.111 25.8956 141.327 25.3262L135.588 21.1565C135.237 20.9019 134.763 20.9019 134.412 21.1565L128.673 25.3262C127.889 25.8956 126.835 25.1295 127.134 24.2082L129.326 17.4615C129.46 17.0495 129.314 16.5981 128.963 16.3435L123.224 12.1738C122.44 11.6044 122.843 10.3647 123.812 10.3647H130.906C131.339 10.3647 131.723 10.0858 131.857 9.67376L134.049 2.92705Z" fill="#FFBA08"/>
</svg>
