<svg width="124" height="124" viewBox="0 0 124 124" fill="none" xmlns="http://www.w3.org/2000/svg">
<path d="M120.811 15.0556C120.417 14.7214 119.868 14.6021 119.367 14.7333L99.2905 19.9255C99.1831 19.9494 99.0876 19.9852 98.9921 20.0329C98.9324 20.0688 98.8728 20.1046 98.8131 20.1404C98.7773 20.1642 98.7534 20.1762 98.7176 20.2C98.634 20.2717 98.5505 20.3433 98.4789 20.4149C98.4669 20.4388 98.455 20.4626 98.4311 20.4746C98.3834 20.5343 98.3356 20.5939 98.2998 20.6656C98.276 20.7133 98.2521 20.761 98.2402 20.7968C98.2163 20.8446 98.1924 20.8923 98.1685 20.952C98.1566 20.9998 98.1447 21.0475 98.1327 21.1072C98.1208 21.1549 98.1089 21.2146 98.0969 21.2624C98.085 21.3101 98.0969 21.3698 98.085 21.4175C98.085 21.4653 98.0731 21.5249 98.085 21.5727C98.085 21.6443 98.1089 21.7159 98.1208 21.7875C98.1327 21.8233 98.1327 21.8472 98.1327 21.883C98.1566 21.9904 98.1924 22.0859 98.2402 22.1814C98.264 22.2411 98.2998 22.2889 98.3356 22.3366C98.3595 22.3724 98.3715 22.4082 98.4073 22.444C98.4669 22.5276 98.5505 22.6111 98.6221 22.6827L103.838 27.2304L95.3636 37.185C86.4593 21.5966 70.0353 12 51.9523 12C38.2616 12 25.8482 17.5264 16.8126 26.4784C16.741 26.5261 16.6694 26.5858 16.6097 26.6455C16.55 26.7052 16.4903 26.7768 16.4426 26.8484C7.52638 35.9079 2 48.3213 2 62V62.0119V62.0239C2 75.7026 7.52638 88.116 16.4665 97.1397C16.5142 97.2113 16.5739 97.2829 16.6455 97.3545C16.7171 97.4261 16.7887 97.4739 16.8603 97.5335C25.884 106.474 38.2974 112 51.9761 112C65.6667 112 78.0802 106.462 87.1277 97.5216C87.1993 97.4739 87.271 97.4142 87.3306 97.3545C87.3903 97.2948 87.45 97.2232 87.4977 97.1516C96.4378 88.116 101.976 75.7026 101.976 62.0119C101.976 57.7508 101.439 53.5374 100.377 49.4672L112.79 34.8814L117.111 38.5577C117.123 38.5696 117.123 38.5696 117.135 38.5696C117.171 38.5935 117.206 38.6173 117.242 38.6412C117.29 38.677 117.338 38.7128 117.386 38.7367C117.421 38.7606 117.457 38.7725 117.493 38.7844C117.553 38.8083 117.6 38.8322 117.66 38.8561C117.696 38.868 117.732 38.8799 117.779 38.8919C117.839 38.9038 117.911 38.9157 117.97 38.9277C117.994 38.9277 118.006 38.9396 118.03 38.9396C118.066 38.9396 118.114 38.9396 118.149 38.9396C118.257 38.9396 118.364 38.9277 118.472 38.9038C118.496 38.9038 118.531 38.8919 118.555 38.8799C118.627 38.8561 118.71 38.8322 118.782 38.8083C118.818 38.7964 118.854 38.7725 118.889 38.7606C118.949 38.7248 119.009 38.6889 119.069 38.6531C119.104 38.6293 119.14 38.6054 119.164 38.5815C119.224 38.5338 119.271 38.486 119.319 38.4264C119.331 38.4025 119.355 38.3905 119.379 38.3786C119.391 38.3667 119.391 38.3547 119.403 38.3428C119.439 38.2951 119.474 38.2473 119.51 38.1876C119.534 38.1518 119.558 38.116 119.582 38.0802C119.606 38.0325 119.63 37.9728 119.653 37.925C119.665 37.8773 119.689 37.8415 119.701 37.7937C119.713 37.746 119.725 37.6983 119.737 37.6505C119.749 37.6028 119.761 37.5431 119.761 37.4953C119.761 37.4834 119.761 37.4834 119.761 37.4715L121.384 16.4402C121.432 15.9031 121.217 15.4018 120.811 15.0556ZM116.789 34.0458L113.65 31.3722C113.506 31.2528 113.363 31.1693 113.196 31.1096C112.575 30.8589 111.835 31.0141 111.37 31.5512L80.5152 67.8009L64.5567 54.2177C64.0554 53.788 63.3631 53.7283 62.8021 54.0029H62.7902C62.6111 54.0864 62.456 54.2177 62.3127 54.3729C62.3008 54.3848 62.3008 54.3848 62.2889 54.3968L35.576 85.7885L31.7565 82.1361L62.7305 45.7431L78.7009 59.3383C78.9993 59.6009 79.3812 59.7202 79.7513 59.7202C80.2048 59.7202 80.6584 59.5292 80.9807 59.1473L96.3304 41.1L96.3423 41.0881L107.359 28.1375C107.395 28.0898 107.419 28.054 107.455 28.0062C107.491 27.9585 107.514 27.9227 107.538 27.8749C107.562 27.8272 107.586 27.7794 107.61 27.7197C107.634 27.672 107.658 27.6243 107.67 27.5765C107.682 27.5288 107.693 27.4691 107.705 27.4094C107.717 27.3617 107.729 27.3139 107.741 27.2662C107.753 27.2065 107.741 27.1587 107.741 27.0991C107.741 27.0513 107.741 27.0036 107.741 26.9558C107.741 26.8962 107.729 26.8484 107.717 26.7887C107.705 26.741 107.705 26.6932 107.693 26.6455C107.682 26.5978 107.658 26.5381 107.634 26.4903C107.622 26.4426 107.598 26.3948 107.586 26.359C107.562 26.3113 107.526 26.2635 107.491 26.2158C107.467 26.18 107.443 26.1323 107.419 26.0964C107.383 26.0487 107.335 26.0129 107.3 25.9651C107.264 25.9293 107.24 25.8935 107.204 25.8577L107.192 25.8458L103.098 22.2769L118.018 18.4216L116.789 34.0458ZM98.7176 60.4006H95.1368C94.2416 60.4006 93.5254 61.1287 93.5254 62.0119C93.5254 62.8952 94.2535 63.6233 95.1368 63.6233H98.7176C98.3237 75.2967 93.6209 85.8959 86.1609 93.8931L83.6424 91.3746C83.0098 90.7419 81.9833 90.7419 81.3626 91.3746C80.73 92.0072 80.73 93.0337 81.3626 93.6543L83.8811 96.1728C75.872 103.645 65.2729 108.336 53.5994 108.741V105.161C53.5994 104.265 52.8713 103.549 51.9881 103.549C51.1048 103.549 50.3767 104.277 50.3767 105.161V108.741C38.7033 108.348 28.1041 103.645 20.1069 96.1848L22.6254 93.6663C23.2581 93.0337 23.2581 92.0072 22.6254 91.3865C21.9928 90.7539 20.9663 90.7539 20.3457 91.3865L17.8272 93.905C10.3552 85.9079 5.65242 75.2967 5.25853 63.6233H8.83934C9.73454 63.6233 10.4507 62.8952 10.4507 62.0119C10.4507 61.1287 9.72261 60.4006 8.83934 60.4006H5.25853C5.65242 48.7271 10.3552 38.128 17.8152 30.1308L20.3337 32.6493C20.6441 32.9597 21.0618 33.1268 21.4796 33.1268C21.8974 33.1268 22.3032 32.9716 22.6254 32.6493C23.2581 32.0167 23.2581 30.9902 22.6254 30.3695L20.1069 27.851C28.0921 20.391 38.7033 15.6882 50.3767 15.2943V18.8751C50.3767 19.7704 51.1048 20.4865 51.9881 20.4865C52.8713 20.4865 53.5994 19.7584 53.5994 18.8751V15.2943C65.0938 15.6882 75.7766 20.212 83.905 27.8152L81.3507 30.3695C80.7181 31.0021 80.7181 32.0286 81.3507 32.6493C81.661 32.9597 82.0788 33.1268 82.4965 33.1268C82.9143 33.1268 83.3201 32.9716 83.6424 32.6493L86.1967 30.095C88.8823 32.9835 91.2337 36.254 93.1674 39.8348L79.5603 55.8171L63.5779 42.222C62.8976 41.6491 61.883 41.7207 61.2982 42.4011L28.2951 81.1931C27.746 81.8496 27.7937 82.8164 28.4025 83.4013L34.5495 89.2977C34.8479 89.5842 35.2538 89.7513 35.6715 89.7513C35.6954 89.7513 35.7312 89.7513 35.7551 89.7513C36.1967 89.7274 36.6145 89.5245 36.9009 89.1903L63.6734 57.7269L79.6438 71.322C79.8706 71.513 80.1332 71.6324 80.4077 71.6801C80.5032 71.6921 80.5868 71.704 80.6823 71.704C80.8016 71.704 80.909 71.6921 81.0284 71.6682C81.3626 71.5966 81.6849 71.4175 81.9236 71.1311L97.7627 52.5109C98.3118 55.101 98.6221 57.7388 98.7176 60.4006Z" fill="url(#paint0_linear_1023_156)"/>
<defs>
<linearGradient id="paint0_linear_1023_156" x1="65.8081" y1="12" x2="66.9776" y2="160.927" gradientUnits="userSpaceOnUse">
<stop offset="0.170916" stop-color="#C2C2C2"/>
<stop offset="1" stop-color="#3E3E3E"/>
</linearGradient>
</defs>
</svg>
