<svg width="70" height="70" viewBox="0 0 70 70" fill="none" xmlns="http://www.w3.org/2000/svg">
<path fill-rule="evenodd" clip-rule="evenodd" d="M27.8727 19.1535C26.1217 18.7294 24.2815 18.5036 22.3832 18.5036C10.5512 18.5036 1 27.2755 1 38.0063C1 43.3307 3.38304 48.4104 7.58009 52.0812L7.58958 52.0907C7.8937 52.3497 8.04458 52.7453 7.98993 53.1409C7.98874 53.1444 7.98874 53.1468 7.98874 53.1492C7.68937 55.4324 7.06927 59.9193 7.06927 59.9193C7.00512 60.385 7.22132 60.8436 7.62047 61.0918C8.01844 61.3389 8.52568 61.3282 8.91414 61.0645L15.1604 56.8188C15.4527 56.6204 15.8162 56.5622 16.1547 56.6584C16.1571 56.6596 16.1595 56.6596 16.1607 56.6608C18.1743 57.2239 20.2722 57.509 22.3832 57.509C29.7022 57.509 36.1587 54.147 40.0065 49.0507C42.3016 49.7694 44.7655 50.1591 47.3303 50.1591C49.5802 50.1591 51.816 49.8526 53.9602 49.2479C53.9626 49.2479 53.965 49.2467 53.9674 49.2467C54.3071 49.1481 54.6718 49.2063 54.9641 49.4047L61.6309 53.9368C62.0193 54.2005 62.5266 54.2112 62.9246 53.9641C63.3237 53.7158 63.5399 53.2573 63.4758 52.7916C63.4758 52.7916 62.8045 47.9435 62.4897 45.5498V45.5427C62.4339 45.1447 62.586 44.7479 62.8913 44.4878C62.8948 44.4854 62.8984 44.483 62.902 44.4795C67.3651 40.602 69.9014 35.2217 69.9014 29.5801C69.9014 18.2554 59.818 9 47.3303 9C39.0312 9 31.793 13.0878 27.8727 19.1535ZM26.6574 21.3155C25.283 21.0304 23.8527 20.8796 22.3832 20.8796C11.9232 20.8796 3.37591 28.5205 3.37591 38.0063C3.37591 42.6571 5.4774 47.0835 9.14105 50.2909C10.0558 51.0762 10.5084 52.2725 10.3445 53.458C10.1983 54.5724 9.97619 56.2105 9.78731 57.5981L13.8263 54.8527C14.6995 54.2599 15.7912 54.0841 16.801 54.3728C18.6079 54.8776 20.4896 55.1331 22.3832 55.1331C28.6366 55.1331 34.1962 52.4067 37.6674 48.1811C30.0289 44.8715 24.7591 37.7663 24.7591 29.5801C24.7591 26.6447 25.4362 23.8483 26.6574 21.3155ZM27.135 29.5801C27.135 19.4992 36.2146 11.3759 47.3303 11.3759C58.446 11.3759 67.5255 19.4992 67.5255 29.5801C67.5255 34.5458 65.2731 39.2715 61.3458 42.6845C60.4263 43.4697 59.9701 44.6695 60.1352 45.8682C60.2956 47.0811 60.5486 48.9391 60.7577 50.4703L56.2981 47.4387C55.4226 46.8447 54.3273 46.6701 53.3092 46.9635C51.38 47.5076 49.3617 47.7832 47.3303 47.7832C36.2146 47.7832 27.135 39.6599 27.135 29.5801ZM24.7591 44.6387H14.0675C13.4118 44.6387 12.8796 45.1709 12.8796 45.8266C12.8796 46.4824 13.4118 47.0146 14.0675 47.0146H24.7591C25.4149 47.0146 25.9471 46.4824 25.9471 45.8266C25.9471 45.1709 25.4149 44.6387 24.7591 44.6387ZM22.3832 37.5109H14.0675C13.4118 37.5109 12.8796 38.0431 12.8796 38.6989C12.8796 39.3546 13.4118 39.8868 14.0675 39.8868H22.3832C23.0389 39.8868 23.5711 39.3546 23.5711 38.6989C23.5711 38.0431 23.0389 37.5109 22.3832 37.5109ZM56.8339 26.8193C54.8666 26.8193 53.27 28.4159 53.27 30.3832C53.27 32.3504 54.8666 33.9471 56.8339 33.9471C58.8012 33.9471 60.3978 32.3504 60.3978 30.3832C60.3978 28.4159 58.8012 26.8193 56.8339 26.8193ZM47.3303 26.8193C45.363 26.8193 43.7664 28.4159 43.7664 30.3832C43.7664 32.3504 45.363 33.9471 47.3303 33.9471C49.2975 33.9471 50.8941 32.3504 50.8941 30.3832C50.8941 28.4159 49.2975 26.8193 47.3303 26.8193ZM37.8266 26.8193C35.8594 26.8193 34.2627 28.4159 34.2627 30.3832C34.2627 32.3504 35.8594 33.9471 37.8266 33.9471C39.7939 33.9471 41.3905 32.3504 41.3905 30.3832C41.3905 28.4159 39.7939 26.8193 37.8266 26.8193ZM21.1952 30.3832H14.0675C13.4118 30.3832 12.8796 30.9154 12.8796 31.5711C12.8796 32.2269 13.4118 32.7591 14.0675 32.7591H21.1952C21.851 32.7591 22.3832 32.2269 22.3832 31.5711C22.3832 30.9154 21.851 30.3832 21.1952 30.3832ZM56.8339 29.1952C57.4896 29.1952 58.0219 29.7274 58.0219 30.3832C58.0219 31.0389 57.4896 31.5711 56.8339 31.5711C56.1781 31.5711 55.6459 31.0389 55.6459 30.3832C55.6459 29.7274 56.1781 29.1952 56.8339 29.1952ZM47.3303 29.1952C47.986 29.1952 48.5182 29.7274 48.5182 30.3832C48.5182 31.0389 47.986 31.5711 47.3303 31.5711C46.6745 31.5711 46.1423 31.0389 46.1423 30.3832C46.1423 29.7274 46.6745 29.1952 47.3303 29.1952ZM37.8266 29.1952C38.4824 29.1952 39.0146 29.7274 39.0146 30.3832C39.0146 31.0389 38.4824 31.5711 37.8266 31.5711C37.1709 31.5711 36.6387 31.0389 36.6387 30.3832C36.6387 29.7274 37.1709 29.1952 37.8266 29.1952Z" fill="url(#paint0_linear_1023_182)"/>
<defs>
<linearGradient id="paint0_linear_1023_182" x1="37.8242" y1="8.99999" x2="38.3779" y2="86.8453" gradientUnits="userSpaceOnUse">
<stop offset="0.170916" stop-color="#C2C2C2"/>
<stop offset="1" stop-color="#3E3E3E"/>
</linearGradient>
</defs>
</svg>
