<svg width="76" height="76" viewBox="0 0 76 76" fill="none" xmlns="http://www.w3.org/2000/svg">
<path d="M11.751 8C9.13705 8 7 10.1386 7 12.753V49.2365C7 51.8509 9.13705 53.9874 11.751 53.9874H25.7553C25.9819 54.2472 26.2184 54.5022 26.4657 54.7496C31.3778 59.6644 38.8433 60.5042 44.6287 57.27L54.1368 66.7926C55.7457 68.4025 58.3828 68.4025 59.9917 66.7926C61.6006 65.1829 61.6006 62.5414 59.9917 60.9316L53.0537 53.9874H63.7568C66.3707 53.9874 68.5078 51.8509 68.5078 49.2365V12.753C68.5078 10.1386 66.3707 8 63.7568 8H11.751ZM11.751 10.1228H63.7568C65.2319 10.1228 66.387 11.2762 66.387 12.753V18.3573H9.12074V12.753C9.12074 11.2762 10.2759 10.1228 11.751 10.1228ZM15.2531 12.8566C14.5153 12.8758 13.9069 13.4957 13.9069 14.238C13.9069 14.992 14.5347 15.6256 15.2883 15.6256C16.0419 15.6256 16.6759 14.992 16.6759 14.238C16.6759 13.4839 16.0419 12.8566 15.2883 12.8566C15.2766 12.8566 15.2647 12.8563 15.2531 12.8566ZM21.547 12.8566C20.8092 12.8758 20.2008 13.4957 20.2008 14.238C20.2008 14.992 20.8286 15.6256 21.5822 15.6256C22.3358 15.6256 22.9698 14.992 22.9698 14.238C22.9698 13.4839 22.3358 12.8566 21.5822 12.8566C21.5705 12.8566 21.5586 12.8563 21.547 12.8566ZM27.8409 12.8566C27.103 12.8758 26.4947 13.4957 26.4947 14.238C26.4947 14.992 27.1245 15.6256 27.8781 15.6256C28.6317 15.6256 29.2637 14.992 29.2637 14.238C29.2637 13.4839 28.6317 12.8566 27.8781 12.8566C27.8665 12.8566 27.8524 12.8563 27.8409 12.8566ZM9.12074 20.478H66.387V49.2365C66.387 50.7133 65.2319 51.8667 63.7568 51.8667H50.935L50.4794 51.4111C52.9705 46.9434 53.038 41.4743 50.6803 36.9531L58.1836 29.3172L58.0822 32.227C58.0726 32.5069 58.1742 32.7792 58.3647 32.9844C58.5552 33.1897 58.8192 33.3113 59.099 33.3226C59.239 33.3284 59.3787 33.3064 59.5101 33.258C59.6415 33.2095 59.762 33.1354 59.8647 33.0401C59.9673 32.9448 60.05 32.8301 60.1081 32.7026C60.1661 32.5751 60.1984 32.4374 60.2029 32.2974L60.3996 26.6704C60.4038 26.5409 60.3841 26.4117 60.3416 26.2893C60.3365 26.274 60.331 26.2588 60.3252 26.2437C60.3193 26.2284 60.313 26.2132 60.3064 26.1981C60.3057 26.1966 60.305 26.1952 60.3043 26.1937C60.2916 26.1655 60.2778 26.1379 60.2628 26.1109C60.26 26.1067 60.2572 26.1026 60.2544 26.0985C60.2483 26.088 60.242 26.0775 60.2355 26.0672C60.2321 26.0617 60.2286 26.0562 60.2251 26.0508C60.2244 26.0501 60.2258 26.0515 60.2251 26.0508C60.2211 26.0438 60.2148 26.0347 60.2106 26.0278C60.2052 26.0208 60.1997 26.0139 60.1941 26.007C60.19 26.0021 60.1859 25.9973 60.1817 25.9926C60.1749 25.9828 60.168 25.9732 60.1609 25.9637C60.1574 25.9595 60.154 25.9554 60.1505 25.9513C60.1423 25.9415 60.1341 25.9319 60.1256 25.9224C60.1135 25.909 60.1011 25.8959 60.0883 25.8831C60.0876 25.8817 60.0869 25.8802 60.0862 25.8787C60.0821 25.8759 60.0779 25.8731 60.0738 25.8703C60.0109 25.8087 59.9407 25.7551 59.8646 25.7109C59.8618 25.7101 59.859 25.7094 59.8562 25.7087C59.7817 25.6669 59.7024 25.6342 59.6201 25.6114C59.6091 25.6084 59.598 25.6056 59.5868 25.603C59.5116 25.5842 59.4345 25.5737 59.357 25.5717C59.3439 25.5715 59.3308 25.5715 59.3177 25.5717C59.3129 25.5717 59.3081 25.5717 59.3033 25.5717L53.5644 25.7684C53.2846 25.7798 53.0206 25.9013 52.8301 26.1066C52.6396 26.3119 52.538 26.5841 52.5475 26.864C52.5521 27.0033 52.584 27.1403 52.6416 27.2672C52.6991 27.3941 52.7811 27.5085 52.8828 27.6037C52.9846 27.6989 53.1041 27.7731 53.2346 27.8221C53.365 27.8711 53.5038 27.8939 53.6431 27.8892L56.7165 27.7856L49.5321 35.0964C49.0637 34.4478 48.5393 33.8284 47.956 33.2449C42.0308 27.3163 32.3902 27.3163 26.4649 33.2449C21.4249 38.2877 20.6714 46.019 24.2054 51.8656H11.75C10.2749 51.8656 9.11978 50.7122 9.11978 49.2354L9.12074 20.478ZM37.2102 30.9078C40.5546 30.9078 43.8999 32.1864 46.4574 34.7454C47.0481 35.3364 47.5689 35.9689 48.0231 36.6342L41.7003 43.0689L38.1609 38.9268C38.0619 38.8111 37.9392 38.718 37.801 38.6539C37.6629 38.5898 37.5125 38.5562 37.3602 38.5554C37.208 38.5546 37.0573 38.5866 36.9185 38.6492C36.7796 38.7119 36.656 38.8037 36.5558 38.9184L29.5826 46.9188C29.3979 47.1306 29.3049 47.4071 29.3239 47.6875C29.3429 47.9678 29.4725 48.2292 29.6841 48.4141C29.8959 48.5988 30.1724 48.6918 30.4527 48.6728C30.7331 48.6538 30.9944 48.5242 31.1794 48.3126L37.3469 41.2359L40.8304 45.3303C40.926 45.4426 41.0439 45.5337 41.1767 45.5978C41.3094 45.6619 41.4541 45.6976 41.6014 45.7027C41.7487 45.7078 41.8955 45.682 42.0323 45.6272C42.1692 45.5724 42.2931 45.4896 42.3961 45.3842L49.1084 38.5539C50.9217 42.5138 50.6519 47.186 48.3006 50.9346C48.2674 50.9785 48.2376 51.0249 48.2116 51.0733C47.715 51.8432 47.1318 52.5731 46.4574 53.2479C45.7746 53.9312 45.0339 54.522 44.2538 55.0228C44.2334 55.0352 44.2134 55.0483 44.1938 55.0621C39.1372 58.2693 32.3797 57.6649 27.9651 53.2479C27.6645 52.947 27.3814 52.6352 27.116 52.3138C27.1033 52.2983 27.0902 52.2831 27.0767 52.2682C22.8681 47.1239 23.1652 39.5478 27.9652 34.7452C30.5227 32.1862 33.8659 30.9078 37.2102 30.9078ZM49.2885 53.2253L58.4964 62.4331C59.3007 63.2379 59.3006 64.4864 58.4964 65.2912C57.6921 66.0959 56.4447 66.0959 55.6404 65.2912L46.4326 56.0812C46.9623 55.676 47.4727 55.234 47.9569 54.7496C48.4406 54.2656 48.8838 53.7548 49.2885 53.2253Z" fill="white"/>
</svg>
