<svg width="50" height="50" viewBox="0 0 50 50" fill="none" xmlns="http://www.w3.org/2000/svg">
<g clip-path="url(#clip0_1156_308)">
<path d="M41.9032 29.8051C40.8167 28.6738 39.5062 28.069 38.1173 28.069C36.7396 28.069 35.418 28.6626 34.2867 29.7939L30.7473 33.3221C30.456 33.1653 30.1648 33.0197 29.8848 32.8741C29.4816 32.6725 29.1008 32.4821 28.7759 32.2805C25.4605 30.1747 22.4475 27.4306 19.5577 23.8799C18.1576 22.1102 17.2168 20.6205 16.5335 19.1084C17.452 18.2684 18.3033 17.3947 19.1321 16.5547C19.4457 16.241 19.7594 15.9162 20.073 15.6026C22.4251 13.2504 22.4251 10.2039 20.073 7.8517L17.0152 4.79391C16.668 4.44668 16.3095 4.08826 15.9735 3.72984C15.3015 3.03539 14.5958 2.31855 13.8678 1.64651C12.7813 0.571236 11.482 0 10.1155 0C8.74905 0 7.42736 0.571236 6.30729 1.64651C6.29609 1.65771 6.29609 1.65771 6.28489 1.66891L2.47664 5.51075C1.04295 6.94445 0.225301 8.69176 0.0460893 10.7191C-0.222728 13.9897 0.740534 17.0363 1.47978 19.03C3.2943 23.9247 6.00487 28.461 10.0483 33.3221C14.9542 39.1801 20.857 43.806 27.5999 47.0654C30.176 48.2863 33.6146 49.7312 37.4565 49.9776C37.6917 49.9888 37.9381 50 38.1621 50C40.7495 50 42.9224 49.0703 44.6249 47.2222C44.6361 47.1998 44.6585 47.1886 44.6697 47.1662C45.2522 46.4606 45.9242 45.8221 46.6299 45.1389C47.1115 44.6797 47.6043 44.198 48.086 43.694C49.1948 42.5403 49.7773 41.1962 49.7773 39.8186C49.7773 38.4297 49.1836 37.0968 48.0524 35.9767L41.9032 29.8051ZM45.913 41.5995C45.9018 41.5995 45.9018 41.6107 45.913 41.5995C45.4762 42.0699 45.0282 42.4955 44.5465 42.966C43.8185 43.6604 43.0792 44.3884 42.3848 45.2061C41.2535 46.4158 39.9206 46.987 38.1733 46.987C38.0053 46.987 37.8261 46.987 37.6581 46.9758C34.3315 46.763 31.2401 45.4637 28.9215 44.3548C22.5819 41.2858 17.0152 36.9288 12.3893 31.4068C8.56984 26.8033 6.01607 22.547 4.32476 17.9772C3.2831 15.1882 2.90227 13.0152 3.07028 10.9655C3.18229 9.65502 3.68632 8.56855 4.61598 7.63889L8.43543 3.81944C8.98426 3.30421 9.5667 3.02419 10.1379 3.02419C10.8436 3.02419 11.4148 3.44982 11.7732 3.80824C11.7844 3.81944 11.7956 3.83065 11.8068 3.84185C12.4901 4.48029 13.1397 5.14113 13.823 5.84678C14.1702 6.2052 14.5286 6.56362 14.887 6.93324L17.9448 9.99104C19.1321 11.1783 19.1321 12.276 17.9448 13.4633C17.62 13.7881 17.3064 14.1129 16.9816 14.4265C16.0407 15.3898 15.1447 16.2858 14.1702 17.1595C14.1478 17.1819 14.1254 17.1931 14.1142 17.2155C13.1509 18.1788 13.3301 19.1196 13.5318 19.7581C13.543 19.7917 13.5542 19.8253 13.5654 19.8589C14.3606 21.7854 15.4807 23.5999 17.1832 25.7617L17.1944 25.7729C20.2858 29.5811 23.5452 32.5493 27.1406 34.823C27.5999 35.1142 28.0703 35.3495 28.5183 35.5735C28.9215 35.7751 29.3024 35.9655 29.6272 36.1671C29.672 36.1895 29.7168 36.2231 29.7616 36.2455C30.1424 36.4359 30.5008 36.5255 30.8705 36.5255C31.8001 36.5255 32.3826 35.9431 32.573 35.7527L36.4036 31.922C36.7844 31.5412 37.3893 31.082 38.0949 31.082C38.7894 31.082 39.3606 31.5188 39.7078 31.8996C39.719 31.9108 39.719 31.9108 39.7302 31.922L45.9018 38.0936C47.0555 39.2361 47.0555 40.4122 45.913 41.5995Z" fill="url(#paint0_linear_1156_308)"/>
</g>
<defs>
<linearGradient id="paint0_linear_1156_308" x1="26.6034" y1="-5.07971e-06" x2="27.3046" y2="74.4617" gradientUnits="userSpaceOnUse">
<stop offset="0.170916" stop-color="#C2C2C2"/>
<stop offset="1" stop-color="#3E3E3E"/>
</linearGradient>
<clipPath id="clip0_1156_308">
<rect width="50" height="50" fill="white"/>
</clipPath>
</defs>
</svg>
