<svg width="124" height="124" viewBox="0 0 124 124" fill="none" xmlns="http://www.w3.org/2000/svg">
<path d="M18.9183 12C14.5618 12 11 15.5644 11 19.9217V80.7274C11 85.0848 14.5618 88.6457 18.9183 88.6457H42.2589C42.6366 89.0787 43.0307 89.5036 43.4428 89.9159C51.6297 98.1074 64.0721 99.5069 73.7145 94.1167L89.5614 109.988C92.2429 112.671 96.638 112.671 99.3195 109.988C102.001 107.305 102.001 102.902 99.3195 100.219L87.7561 88.6457H105.595C109.951 88.6457 113.513 85.0848 113.513 80.7274V19.9217C113.513 15.5644 109.951 12 105.595 12H18.9183ZM18.9183 15.538H105.595C108.053 15.538 109.978 17.4603 109.978 19.9217V29.2621H14.5346V19.9217C14.5346 17.4603 16.4598 15.538 18.9183 15.538ZM24.7551 20.0943C23.5254 20.1264 22.5115 21.1595 22.5115 22.3966C22.5115 23.6533 23.5578 24.7093 24.8138 24.7093C26.0698 24.7093 27.1265 23.6533 27.1265 22.3966C27.1265 21.1399 26.0698 20.0943 24.8138 20.0943C24.7944 20.0943 24.7746 20.0938 24.7551 20.0943ZM35.245 20.0943C34.0153 20.1264 33.0013 21.1595 33.0013 22.3966C33.0013 23.6533 34.0476 24.7093 35.3036 24.7093C36.5596 24.7093 37.6163 23.6533 37.6163 22.3966C37.6163 21.1399 36.5596 20.0943 35.3036 20.0943C35.2842 20.0943 35.2644 20.0938 35.245 20.0943ZM45.7348 20.0943C44.5051 20.1264 43.4911 21.1595 43.4911 22.3966C43.4911 23.6533 44.5409 24.7093 45.7969 24.7093C47.0529 24.7093 48.1061 23.6533 48.1061 22.3966C48.1061 21.1399 47.0529 20.0943 45.7969 20.0943C45.7775 20.0943 45.7541 20.0938 45.7348 20.0943ZM14.5346 32.7967H109.978V80.7274C109.978 83.1888 108.053 85.1111 105.595 85.1111H84.225L83.4657 84.3518C87.6175 76.9056 87.73 67.7906 83.8004 60.2552L96.3061 47.5287L96.1369 52.3784C96.1211 52.8448 96.2904 53.2986 96.6079 53.6407C96.9254 53.9828 97.3654 54.1854 97.8317 54.2043C98.065 54.214 98.2978 54.1774 98.5169 54.0966C98.7359 54.0158 98.9367 53.8924 99.1078 53.7335C99.2788 53.5747 99.4167 53.3835 99.5135 53.171C99.6103 52.9586 99.6639 52.7291 99.6715 52.4957L99.9994 43.1174C100.006 42.9015 99.9735 42.6862 99.9027 42.4822C99.8942 42.4567 99.8851 42.4313 99.8754 42.4062C99.8655 42.3806 99.855 42.3553 99.844 42.3302C99.8428 42.3277 99.8416 42.3253 99.8404 42.3228C99.8194 42.2759 99.7963 42.2298 99.7713 42.1848C99.7667 42.1779 99.762 42.171 99.7573 42.1641C99.7471 42.1466 99.7366 42.1292 99.7259 42.112C99.7202 42.1029 99.7144 42.0937 99.7085 42.0847C99.7073 42.0835 99.7097 42.0858 99.7085 42.0847C99.7018 42.073 99.6913 42.0579 99.6843 42.0464C99.6753 42.0347 99.6662 42.0231 99.6569 42.0116C99.6501 42.0036 99.6432 41.9956 99.6362 41.9876C99.6249 41.9714 99.6133 41.9553 99.6014 41.9395C99.5957 41.9326 99.5899 41.9257 99.5841 41.9188C99.5706 41.9025 99.5568 41.8865 99.5427 41.8707C99.5225 41.8484 99.5018 41.8265 99.4806 41.8052C99.4794 41.8028 99.4782 41.8003 99.477 41.7979C99.4701 41.7932 99.4632 41.7885 99.4563 41.7839C99.3516 41.6812 99.2345 41.5919 99.1077 41.5181C99.103 41.5169 99.0984 41.5157 99.0937 41.5146C98.9695 41.4448 98.8374 41.3903 98.7002 41.3523C98.6818 41.3473 98.6633 41.3427 98.6447 41.3383C98.5193 41.307 98.3908 41.2895 98.2616 41.2862C98.2398 41.2858 98.218 41.2858 98.1961 41.2862C98.1881 41.2861 98.1801 41.2861 98.1721 41.2862L88.6074 41.6141C88.141 41.633 87.701 41.8356 87.3835 42.1777C87.066 42.5198 86.8967 42.9736 86.9126 43.44C86.9201 43.6722 86.9734 43.9005 87.0693 44.112C87.1652 44.3236 87.3018 44.5141 87.4714 44.6728C87.641 44.8315 87.8402 44.9552 88.0576 45.0369C88.275 45.1185 88.5064 45.1565 88.7385 45.1487L93.8609 44.976L81.8868 57.1606C81.1061 56.0797 80.2321 55.0474 79.2601 54.0748C69.3846 44.1938 53.3169 44.1938 43.4415 54.0748C35.0414 62.4795 33.7856 75.3649 39.6756 85.1093H18.9167C16.4582 85.1093 14.533 83.187 14.533 80.7256L14.5346 32.7967ZM61.3504 50.1796C66.9243 50.1796 72.4998 52.3107 76.7624 56.5757C77.7468 57.5607 78.6148 58.6148 79.3719 59.7236L68.8338 70.4482L62.9348 63.5447C62.7698 63.3518 62.5653 63.1966 62.335 63.0897C62.1048 62.9829 61.8542 62.9269 61.6004 62.9256C61.3466 62.9243 61.0955 62.9776 60.8641 63.082C60.6327 63.1865 60.4266 63.3395 60.2597 63.5307L48.6377 76.8647C48.3299 77.2177 48.1748 77.6785 48.2065 78.1458C48.2382 78.6131 48.4541 79.0487 48.8068 79.3569C49.1598 79.6646 49.6206 79.8197 50.0879 79.788C50.5552 79.7563 50.9907 79.5404 51.2989 79.1877L61.5782 67.3932L67.384 74.2172C67.5433 74.4043 67.7398 74.5561 67.9611 74.663C68.1823 74.7698 68.4234 74.8294 68.669 74.8378C68.9145 74.8462 69.1591 74.8034 69.3872 74.712C69.6153 74.6206 69.8218 74.4827 69.9935 74.307L81.1806 62.9232C84.2028 69.5231 83.7532 77.31 79.8344 83.5577C79.779 83.6308 79.7294 83.7081 79.686 83.7889C78.8584 85.072 77.8864 86.2886 76.7624 87.4132C75.6243 88.552 74.3899 89.5366 73.0897 90.3714C73.0556 90.392 73.0223 90.4139 72.9897 90.4368C64.5619 95.7821 53.2995 94.7748 45.9419 87.4131C45.4408 86.9117 44.9689 86.392 44.5267 85.8564C44.5056 85.8304 44.4837 85.8051 44.4611 85.7804C37.4469 77.2066 37.942 64.5797 45.9419 56.5753C50.2045 52.3104 55.7765 50.1796 61.3504 50.1796ZM81.4809 87.3755L96.8273 102.722C98.1678 104.063 98.1677 106.144 96.8273 107.485C95.4868 108.826 93.4078 108.826 92.0674 107.485L76.721 92.1354C77.6038 91.46 78.4546 90.7233 79.2614 89.9159C80.0676 89.1093 80.8063 88.258 81.4809 87.3755Z" fill="url(#paint0_linear_1023_160)"/>
<defs>
<linearGradient id="paint0_linear_1023_160" x1="65.7878" y1="12" x2="67.1498" y2="160.924" gradientUnits="userSpaceOnUse">
<stop offset="0.170916" stop-color="#C2C2C2"/>
<stop offset="1" stop-color="#3E3E3E"/>
</linearGradient>
</defs>
</svg>
