<svg width="101" height="64" viewBox="0 0 101 64" fill="none" xmlns="http://www.w3.org/2000/svg">
<path fill-rule="evenodd" clip-rule="evenodd" d="M2.50368 21.6952C3.87174 17.5402 6.07886 13.7663 8.92455 10.574L2.50368 21.6952ZM1.25278 27.0197L12.9267 6.79999C13.9006 6.0294 14.9211 5.31501 15.9831 4.66172L0.9375 30.7215C0.970916 29.468 1.07738 28.2327 1.25278 27.0197ZM1.00088 33.7697C1.06208 34.6628 1.16042 35.5458 1.29437 36.417L21.0928 2.12515C20.2628 2.44698 19.4497 2.80288 18.6554 3.19114L1.00088 33.7697ZM23.3682 1.34199L1.75153 38.7831C1.92087 39.5089 2.11524 40.225 2.33367 40.9305L25.517 0.775847C24.7909 0.939867 24.0743 1.1289 23.3682 1.34199ZM27.5665 0.383914L3.01752 42.904C3.25625 43.5252 3.51404 44.1369 3.79018 44.7385L29.5407 0.13731C28.8764 0.199152 28.2181 0.281568 27.5665 0.383914ZM31.4329 0.0178613L4.63275 46.437C4.92008 46.9749 5.22252 47.5035 5.5395 48.0222L33.26 0.00884652C33.0091 0.00295978 32.7574 0 32.5051 0C32.1462 0 31.7888 0.00598521 31.4329 0.0178613ZM35.0309 0.0995381L6.50526 49.5073C6.83232 49.9807 7.17198 50.4448 7.52375 50.899L36.7472 0.282479C36.1797 0.206288 35.6075 0.145169 35.0309 0.0995381ZM38.4148 0.55204L8.59256 52.2056C8.95349 52.6237 9.32519 53.0322 9.70724 53.4307L40.0341 0.903073C39.4995 0.772325 38.9596 0.655184 38.4148 0.55204ZM41.6095 1.33221L10.867 54.5797C11.2583 54.9479 11.6589 55.3063 12.0686 55.6544L43.1407 1.83577C42.6361 1.65531 42.1256 1.48734 41.6095 1.33221ZM44.6312 2.41205L13.3122 56.6582C13.7317 56.9798 14.1595 57.291 14.5953 57.5916L46.08 3.05847C45.6035 2.83129 45.1205 2.61569 44.6312 2.41205ZM47.4897 3.77467L15.919 58.4567C16.3658 58.733 16.82 58.9985 17.2813 59.2528L48.8588 4.55897C48.4097 4.28653 47.9532 4.02498 47.4897 3.77467ZM50.1894 5.41226L18.6842 59.9809C19.1582 60.212 19.639 60.4316 20.126 60.6394L51.4794 6.33369C51.0575 6.01609 50.6273 5.70882 50.1894 5.41226ZM52.73 7.32542L21.6094 61.2279C22.1142 61.4135 22.6251 61.5866 23.1417 61.7467L53.9451 8.39351C53.5494 8.02734 53.1442 7.67118 52.73 7.32542ZM55.1122 9.53008L24.7098 62.1886C25.2417 62.3236 25.7791 62.4452 26.3214 62.5528L56.2344 10.742C55.8708 10.3283 55.4966 9.92419 55.1122 9.53008ZM57.3112 12.0349L27.9809 62.8364C28.5455 62.9174 29.1149 62.9834 29.6887 63.0341L58.3382 13.4117C58.0081 12.9432 57.6656 12.4841 57.3112 12.0349ZM59.3132 14.8809L31.4504 63.1407C31.8005 63.1522 32.1521 63.158 32.5051 63.158C32.76 63.158 33.0141 63.155 33.2676 63.149L60.2301 16.4485C59.9392 15.9165 59.6333 15.3937 59.3132 14.8809ZM61.084 18.1273L35.1485 63.0489C35.8046 62.9946 36.455 62.9201 37.099 62.8263L61.8657 19.9291C61.6234 19.319 61.3626 18.7181 61.084 18.1273ZM62.5652 21.8754L39.133 62.4613C39.8523 62.3077 40.5626 62.1295 41.2629 61.9278L63.1663 23.9901C62.99 23.2753 62.7893 22.5701 62.5652 21.8754ZM63.6473 26.3148L43.5145 61.1859C44.3329 60.8815 45.1352 60.5441 45.9199 60.1753L63.9726 28.907C63.8994 28.0323 63.7904 27.1678 63.6473 26.3148ZM64.0827 31.8742L48.5446 58.7872C49.5738 58.1791 50.5655 57.5143 51.5155 56.7971L63.8516 35.4303C63.9935 34.2634 64.0717 33.0768 64.0827 31.8742ZM55.2513 53.4844L62.8657 40.2959C61.4269 45.3163 58.7765 49.8247 55.2513 53.4844Z" fill="url(#paint0_linear_1231_463)"/>
<path d="M53.4173 5.63296C53.0906 5.10104 53.2561 4.40309 53.7994 4.09564C58.3315 1.53084 63.4333 0.123687 68.6512 0.00778713C74.2462 -0.116489 79.7738 1.24834 84.668 3.96255C89.5621 6.67676 93.6471 10.6428 96.5046 15.4547C99.3622 20.2666 100.89 25.7515 100.931 31.3478C100.972 36.944 99.5246 42.4507 96.7379 47.3039C93.9511 52.1571 89.9247 56.1826 85.0708 58.9682C80.2169 61.7538 74.7099 63.1994 69.1136 63.1571C63.8946 63.1176 58.7727 61.7853 54.2035 59.2872C53.6558 58.9877 53.4801 58.2923 53.799 57.7556V57.7556C54.1179 57.219 54.8105 57.0445 55.359 57.3425C59.5831 59.6368 64.3123 60.8602 69.1307 60.8966C74.3264 60.9359 79.4391 59.5938 83.9456 57.0076C88.452 54.4214 92.1902 50.6841 94.7775 46.1782C97.3648 41.6724 98.7082 36.56 98.6701 31.3643C98.6321 26.1687 97.214 21.0764 94.561 16.609C91.908 12.1415 88.1154 8.45937 83.5716 5.93946C79.0278 3.41954 73.8959 2.15241 68.7014 2.26779C63.884 2.37479 59.1733 3.66727 54.9832 6.02325C54.4391 6.3292 53.744 6.16489 53.4173 5.63296V5.63296Z" fill="url(#paint1_linear_1231_463)"/>
<defs>
<linearGradient id="paint0_linear_1231_463" x1="32.5101" y1="0" x2="32.5101" y2="63.158" gradientUnits="userSpaceOnUse">
<stop stop-color="#C2C2C2"/>
<stop offset="1" stop-color="#3E3E3E"/>
</linearGradient>
<linearGradient id="paint1_linear_1231_463" x1="69.3524" y1="0" x2="69.3524" y2="63.158" gradientUnits="userSpaceOnUse">
<stop stop-color="#C2C2C2"/>
<stop offset="1" stop-color="#3E3E3E"/>
</linearGradient>
</defs>
</svg>
