<svg width="204" height="50" viewBox="0 0 204 50" fill="none" xmlns="http://www.w3.org/2000/svg">
<path fill-rule="evenodd" clip-rule="evenodd" d="M2.17968 17.1667C3.26196 13.8837 5.00602 10.9015 7.25395 8.37784L2.17968 17.1667ZM1.18726 21.3857L10.4244 5.38643C11.196 4.77567 12.0046 4.20948 12.8461 3.69174L0.937012 24.3188C0.963581 23.3256 1.04808 22.3468 1.18726 21.3857ZM0.986991 26.7323C1.03542 27.4399 1.11331 28.1395 1.21942 28.8298L16.8929 1.68252C16.2353 1.93751 15.5911 2.21952 14.9618 2.52719L0.986991 26.7323ZM18.6943 1.06249L1.58132 30.703C1.71548 31.2779 1.86947 31.8453 2.04254 32.4042L20.3966 0.613995C19.8214 0.743915 19.2537 0.893666 18.6943 1.06249ZM22.0191 0.303787L2.58396 33.9664C2.77211 34.456 2.9752 34.9381 3.1927 35.4122L23.5748 0.109287C23.0514 0.158151 22.5327 0.223152 22.0191 0.303787ZM25.073 0.0143422L3.85951 36.7572C4.08704 37.1834 4.32655 37.6022 4.57759 38.0132L26.5206 0.00688676C26.3236 0.00230403 26.126 0 25.9279 0C25.6418 0 25.3568 0.00480619 25.073 0.0143422ZM27.9226 0.0784179L5.34199 39.1892C5.60105 39.5644 5.8701 39.9321 6.14876 40.292L29.2825 0.223129C28.8329 0.162831 28.3795 0.114484 27.9226 0.0784179ZM30.6028 0.436347L6.99479 41.3266C7.2807 41.6579 7.57515 41.9815 7.87781 42.2973L31.8858 0.7143C31.4622 0.610756 31.0345 0.518003 30.6028 0.436347ZM33.1331 1.05391L8.7959 43.2071C9.10584 43.4988 9.42323 43.7828 9.74775 44.0585L34.3462 1.45275C33.9464 1.30981 33.5419 1.17677 33.1331 1.05391ZM35.5262 1.9089L10.7322 44.8534C11.0645 45.1081 11.4034 45.3546 11.7486 45.5928L36.6739 2.4209C36.2964 2.24095 35.9138 2.07019 35.5262 1.9089ZM37.7899 2.98785L12.7965 46.2777C13.1505 46.4966 13.5104 46.7069 13.8758 46.9084L38.8746 3.60919C38.5188 3.39335 38.1571 3.18614 37.7899 2.98785ZM39.928 4.28471L14.9864 47.4848C15.362 47.6679 15.7428 47.8419 16.1287 48.0064L40.9499 5.01473C40.6157 4.7631 40.2749 4.51966 39.928 4.28471ZM41.94 5.79989L17.303 48.4724C17.7008 48.6186 18.1033 48.7549 18.5102 48.8812L42.8974 6.64132C42.5856 6.35289 42.2663 6.07231 41.94 5.79989ZM43.8215 7.54087L19.7515 49.2312C20.1729 49.3383 20.5986 49.4347 21.0282 49.5201L44.7107 8.5008C44.4226 8.17311 44.1261 7.85302 43.8215 7.54087ZM45.5633 9.52407L22.3419 49.7447C22.7891 49.809 23.2402 49.8614 23.6947 49.9016L46.377 10.6147C46.1155 10.2436 45.8441 9.87992 45.5633 9.52407ZM47.149 11.7776L25.0893 49.9862C25.3677 49.9954 25.6473 50 25.9279 50C26.1288 50 26.3291 49.9976 26.5288 49.9929L47.8755 13.0193C47.645 12.5979 47.4027 12.1838 47.149 11.7776ZM48.5517 14.3482L28.0178 49.9139C28.5375 49.8709 29.0526 49.812 29.5628 49.7377L49.171 15.7753C48.979 15.292 48.7724 14.8161 48.5517 14.3482ZM49.7248 17.316L31.1729 49.4489C31.7428 49.3272 32.3055 49.1861 32.8603 49.0264L50.2011 18.9912C50.0614 18.4249 49.9024 17.8663 49.7248 17.316ZM50.5819 20.8315L34.6427 48.4391C35.291 48.198 35.9267 47.9307 36.5483 47.6385L50.8397 22.8851C50.7817 22.1922 50.6954 21.5072 50.5819 20.8315ZM50.9268 25.2342L38.6262 46.5395C39.4418 46.0577 40.2275 45.5309 40.9802 44.9625L50.7435 28.0519C50.856 27.1273 50.9181 26.1871 50.9268 25.2342ZM43.9386 42.3383L49.962 31.9055C48.8231 35.8765 46.7267 39.4427 43.9386 42.3383Z" fill="url(#paint0_linear_822_604)"/>
<path d="M42.4882 4.45942C42.2296 4.03831 42.3606 3.48577 42.7907 3.24237C46.3786 1.21191 50.4175 0.0979186 54.5484 0.0061648C58.9778 -0.0922203 63.3537 0.988271 67.2283 3.13702C71.1028 5.28576 74.3368 8.42557 76.599 12.235C78.8612 16.0444 80.0704 20.3866 80.1028 24.8169C80.1353 29.2473 78.9898 33.6067 76.7836 37.4489C74.5774 41.291 71.3898 44.4778 67.5472 46.6831C63.7045 48.8883 59.3448 50.0328 54.9144 49.9993C50.7827 49.968 46.7279 48.9133 43.1106 46.9356C42.677 46.6985 42.538 46.148 42.7904 45.7231C43.0428 45.2983 43.5911 45.1602 44.0254 45.396C47.3695 47.2124 51.1134 48.1809 54.928 48.2097C59.0412 48.2408 63.0888 47.1783 66.6564 45.1309C70.224 43.0835 73.1834 40.1248 75.2316 36.5577C77.2799 32.9906 78.3434 28.9433 78.3133 24.83C78.2832 20.7168 77.1605 16.6855 75.0602 13.1488C72.96 9.61204 69.9575 6.69699 66.3603 4.70206C62.7631 2.70713 58.7004 1.70399 54.5881 1.79533C50.7744 1.88004 47.045 2.90325 43.7279 4.7684C43.2971 5.01061 42.7469 4.88053 42.4882 4.45942Z" fill="url(#paint1_linear_822_604)"/>
<path d="M111.024 10.92C113.61 10.92 115.837 11.3867 117.704 12.32C119.597 13.2267 121.037 14.52 122.024 16.2C123.037 17.8533 123.544 19.8 123.544 22.04C123.544 22.8133 123.45 23.7867 123.264 24.96C122.784 27.7067 121.744 30.1467 120.144 32.28C118.57 34.4133 116.557 36.0667 114.104 37.24C111.677 38.4133 108.997 39 106.064 39H95.5435L100.504 10.92H111.024ZM106.664 33.16C109.25 33.16 111.397 32.44 113.104 31C114.81 29.56 115.877 27.5467 116.304 24.96C116.437 24.16 116.504 23.4933 116.504 22.96C116.504 20.9867 115.904 19.4667 114.704 18.4C113.504 17.3067 111.797 16.76 109.584 16.76H106.304L103.424 33.16H106.664ZM128.806 14.36C127.739 14.36 126.886 14.08 126.246 13.52C125.633 12.9333 125.326 12.2 125.326 11.32C125.326 10.12 125.793 9.09333 126.726 8.24C127.659 7.38666 128.793 6.96 130.126 6.96C131.193 6.96 132.033 7.25333 132.646 7.84C133.259 8.4 133.566 9.13333 133.566 10.04C133.566 11.2133 133.099 12.2267 132.166 13.08C131.233 13.9333 130.113 14.36 128.806 14.36ZM131.766 16.68L127.846 39H121.006L124.926 16.68H131.766ZM141.683 16.36C143.256 16.36 144.59 16.68 145.683 17.32C146.776 17.96 147.536 18.8 147.963 19.84L148.523 16.68H155.363L151.443 38.96C151.07 41.0133 150.323 42.8667 149.203 44.52C148.11 46.2 146.63 47.5333 144.763 48.52C142.923 49.5067 140.776 50 138.323 50C135.016 50 132.47 49.2133 130.683 47.64C128.896 46.0933 128.096 43.9867 128.283 41.32H135.043C135.123 42.1733 135.51 42.84 136.203 43.32C136.923 43.8267 137.87 44.08 139.043 44.08C140.456 44.08 141.656 43.6667 142.643 42.84C143.63 42.04 144.283 40.7467 144.603 38.96L145.163 35.8C144.31 36.84 143.23 37.6933 141.923 38.36C140.643 39 139.216 39.32 137.643 39.32C136.07 39.32 134.67 38.96 133.443 38.24C132.243 37.52 131.296 36.4933 130.603 35.16C129.936 33.8267 129.603 32.2667 129.603 30.48C129.603 29.6533 129.683 28.76 129.843 27.8C130.243 25.5067 131.03 23.4933 132.203 21.76C133.376 20.0267 134.79 18.6933 136.443 17.76C138.096 16.8267 139.843 16.36 141.683 16.36ZM146.563 27.84C146.643 27.36 146.683 26.92 146.683 26.52C146.683 25.2133 146.296 24.1867 145.523 23.44C144.776 22.6933 143.816 22.32 142.643 22.32C141.283 22.32 140.043 22.8133 138.923 23.8C137.803 24.76 137.096 26.0933 136.803 27.8C136.723 28.28 136.683 28.72 136.683 29.12C136.683 30.4267 137.056 31.4667 137.803 32.24C138.576 32.9867 139.536 33.36 140.683 33.36C142.043 33.36 143.283 32.8667 144.403 31.88C145.523 30.8933 146.243 29.5467 146.563 27.84ZM165.231 16.36C166.805 16.36 168.138 16.68 169.231 17.32C170.325 17.96 171.085 18.8 171.511 19.84L172.071 16.68H178.911L174.991 38.96C174.618 41.0133 173.871 42.8667 172.751 44.52C171.658 46.2 170.178 47.5333 168.311 48.52C166.471 49.5067 164.325 50 161.871 50C158.565 50 156.018 49.2133 154.231 47.64C152.445 46.0933 151.645 43.9867 151.831 41.32H158.591C158.671 42.1733 159.058 42.84 159.751 43.32C160.471 43.8267 161.418 44.08 162.591 44.08C164.005 44.08 165.205 43.6667 166.191 42.84C167.178 42.04 167.831 40.7467 168.151 38.96L168.711 35.8C167.858 36.84 166.778 37.6933 165.471 38.36C164.191 39 162.765 39.32 161.191 39.32C159.618 39.32 158.218 38.96 156.991 38.24C155.791 37.52 154.845 36.4933 154.151 35.16C153.485 33.8267 153.151 32.2667 153.151 30.48C153.151 29.6533 153.231 28.76 153.391 27.8C153.791 25.5067 154.578 23.4933 155.751 21.76C156.925 20.0267 158.338 18.6933 159.991 17.76C161.645 16.8267 163.391 16.36 165.231 16.36ZM170.111 27.84C170.191 27.36 170.231 26.92 170.231 26.52C170.231 25.2133 169.845 24.1867 169.071 23.44C168.325 22.6933 167.365 22.32 166.191 22.32C164.831 22.32 163.591 22.8133 162.471 23.8C161.351 24.76 160.645 26.0933 160.351 27.8C160.271 28.28 160.231 28.72 160.231 29.12C160.231 30.4267 160.605 31.4667 161.351 32.24C162.125 32.9867 163.085 33.36 164.231 33.36C165.591 33.36 166.831 32.8667 167.951 31.88C169.071 30.8933 169.791 29.5467 170.111 27.84ZM185.34 16.68L188.06 30.64L195.66 16.68H203.06L183.26 49.6H175.9L183.02 38.24L177.74 16.68H185.34Z" fill="white"/>
<defs>
<linearGradient id="paint0_linear_822_604" x1="25.9319" y1="0" x2="25.9319" y2="50" gradientUnits="userSpaceOnUse">
<stop stop-color="#C2C2C2"/>
<stop offset="1" stop-color="#3E3E3E"/>
</linearGradient>
<linearGradient id="paint1_linear_822_604" x1="55.1035" y1="0" x2="55.1035" y2="50" gradientUnits="userSpaceOnUse">
<stop stop-color="#C2C2C2"/>
<stop offset="1" stop-color="#3E3E3E"/>
</linearGradient>
</defs>
</svg>
