<svg width="148" height="31" viewBox="0 0 148 31" fill="none" xmlns="http://www.w3.org/2000/svg">
<path fill-rule="evenodd" clip-rule="evenodd" d="M26.0773 0.120972H3.57258C2.6428 0.120971 1.75103 0.490001 1.09313 1.14701C0.435234 1.80402 0.0650025 2.69529 0.0637494 3.62507V26.0967C0.0618815 26.5587 0.151262 27.0165 0.32676 27.4438C0.502259 27.8712 0.760421 28.2597 1.08643 28.587C1.41244 28.9143 1.79988 29.174 2.22652 29.3513C2.65316 29.5285 3.1106 29.6197 3.57258 29.6197H26.0773C26.5389 29.6191 26.9958 29.5274 27.4219 29.3499C27.848 29.1724 28.2349 28.9126 28.5604 28.5853C28.8859 28.258 29.1436 27.8698 29.3188 27.4427C29.494 27.0157 29.5833 26.5583 29.5814 26.0967V3.62507C29.5802 2.69611 29.2106 1.80556 28.5537 1.14868C27.8968 0.491805 27.0063 0.122223 26.0773 0.120972ZM12.7939 21.3678C12.7933 21.5222 12.7622 21.675 12.7024 21.8174C12.6426 21.9597 12.5552 22.0889 12.4454 22.1974C12.3355 22.3059 12.2054 22.3917 12.0623 22.4498C11.9192 22.5078 11.7661 22.5371 11.6117 22.5359H6.69364C6.38468 22.5346 6.08879 22.411 5.87077 22.1921C5.65274 21.9732 5.53033 21.6768 5.53033 21.3678V6.73194C5.53033 6.42298 5.65274 6.1266 5.87077 5.90769C6.08879 5.68877 6.38468 5.56516 6.69364 5.56391H11.6117C11.9211 5.56515 12.2174 5.68862 12.4362 5.90739C12.655 6.12617 12.7785 6.42254 12.7797 6.73194L12.7939 21.3678ZM24.1432 14.6481C24.1432 14.8027 24.1125 14.9557 24.0529 15.0984C23.9934 15.241 23.9061 15.3704 23.7961 15.4791C23.6861 15.5877 23.5557 15.6735 23.4123 15.7313C23.269 15.7892 23.1156 15.818 22.961 15.8161H18.0429C17.7335 15.8149 17.4372 15.6914 17.2184 15.4726C16.9996 15.2539 16.8762 14.9575 16.8749 14.6481V6.73194C16.8762 6.42254 16.9996 6.12617 17.2184 5.90739C17.4372 5.68862 17.7335 5.56515 18.0429 5.56391H22.961C23.2699 5.56516 23.5658 5.68877 23.7838 5.90769C24.0019 6.1266 24.1243 6.42298 24.1243 6.73194L24.1432 14.6481Z" fill="white"/>
<path d="M61.2271 2.28207V7.9851H54.4695V29.6197H47.9531V7.9851H41.1956V2.28207H61.2271ZM69.5215 29.6197H63.4969V8.33976H69.5215V12.4161C70.6659 9.54563 72.496 7.8385 75.7542 8.04657V14.3502C71.4982 14.0191 69.5215 15.0595 69.5215 18.469V29.6197ZM108.667 29.7852C104.719 29.7852 102.236 27.8937 102.236 23.4202V0.120972H108.303V22.5879C108.303 23.8789 109.154 24.3376 110.195 24.3376C110.495 24.3436 110.795 24.3294 111.093 24.295V29.5393C110.3 29.7326 109.483 29.8154 108.667 29.7852ZM121.322 29.7852C117.373 29.7852 114.886 27.8937 114.886 23.4202V0.120972H120.953V22.5879C120.953 23.8789 121.809 24.3376 122.868 24.3376C123.167 24.3437 123.465 24.3295 123.762 24.295V29.5393C122.964 29.7345 122.143 29.8172 121.322 29.7852ZM126.67 18.9703C126.67 12.3971 130.453 7.89998 136.97 7.89998C143.486 7.89998 147.189 12.383 147.189 18.9703C147.189 25.5576 143.443 30.121 136.97 30.121C130.496 30.121 126.67 25.5009 126.67 18.9703ZM132.576 18.9703C132.576 22.1717 133.919 24.7111 136.97 24.7111C140.02 24.7111 141.287 22.1717 141.287 18.9703C141.287 15.7688 139.987 13.2956 136.97 13.2956C133.952 13.2956 132.576 15.7641 132.576 18.9703ZM83.8879 20.8949C85.5747 21.0803 87.27 21.1796 88.9667 21.1929C93.5821 21.1929 97.4787 19.9539 97.4787 15.4851C97.4787 11.1487 93.4733 7.89052 88.6546 7.89052C82.1666 7.89052 78.0099 12.5958 78.0099 19.1689C78.0099 25.9927 81.5944 30.0453 89.6949 30.0453C92.0981 30.0649 94.484 29.6384 96.7315 28.7874V23.6897C94.6508 24.3565 92.31 25.0185 89.9077 25.0185C86.6826 25.0185 84.4364 23.9592 83.8879 20.8949ZM88.5316 12.5343C90.2388 12.5343 91.6101 13.6929 91.6101 15.277C91.6101 17.3152 89.4585 17.9536 86.9806 17.9536C85.926 17.9487 84.8732 17.8649 83.8311 17.7029C83.9098 16.7093 84.1949 15.7429 84.6681 14.8656C85.0478 14.1703 85.6059 13.5887 86.2849 13.1806C86.9639 12.7725 87.7394 12.5527 88.5316 12.5437V12.5343Z" fill="white"/>
</svg>
