<svg width="101" height="31" viewBox="0 0 101 31" fill="none" xmlns="http://www.w3.org/2000/svg">
<path d="M15.0003 0.600952C6.71603 0.600952 0 7.3168 0 15.601C0 23.8856 6.71603 30.601 15.0003 30.601C23.2854 30.601 30.0007 23.8856 30.0007 15.601C30.0007 7.31734 23.2854 0.601669 15.0001 0.601669L15.0003 0.600952ZM21.8793 22.2354C21.8153 22.3403 21.7312 22.4315 21.6319 22.5039C21.5326 22.5762 21.42 22.6283 21.3005 22.6571C21.1811 22.6859 21.0571 22.6908 20.9357 22.6716C20.8143 22.6524 20.698 22.6095 20.5932 22.5453C17.0713 20.394 12.6376 19.9068 7.41621 21.0998C7.17444 21.1547 6.92073 21.1115 6.71084 20.9795C6.50095 20.8475 6.35205 20.6375 6.29688 20.3958C6.2694 20.2761 6.2658 20.1522 6.28628 20.0311C6.30677 19.91 6.35094 19.7941 6.41626 19.6902C6.48158 19.5862 6.56678 19.4961 6.66696 19.4251C6.76715 19.354 6.88036 19.3035 7.00011 19.2763C12.7141 17.9708 17.6155 18.5329 21.5694 20.9493C22.0101 21.2198 22.1498 21.7947 21.8793 22.2354ZM23.7153 18.151C23.3768 18.7013 22.6567 18.875 22.1068 18.5365C18.0747 16.0582 11.9285 15.3404 7.15935 16.7881C6.54084 16.9749 5.88758 16.6263 5.69986 16.0089C5.61029 15.7121 5.64209 15.3918 5.78829 15.1184C5.93449 14.845 6.18316 14.6407 6.47976 14.5503C11.9274 12.8974 18.6999 13.698 23.3302 16.5434C23.8801 16.8819 24.0538 17.6018 23.7153 18.151ZM23.8729 13.8979C19.0384 11.0264 11.0621 10.7624 6.44627 12.1633C5.70506 12.3881 4.92122 11.9697 4.6966 11.2285C4.58859 10.8724 4.62643 10.4879 4.80181 10.1597C4.97718 9.83153 5.27573 9.58641 5.6318 9.47827C10.9304 7.86975 19.7388 8.18053 25.3048 11.4848C25.4635 11.5786 25.602 11.7029 25.7126 11.8503C25.8231 11.9978 25.9035 12.1657 25.9491 12.3442C25.9947 12.5228 26.0046 12.7087 25.9783 12.8911C25.9519 13.0735 25.8899 13.2489 25.7956 13.4073C25.4016 14.074 24.5382 14.2938 23.8736 13.8979H23.8729ZM40.8108 14.4482C38.2207 13.8306 37.7603 13.3971 37.7603 12.4863C37.7603 11.6258 38.5699 11.0467 39.7754 11.0467C40.9433 11.0467 42.1004 11.4864 43.3149 12.3917C43.3507 12.4191 43.3973 12.43 43.4421 12.4229C43.4646 12.4196 43.4862 12.4118 43.5056 12.3999C43.525 12.3881 43.5418 12.3723 43.5549 12.3537L44.8195 10.5711C44.8445 10.5358 44.8551 10.4922 44.8491 10.4494C44.8431 10.4065 44.821 10.3675 44.7873 10.3404C43.3418 9.18093 41.7153 8.61723 39.8131 8.61723C37.017 8.61723 35.0627 10.2954 35.0627 12.6966C35.0627 15.2715 36.7483 16.1832 39.6608 16.887C42.1381 17.4578 42.5572 17.9361 42.5572 18.7909C42.5572 19.7384 41.7118 20.3277 40.3504 20.3277C38.8386 20.3277 37.6045 19.8172 36.2252 18.6243C36.1908 18.5952 36.1466 18.5804 36.1016 18.5831C36.0551 18.5867 36.0139 18.6082 35.9852 18.6422L34.5665 20.3295C34.5074 20.4012 34.5146 20.5051 34.5827 20.566C36.1876 21.9989 38.1615 22.7548 40.2931 22.7548C43.3059 22.7548 45.253 21.1087 45.253 18.5598C45.2584 16.4091 43.9705 15.2179 40.8161 14.4505L40.8108 14.4482ZM52.0704 11.8939C50.7646 11.8939 49.6935 12.4084 48.8086 13.4625V12.276C48.8088 12.2311 48.7912 12.188 48.7596 12.1561C48.728 12.1243 48.6851 12.1062 48.6402 12.106H46.3206C46.2274 12.106 46.1522 12.1823 46.1522 12.276V25.4596C46.1522 25.5527 46.2274 25.6298 46.3206 25.6298H48.6402C48.7334 25.6298 48.8086 25.5527 48.8086 25.4596V21.2986C49.6935 22.2891 50.7646 22.7745 52.0704 22.7745C54.4975 22.7745 56.9551 20.9063 56.9551 17.3348C56.9587 13.7625 54.5011 11.8937 52.0722 11.8937L52.0704 11.8939ZM54.2575 17.3348C54.2575 19.1527 53.138 20.4227 51.5331 20.4227C49.9478 20.4227 48.7513 19.0954 48.7513 17.3348C48.7513 15.574 49.9478 14.2471 51.5331 14.2471C53.1111 14.2469 54.2575 15.5453 54.2575 17.3348ZM63.2513 11.8939C60.1256 11.8939 57.677 14.3006 57.677 17.3736C57.677 20.4137 60.1094 22.7943 63.2136 22.7943C66.3501 22.7943 68.8058 20.3958 68.8058 17.3348C68.8058 14.2841 66.3662 11.8943 63.2513 11.8943V11.8939ZM63.2513 20.4406C61.589 20.4406 60.3351 19.1043 60.3351 17.3339C60.3351 15.5554 61.546 14.2648 63.2136 14.2648C64.8866 14.2648 66.1477 15.6005 66.1477 17.3727C66.1477 19.1509 64.9296 20.4406 63.2513 20.4406ZM75.48 12.106H72.9275V9.4969C72.9276 9.4747 72.9233 9.45269 72.9149 9.43214C72.9065 9.41159 72.8941 9.39289 72.8784 9.37712C72.8628 9.36136 72.8442 9.34882 72.8237 9.34024C72.8033 9.33165 72.7813 9.32719 72.7591 9.32709H70.4394C70.3463 9.32709 70.2693 9.4034 70.2693 9.4969V12.106H69.1551C69.062 12.106 68.9868 12.1823 68.9868 12.276V14.2691C68.9868 14.3626 69.062 14.4391 69.1551 14.4391H70.2693V19.5969C70.2693 21.6801 71.3064 22.7369 73.3538 22.7369C74.1849 22.7369 74.8745 22.565 75.5247 22.196C75.5785 22.1673 75.6107 22.11 75.6107 22.0491V20.1504C75.6107 20.0931 75.5803 20.0376 75.5301 20.0071C75.5057 19.9915 75.4776 19.9826 75.4487 19.9814C75.4197 19.9801 75.391 19.9865 75.3653 19.9999C74.9193 20.2238 74.4876 20.3277 74.004 20.3277C73.2606 20.3277 72.9275 19.9892 72.9275 19.2333V14.44H75.48C75.5731 14.44 75.6483 14.3637 75.6483 14.27V12.2771C75.6491 12.2548 75.6453 12.2327 75.6373 12.2119C75.6292 12.1912 75.617 12.1723 75.6014 12.1564C75.5859 12.1405 75.5672 12.1279 75.5467 12.1195C75.5261 12.111 75.504 12.1068 75.4817 12.1071L75.48 12.106ZM84.3716 12.1162V11.7958C84.3716 10.853 84.7334 10.4326 85.5431 10.4326C86.0267 10.4326 86.4154 10.5286 86.8507 10.6737C86.9044 10.6906 86.9599 10.6822 87.0029 10.6501C87.0247 10.6344 87.0425 10.6136 87.0546 10.5896C87.0668 10.5656 87.073 10.5391 87.0728 10.5122V8.55794C87.0732 8.52144 87.0617 8.4858 87.04 8.45642C87.0184 8.42704 86.9878 8.40552 86.9528 8.39512C86.4942 8.25845 85.9067 8.11819 85.0254 8.11819C82.8849 8.11819 81.751 9.3244 81.751 11.6052V12.096H80.6369C80.5438 12.096 80.4667 12.1723 80.4667 12.2658V14.2691C80.4667 14.3626 80.5438 14.4391 80.6369 14.4391H81.751V22.393C81.751 22.488 81.8281 22.5632 81.9212 22.5632H84.2391C84.334 22.5632 84.4092 22.488 84.4092 22.393V14.4396H86.5748L89.8922 22.393C89.516 23.2277 89.1452 23.3943 88.6401 23.3943C88.2317 23.3943 87.8 23.2725 87.3612 23.0307C87.3196 23.0097 87.2716 23.0052 87.2268 23.0182C87.182 23.0343 87.1444 23.0665 87.1265 23.1095L86.3402 24.8345C86.3025 24.9169 86.3348 25.0118 86.4136 25.0548C87.234 25.499 87.9738 25.6889 88.8891 25.6889C90.6015 25.6889 91.5491 24.89 92.382 22.7441L96.4051 12.3484C96.4155 12.3227 96.4194 12.2947 96.4163 12.2672C96.4131 12.2396 96.4031 12.2132 96.3872 12.1905C96.372 12.1678 96.3515 12.1492 96.3275 12.1363C96.3034 12.1234 96.2765 12.1167 96.2492 12.1167H93.8347C93.7612 12.1167 93.6967 12.1628 93.6735 12.2307L91.1998 19.2942L88.4914 12.226C88.4793 12.194 88.4577 12.1664 88.4296 12.1469C88.4015 12.1274 88.368 12.1169 88.3338 12.1167H84.3716V12.1162ZM79.2165 12.106H76.8968C76.8037 12.106 76.7267 12.1823 76.7267 12.276V22.393C76.7267 22.488 76.8037 22.5632 76.8968 22.5632H79.2165C79.3096 22.5632 79.3866 22.488 79.3866 22.393V12.2767C79.3867 12.2544 79.3823 12.2322 79.3738 12.2116C79.3652 12.1909 79.3527 12.1721 79.3369 12.1563C79.3211 12.1405 79.3023 12.128 79.2816 12.1195C79.261 12.111 79.2388 12.1066 79.2165 12.1067V12.106ZM78.0701 7.49914C77.1512 7.49914 76.406 8.24286 76.406 9.16158C76.406 10.0808 77.1512 10.8255 78.0701 10.8255C78.989 10.8255 79.7323 10.0808 79.7323 9.16158C79.7323 8.24304 78.9872 7.49914 78.0701 7.49914ZM98.3862 15.359C97.4691 15.359 96.7544 14.622 96.7544 13.7269C96.7544 12.8318 97.478 12.0863 98.3951 12.0863C99.3122 12.0863 100.027 12.8232 100.027 13.7176C100.027 14.6126 99.3033 15.359 98.3862 15.359ZM98.3951 12.2486C97.5586 12.2486 96.9263 12.9131 96.9263 13.7269C96.9263 14.5403 97.555 15.1959 98.3862 15.1959C99.2227 15.1959 99.855 14.5319 99.855 13.7176C99.855 12.9042 99.2262 12.2486 98.3951 12.2486ZM98.757 13.8854L99.2191 14.5317H98.8286L98.413 13.9388H98.0566V14.5317H97.7306V12.8186H98.4936C98.8931 12.8186 99.1546 13.0222 99.1546 13.3651C99.1564 13.6459 98.9934 13.8175 98.7587 13.8854H98.757ZM98.4811 13.1125H98.0566V13.6543H98.4811C98.6925 13.6543 98.8196 13.5506 98.8196 13.3831C98.8196 13.2069 98.6925 13.1125 98.4811 13.1125Z" fill="white"/>
</svg>
