<svg width="119" height="30" viewBox="0 0 119 30" fill="none" xmlns="http://www.w3.org/2000/svg">
<g clip-path="url(#clip0_1_12)">
<path fill-rule="evenodd" clip-rule="evenodd" d="M37.9292 23.6216L39.4088 20.1834C41.007 21.3784 43.1363 21.9997 45.2371 21.9997C46.7879 21.9997 47.7695 21.4021 47.7695 20.4964C47.7458 17.964 38.4793 19.9463 38.4082 13.5963C38.3845 10.3715 41.2488 7.8865 45.3083 7.8865C47.7221 7.8865 50.1312 8.48403 51.8527 9.84508L50.4679 13.3544C48.8935 12.349 46.9349 11.6329 45.0712 11.6329C43.805 11.6329 42.9703 12.2305 42.9703 12.994C42.994 15.479 52.3317 14.1179 52.4265 20.1834C52.4265 23.4793 49.6333 25.7983 45.6213 25.7983C42.681 25.7936 39.9826 25.1012 37.9292 23.6216ZM94.7471 18.9409C94.0073 20.2308 92.6225 21.1129 91.0196 21.1129C88.6532 21.1129 86.7468 19.2017 86.7468 16.84C86.7468 14.4783 88.6579 12.5672 91.0196 12.5672C92.6178 12.5672 94.0073 13.4493 94.7471 14.7392L98.8302 12.4723C97.3032 9.75023 94.363 7.8865 91.0196 7.8865C86.0734 7.8865 82.0614 11.8985 82.0614 16.8448C82.0614 21.791 86.0734 25.803 91.0196 25.803C94.3867 25.803 97.3032 23.963 98.8302 21.2172L94.7471 18.9409ZM54.4799 0.455261H59.5922V25.4616H54.4799V0.455261ZM100.836 0.455261V25.4616H105.948V17.9592L112.014 25.4616H118.558L110.843 16.5507L117.985 8.23743H111.725L105.944 15.1375V0.455261H100.836Z" fill="white"/>
<path d="M74.7819 18.9883C74.0421 20.2071 72.515 21.1129 70.7936 21.1129C68.4271 21.1129 66.5207 19.2017 66.5207 16.84C66.5207 14.4783 68.4319 12.5672 70.7936 12.5672C72.515 12.5672 74.0421 13.5204 74.7819 14.7629V18.9883ZM74.7819 8.24218V10.2719C73.9472 8.86342 71.8701 7.88176 69.6933 7.88176C65.2023 7.88176 61.6693 11.8464 61.6693 16.8163C61.6693 21.7863 65.2023 25.7983 69.6933 25.7983C71.8653 25.7983 73.9425 24.8214 74.7819 23.4082V25.4379H79.8941V8.24218H74.7819Z" fill="white"/>
<path fill-rule="evenodd" clip-rule="evenodd" d="M6.33098 18.9646C6.33098 20.7098 4.92251 22.1182 3.17733 22.1182C1.43215 22.1182 0.0236816 20.705 0.0236816 18.9646C0.0236816 17.2242 1.43215 15.8109 3.17733 15.8109H6.33098V18.9646ZM7.90544 18.9646C7.90544 17.2194 9.31391 15.8109 11.0591 15.8109C12.8043 15.8109 14.2127 17.2194 14.2127 18.9646V26.8464C14.2127 28.5915 12.8043 30 11.0591 30C9.31391 30 7.90544 28.5915 7.90544 26.8464V18.9646Z" fill="white"/>
<path fill-rule="evenodd" clip-rule="evenodd" d="M11.0591 6.3073C9.31394 6.3073 7.90547 4.89883 7.90547 3.15365C7.90547 1.40847 9.31394 0 11.0591 0C12.8043 0 14.2128 1.40847 14.2128 3.15365V6.3073H11.0591ZM11.0591 7.90547C12.8043 7.90547 14.2128 9.31394 14.2128 11.0591C14.2128 12.8043 12.8043 14.2128 11.0591 14.2128H3.15365C1.40847 14.2128 0 12.7996 0 11.0591C0 9.31869 1.40847 7.90547 3.15365 7.90547H11.0591Z" fill="white"/>
<path fill-rule="evenodd" clip-rule="evenodd" d="M23.6927 11.0591C23.6927 9.31394 25.1011 7.90547 26.8463 7.90547C28.5915 7.90547 30 9.31394 30 11.0591C30 12.8043 28.5915 14.2128 26.8463 14.2128H23.6927V11.0591ZM22.1182 11.0591C22.1182 12.8043 20.7097 14.2128 18.9646 14.2128C17.2194 14.2128 15.8109 12.8043 15.8109 11.0591V3.15365C15.8109 1.40847 17.2194 0 18.9646 0C20.7097 0 22.1182 1.40847 22.1182 3.15365V11.0591Z" fill="white"/>
<path fill-rule="evenodd" clip-rule="evenodd" d="M18.9646 23.6927C20.7097 23.6927 22.1182 25.1012 22.1182 26.8464C22.1182 28.5915 20.7097 30 18.9646 30C17.2194 30 15.8109 28.5915 15.8109 26.8464V23.6927H18.9646ZM18.9646 22.1182C17.2194 22.1182 15.8109 20.7098 15.8109 18.9646C15.8109 17.2194 17.2194 15.8109 18.9646 15.8109H26.87C28.6152 15.8109 30.0237 17.2194 30.0237 18.9646C30.0237 20.7098 28.6152 22.1182 26.87 22.1182H18.9646Z" fill="white"/>
</g>
<defs>
<clipPath id="clip0_1_12">
<rect width="118.558" height="30" fill="white"/>
</clipPath>
</defs>
</svg>
