<svg width="162" height="30" viewBox="0 0 162 30" fill="none" xmlns="http://www.w3.org/2000/svg">
<g clip-path="url(#clip0_1_2)">
<path d="M13.9113 0C15.2894 0 16.5614 0.107063 17.7275 0.424013C18.8935 0.63602 19.8475 1.06003 20.6955 1.59005C21.5436 2.12007 22.1796 2.86209 22.6036 3.81718C23.0276 4.77015 23.2396 5.93725 23.2396 7.20929C23.2396 8.69227 22.9216 9.96537 22.1796 10.9194C21.5436 11.8724 20.4835 12.7204 19.2115 13.3564C21.0136 13.8864 22.3916 14.8394 23.2396 16.1125C24.0877 17.3845 24.6177 18.9746 24.6177 20.7767C24.6177 22.2596 24.2997 23.5327 23.7696 24.5928C23.2396 25.6528 22.3916 26.6068 21.4376 27.2429C20.4835 27.8799 19.3175 28.41 18.0455 28.7269C16.7734 29.0439 15.5014 29.2569 14.2293 29.2569H0.0249023V0H13.9113ZM13.0633 11.8724C14.2293 11.8724 15.1834 11.5544 15.9254 11.0243C16.6674 10.4943 16.9854 9.5403 16.9854 8.37426C16.9854 7.73824 16.8794 7.10222 16.6674 6.67821C16.4554 6.2542 16.1374 5.93619 15.7134 5.61818C15.2894 5.40617 14.8654 5.19416 14.3354 5.08816C13.8053 4.98216 13.2753 4.98216 12.6393 4.98216H6.4911V11.8724H13.0633ZM13.3813 24.3808C14.0173 24.3808 14.6534 24.2748 15.1834 24.1698C15.7134 24.0628 16.2434 23.8507 16.6674 23.5327C17.0914 23.2147 17.4094 22.8967 17.7275 22.3667C17.9395 21.8367 18.1515 21.1996 18.1515 20.4586C18.1515 18.9746 17.7275 17.9146 16.8794 17.1715C16.0314 16.5355 14.8654 16.2185 13.4873 16.2185H6.4911V24.3808H13.3813ZM33.84 24.2748C34.688 25.1228 35.96 25.5468 37.6561 25.5468C38.8221 25.5468 39.8822 25.2288 40.7302 24.6988C41.5782 24.0617 42.1082 23.4267 42.3202 22.7897H47.5144C46.6664 25.3337 45.3943 27.1368 43.6983 28.3018C42.0022 29.3619 39.9882 29.9989 37.5501 29.9989C35.854 29.9989 34.37 29.6799 32.9919 29.1499C31.6139 28.6198 30.5539 27.8789 29.5998 26.8188C28.6458 25.8648 27.9038 24.6988 27.4798 23.3197C26.9497 21.9416 26.7377 20.4586 26.7377 18.7615C26.7377 17.1715 26.9497 15.6885 27.4798 14.3094C28.0098 12.9313 28.7518 11.7664 29.7058 10.7063C30.6599 9.75231 31.8259 8.90428 33.0979 8.37426C34.476 7.84425 35.854 7.52624 37.5501 7.52624C39.3521 7.52624 40.9422 7.84425 42.3202 8.58627C43.6983 9.32829 44.7583 10.1763 45.6063 11.4484C46.4544 12.6144 47.0904 13.9914 47.5144 15.4765C47.7264 16.9605 47.8324 18.4446 47.7264 20.1406H32.3559C32.3559 21.8367 32.9919 23.4267 33.84 24.2748ZM40.5182 13.1444C39.7761 12.4024 38.6101 11.9784 37.2321 11.9784C36.278 11.9784 35.536 12.1893 34.9 12.5084C34.264 12.8264 33.84 13.2494 33.4159 13.6744C32.9919 14.0995 32.7799 14.6285 32.6739 15.1585C32.5679 15.6885 32.4619 16.1114 32.4619 16.5365H42.0022C41.7902 14.9465 41.2602 13.8864 40.5182 13.1444ZM55.9947 0V11.0243H56.1007C56.8427 9.75231 57.7967 8.90428 58.9627 8.37426C60.1288 7.84425 61.1888 7.52624 62.3549 7.52624C63.9449 7.52624 65.2169 7.73824 66.171 8.16226C67.125 8.58627 67.973 9.22229 68.503 9.96431C69.0331 10.7063 69.4571 11.6604 69.6691 12.7204C69.8811 13.7804 69.9871 14.9475 69.9871 16.3245V29.3629H64.1569V17.3845C64.1569 15.5825 63.8389 14.3104 63.3089 13.4624C62.7789 12.6144 61.8248 12.1904 60.4468 12.1904C58.8567 12.1904 57.6907 12.7204 57.0547 13.5695C56.3127 14.5225 55.9947 16.1125 55.9947 18.2326V29.3629H50.1645V0H55.9947ZM74.2272 11.2364C74.8632 10.2823 75.6053 9.6463 76.5593 9.00922C77.5133 8.47921 78.5734 8.05625 79.7394 7.84319C80.9054 7.63118 82.0704 7.52518 83.2375 7.52518C84.2975 7.52518 85.3576 7.63118 86.5247 7.73718C87.5847 7.84319 88.6447 8.16014 89.4917 8.58521C90.4457 9.00816 91.0818 9.64524 91.7188 10.3873C92.2478 11.1303 92.5658 12.1904 92.5658 13.4624V24.5928C92.5658 25.5468 92.6718 26.5008 92.7778 27.3499C92.8849 28.1979 93.2008 28.94 93.5198 29.3629H87.5836C87.3706 29.1509 87.2646 28.7269 87.1596 28.41C87.0536 28.0909 87.0536 27.6679 87.0536 27.3499C86.0996 28.3029 85.0396 28.94 83.7675 29.3629C82.4955 29.7869 81.2234 29.8929 79.9514 29.8929C78.8914 29.8929 78.0433 29.7869 77.0893 29.47C76.2413 29.258 75.4993 28.8329 74.7572 28.3029C74.1212 27.7729 73.5912 27.1369 73.1672 26.2899C72.8492 25.4408 72.6372 24.5928 72.6372 23.4267C72.6372 22.2596 72.8492 21.1996 73.2732 20.4586C73.6972 19.7166 74.2272 19.0806 74.8632 18.5506C75.4993 18.1276 76.3473 17.7026 77.1953 17.4905C78.0433 17.2796 78.8914 17.0676 79.8454 16.9605L82.3895 16.6425C83.2375 16.5365 83.9795 16.4305 84.6156 16.3245C85.2516 16.1125 85.7816 15.9005 86.2056 15.5825C86.6296 15.2645 86.7356 14.8405 86.7356 14.2044C86.7356 13.5684 86.6296 13.0384 86.4176 12.7204C86.2056 12.4024 85.8876 12.0844 85.5696 11.8724C85.2505 11.6604 84.8276 11.5544 84.4035 11.4494C83.9795 11.3424 83.4495 11.3424 82.9195 11.3424C81.7535 11.3424 80.9054 11.5544 80.2694 12.0844C79.6334 12.6144 79.2094 13.4624 79.1034 14.5225H73.2732C73.2732 13.2504 73.6972 12.0844 74.2272 11.2364ZM85.7805 19.5046C85.4636 19.6106 85.0396 19.7166 84.6145 19.8226C84.1905 19.9297 83.7665 19.9297 83.2364 20.0346C82.8135 20.1406 82.2835 20.1406 81.8584 20.2466L80.5864 20.5646C80.1624 20.6706 79.7383 20.8827 79.5263 21.0947C79.2083 21.3067 78.9963 21.6247 78.7843 21.9427C78.4674 22.3667 78.4674 22.7907 78.4674 23.3207C78.4674 23.8507 78.5734 24.2748 78.7854 24.5928C78.9974 24.9108 79.2094 25.2299 79.5274 25.4408C79.8454 25.6528 80.2694 25.7599 80.6934 25.8648C81.1174 25.9698 81.5404 25.9708 82.0704 25.9708C83.2375 25.9708 84.0845 25.7599 84.7205 25.4408C85.3576 25.0178 85.7805 24.5928 86.0996 24.0628C86.4176 23.5327 86.6296 23.0027 86.6296 22.4727C86.7356 21.9427 86.7356 21.5197 86.7356 21.2007V18.9746C86.4176 19.1866 86.0996 19.3997 85.7805 19.5046ZM101.365 8.05625V11.0243H101.471C102.212 9.75231 103.167 8.90428 104.332 8.37426C105.499 7.84425 106.771 7.52624 107.936 7.52624C109.526 7.52624 110.798 7.73824 111.752 8.16226C112.812 8.58627 113.556 9.22229 114.086 9.96431C114.616 10.7063 115.039 11.6604 115.357 12.7204C115.569 13.7804 115.676 14.9475 115.676 16.3245V29.3629H109.845V17.3845C109.845 15.5825 109.526 14.3104 108.996 13.4624C108.466 12.6144 107.512 12.0844 106.028 12.0844C104.438 12.0844 103.271 12.7204 102.53 13.6744C101.788 14.6285 101.47 16.2185 101.47 18.3386V29.4689H95.6399V8.05625H101.365ZM128.712 11.8724C127.759 11.8724 127.016 12.0844 126.381 12.5095C125.745 12.9324 125.215 13.4624 124.791 14.2055C124.367 14.8415 124.155 15.5835 123.942 16.4316C123.731 17.2807 123.731 18.0216 123.731 18.8707C123.731 19.6117 123.837 20.4608 123.942 21.2017C124.155 22.0508 124.366 22.6858 124.791 23.3218C125.215 23.9589 125.639 24.4889 126.275 24.9118C126.911 25.3359 127.652 25.5489 128.606 25.5489C129.985 25.5489 131.045 25.1249 131.892 24.3818C132.635 23.6409 133.165 22.5808 133.271 21.2017H138.889C138.466 24.0638 137.406 26.1839 135.602 27.669C133.801 29.152 131.469 29.8951 128.606 29.8951C127.016 29.8951 125.532 29.577 124.26 29.047C122.881 28.517 121.821 27.775 120.868 26.821C119.915 25.8669 119.171 24.7009 118.641 23.4289C118.11 22.0508 117.9 20.6717 117.9 19.0817C117.9 17.3856 118.11 15.9016 118.641 14.5235C119.171 13.1455 119.808 11.8734 120.761 10.8134C121.715 9.75337 122.881 9.01134 124.154 8.37532C125.531 7.84531 127.015 7.5273 128.711 7.5273C129.984 7.5273 131.15 7.7393 132.315 8.05731C133.48 8.37532 134.541 8.90534 135.389 9.5403C136.343 10.1774 137.085 11.0243 137.615 12.0844C138.145 13.0384 138.464 14.3104 138.569 15.6885H132.845C132.636 13.1444 131.257 11.8724 128.712 11.8724ZM31.1899 2.01406H43.0622V4.87615H31.1899V2.01406ZM147.688 24.2748C148.537 25.1228 149.914 25.5468 151.504 25.5468C152.671 25.5468 153.731 25.2288 154.578 24.6988C155.427 24.0617 155.957 23.4267 156.168 22.7897H161.257C160.408 25.3337 159.137 27.1368 157.44 28.3018C155.743 29.3619 153.73 29.9989 151.292 29.9989C149.596 29.9989 148.112 29.6799 146.732 29.1499C145.428 28.6634 144.263 27.8628 143.341 26.8188C142.387 25.8648 141.645 24.6988 141.221 23.3197C140.691 21.9416 140.479 20.4586 140.479 18.7615C140.479 17.1715 140.691 15.6885 141.221 14.3094C141.732 12.9799 142.487 11.7578 143.447 10.7063C144.401 9.75231 145.567 8.90428 146.84 8.37426C148.218 7.84425 149.702 7.52624 151.292 7.52624C153.093 7.52624 154.683 7.84425 155.956 8.58627C157.333 9.32829 158.393 10.1763 159.242 11.4484C160.09 12.6144 160.726 13.9914 161.15 15.4765C161.573 16.9595 161.68 18.5495 161.573 20.2466H146.202C146.202 21.8367 146.84 23.4267 147.688 24.2748ZM154.472 13.1444C153.73 12.4024 152.563 11.9784 151.186 11.9784C150.232 11.9784 149.489 12.1893 148.853 12.5084C148.216 12.8264 147.686 13.2494 147.37 13.6744C147.053 14.0995 146.732 14.6285 146.627 15.1585C146.523 15.6885 146.417 16.1114 146.417 16.5365H155.957C155.638 14.9465 155.108 13.8864 154.472 13.1444Z" fill="white"/>
</g>
<defs>
<clipPath id="clip0_1_2">
<rect width="161.638" height="30" fill="white"/>
</clipPath>
</defs>
</svg>
