<svg width="100" height="30" viewBox="0 0 100 30" fill="none" xmlns="http://www.w3.org/2000/svg">
<g clip-path="url(#clip0_1_6)">
<path d="M91.2015 14.3799H87.6821C85.4165 14.3799 84.2027 16.0766 84.2027 18.904V29.1248H77.5279V14.3789H74.6954C72.4297 14.3789 71.217 16.0756 71.217 18.9029V29.1238H64.5411V8.92608H71.217V11.9964C72.3098 9.61294 73.8065 8.92608 76.0322 8.92608H84.2037V11.9964C85.2965 9.61294 86.7933 8.92608 89.0189 8.92608H91.2025L91.2015 14.3799ZM63.0844 20.6006H49.1678C49.5317 22.8631 50.9475 24.1559 53.3341 24.1559C55.1137 24.1559 56.3685 23.428 56.7735 22.1363L62.6794 23.7919C61.2237 27.3062 57.6223 29.4478 53.3341 29.4478C46.0923 29.4478 42.7749 23.8319 42.7749 19.026C42.7749 14.3 45.6874 8.64416 52.9291 8.64416C60.6158 8.64416 63.1643 14.3799 63.1643 18.6221C63.1694 19.2825 63.1427 19.9428 63.0844 20.6006ZM56.6115 16.6825C56.4495 14.9448 55.1947 13.3302 52.9302 13.3302C50.8255 13.3302 49.5727 14.2579 49.1678 16.6825H56.6115ZM31.125 29.1238H36.9899L44.3126 8.92813H37.5978L34.0375 20.6816L30.3961 8.92711H23.7202L31.125 29.1238ZM3.77675 29.1238H10.4116V14.3799H16.7245V29.1248H23.3184V8.92711H10.4116V7.67538C10.4116 6.30167 11.3824 5.45386 12.9202 5.45386H16.7235V0H11.8284C7.01318 0 3.77675 2.94939 3.77675 7.27044V8.92711H0.0144043V14.381H3.77675V29.1238Z" fill="white"/>
<path d="M95.3288 29.7297C97.6078 29.7297 99.4551 27.8844 99.4551 25.6085C99.4551 23.3327 97.6078 21.4884 95.3288 21.4884C93.0499 21.4884 91.2015 23.3337 91.2015 25.6096C91.2015 27.8854 93.0499 29.7297 95.3288 29.7297Z" fill="white"/>
</g>
<defs>
<clipPath id="clip0_1_6">
<rect width="99.4695" height="30" fill="white"/>
</clipPath>
</defs>
</svg>
