<svg width="101" height="30" viewBox="0 0 101 30" fill="none" xmlns="http://www.w3.org/2000/svg">
<g clip-path="url(#clip0_1_9)">
<path d="M27.4768 18.9467C25.8452 18.9467 24.3164 18.2559 22.9274 17.1314L23.2656 15.5439L23.2803 15.4851C23.5815 13.7949 24.537 10.9578 27.4768 10.9578C29.6815 10.9578 31.4748 12.7512 31.4748 14.9559C31.4674 17.1533 29.6742 18.9467 27.4768 18.9467ZM27.4768 6.90844C23.7211 6.90844 20.8109 9.34843 19.6278 13.3612C17.8197 10.6492 16.4527 7.39353 15.6517 4.65216H11.6095V15.169C11.6095 17.2416 9.91915 18.9318 7.8466 18.9318C5.77405 18.9318 4.08385 17.2416 4.08385 15.169V4.65216H0.0413059V15.169C0.0266 19.4759 3.53229 23.0108 7.83895 23.0108C12.1458 23.0108 15.6515 19.4759 15.6515 15.169V13.4053C16.4378 15.0441 17.4005 16.6977 18.5691 18.1677L16.0923 29.8088H20.2301L22.0233 21.3645C23.596 22.3714 25.4041 23.0035 27.4766 23.0035C31.9082 23.0035 35.5168 19.3729 35.5168 14.9412C35.5168 10.5169 31.9084 6.90844 27.4768 6.90844Z" fill="white"/>
<path d="M47.8563 7.36412L50.4653 17.881L53.3391 7.36412H56.7638L52.3469 22.5626H48.922L46.2102 11.9794L43.5055 22.5551H40.0808L35.6636 7.35687H39.0885L41.962 17.8737L44.571 7.35687H47.8561V7.36432L47.8563 7.36412ZM64.9583 6.90844C60.512 6.90844 56.9108 10.5169 56.9108 14.9559C56.9108 19.4024 60.5193 23.0035 64.9583 23.0035C69.4047 23.0035 73.0132 19.4024 73.0132 14.9559C73.0132 10.5096 69.4047 6.90844 64.9583 6.90844ZM64.9583 19.6963C62.342 19.6963 60.2253 17.5796 60.2253 14.9633C60.2253 12.3469 62.3493 10.2304 64.9583 10.2304C67.5747 10.2304 69.6912 12.3469 69.6912 14.9633C69.6912 17.5724 67.5747 19.6963 64.9583 19.6963ZM82.7951 10.7669C80.4949 10.7669 78.6355 12.6335 78.6355 14.9265V22.5551H75.1885V7.36412H78.6355V9.70118C78.6355 9.70118 80.1053 7.35667 83.1259 7.35667H84.1842V10.7669H82.7951ZM94.3632 14.368C96.8102 12.9863 98.4714 10.3626 98.4714 7.35667H95.0244C95.0244 9.89216 92.9667 11.95 90.4312 11.95H89.9681V0.0294189H86.5214V22.5549H89.9681V15.3969H90.3798C90.7179 15.3969 91.1589 15.6175 91.3573 15.8892L96.2518 22.5551H100.382L94.3632 14.368Z" fill="white"/>
</g>
<defs>
<clipPath id="clip0_1_9">
<rect width="100.402" height="30" fill="white"/>
</clipPath>
</defs>
</svg>
