<svg width="39" height="30" viewBox="0 0 39 30" fill="none" xmlns="http://www.w3.org/2000/svg">
<path opacity="0.2" d="M35.4944 2.42647C37.6854 4.85294 39 7.5 39 11.9118C39 19.6324 33.5225 26.4706 25.8539 30L23.882 27.1324C31.1124 23.1618 32.6461 18.0882 33.0843 14.7794C31.9888 15.4412 30.4551 15.6618 28.9213 15.4412C24.9775 15 21.9101 11.9118 21.9101 7.72059C21.9101 5.73529 22.7865 3.75 24.1011 2.20588C25.6348 0.661765 27.3876 0 29.5787 0C31.9888 0 34.1798 1.10294 35.4944 2.42647ZM13.5843 2.42647C15.7753 4.85294 17.0899 7.5 17.0899 11.9118C17.0899 19.6324 11.6124 26.4706 3.94382 30L1.97191 27.1324C9.20225 23.1618 10.736 18.0882 11.1742 14.7794C10.0787 15.4412 8.54494 15.6618 7.01124 15.4412C3.06742 15 0 11.6912 0 7.72059C0 5.73529 0.876405 3.75 2.19101 2.20588C3.72472 0.661765 5.47753 0 7.66854 0C10.0787 0 12.2697 1.10294 13.5843 2.42647Z" fill="white"/>
</svg>
